<mxfile host="app.diagrams.net" agent="Mozilla/5.0 (Windows NT 10.0; Win64; x64) AppleWebKit/537.36 (KHTML, like Gecko) Chrome/136.0.0.0 Safari/537.36" version="27.0.9">
  <diagram name="ページ1" id="iTVDCoua4XLStL2rc7BZ">
    <mxGraphModel grid="1" page="1" gridSize="10" guides="1" tooltips="1" connect="1" arrows="1" fold="1" pageScale="1" pageWidth="827" pageHeight="583" math="0" shadow="0">
      <root>
        <mxCell id="0" />
        <mxCell id="1" parent="0" />
        <mxCell id="GgMLfgmkicdNKZzxbHs8-7" value="" style="sketch=0;pointerEvents=1;shadow=0;dashed=0;html=1;strokeColor=none;labelPosition=center;verticalLabelPosition=bottom;verticalAlign=top;align=center;fillColor=#515151;shape=mxgraph.mscae.system_center.admin_console" vertex="1" parent="1">
          <mxGeometry x="168" y="110" width="130" height="90" as="geometry" />
        </mxCell>
        <mxCell id="GgMLfgmkicdNKZzxbHs8-13" value="フロントエンド" style="swimlane;" vertex="1" parent="1">
          <mxGeometry x="80" y="320" width="320" height="185" as="geometry" />
        </mxCell>
        <mxCell id="GgMLfgmkicdNKZzxbHs8-12" value="" style="group" connectable="0" vertex="1" parent="GgMLfgmkicdNKZzxbHs8-13">
          <mxGeometry x="48.099999999999994" y="39" width="270" height="107" as="geometry" />
        </mxCell>
        <mxCell id="utUIKrU_M130MY80s2PG-1" value="" style="shape=image;verticalLabelPosition=bottom;labelBackgroundColor=default;verticalAlign=top;aspect=fixed;imageAspect=0;editableCssRules=.*;image=data:image/svg+xml,PHN2ZyB4bWxucz0iaHR0cDovL3d3dy53My5vcmcvMjAwMC9zdmciIHdpZHRoPSI1MTIiIGhlaWdodD0iNDA4Ij48ZGVmcz48bGluZWFyR3JhZGllbnQgaWQ9ImJzLWxvZ28tYSIgeDE9Ijc2LjA3OSIgeDI9IjUyMy40OCIgeTE9IjEwLjc5OCIgeTI9IjM2NS45NDUiIGdyYWRpZW50VW5pdHM9InVzZXJTcGFjZU9uVXNlIj48c3RvcCBzdG9wLWNvbG9yPSIjOTAxM2ZlIi8+PHN0b3Agb2Zmc2V0PSIxIiBzdG9wLWNvbG9yPSIjNjYxMGYyIi8+PC9saW5lYXJHcmFkaWVudD48bGluZWFyR3JhZGllbnQgaWQ9ImJzLWxvZ28tYiIgeDE9IjE5My41MDgiIHgyPSIyOTMuNTE0IiB5MT0iMTA5Ljc0IiB5Mj0iMjc4Ljg3MiIgZ3JhZGllbnRVbml0cz0idXNlclNwYWNlT25Vc2UiPjxzdG9wIHN0b3AtY29sb3I9IiNmZmYiLz48c3RvcCBvZmZzZXQ9IjEiIHN0b3AtY29sb3I9IiNmMWU1ZmMiLz48L2xpbmVhckdyYWRpZW50PjxmaWx0ZXIgeG1sbnM9Imh0dHA6Ly93d3cudzMub3JnLzIwMDAvc3ZnIiBpZD0iYnMtbG9nby1jIiB3aWR0aD0iMTk3IiBoZWlnaHQ9IjI0OSIgeD0iMTYxLjkwMSIgeT0iODMuNDU3IiBjb2xvci1pbnRlcnBvbGF0aW9uLWZpbHRlcnM9InNSR0IiIGZpbHRlclVuaXRzPSJ1c2VyU3BhY2VPblVzZSI+PGZlRmxvb2QgZmxvb2Qtb3BhY2l0eT0iMCIgcmVzdWx0PSJCYWNrZ3JvdW5kSW1hZ2VGaXgiLz48ZmVDb2xvck1hdHJpeCBpbj0iU291cmNlQWxwaGEiIHZhbHVlcz0iMCAwIDAgMCAwIDAgMCAwIDAgMCAwIDAgMCAwIDAgMCAwIDAgMTI3IDAiLz48ZmVPZmZzZXQgZHk9IjQiLz48ZmVHYXVzc2lhbkJsdXIgc3RkRGV2aWF0aW9uPSI4Ii8+PGZlQ29sb3JNYXRyaXggdmFsdWVzPSIwIDAgMCAwIDAgMCAwIDAgMCAwIDAgMCAwIDAgMCAwIDAgMCAwLjE1IDAiLz48ZmVCbGVuZCBpbjI9IkJhY2tncm91bmRJbWFnZUZpeCIgcmVzdWx0PSJlZmZlY3QxX2Ryb3BTaGFkb3ciLz48ZmVCbGVuZCBpbj0iU291cmNlR3JhcGhpYyIgaW4yPSJlZmZlY3QxX2Ryb3BTaGFkb3ciIHJlc3VsdD0ic2hhcGUiLz48L2ZpbHRlcj48L2RlZnM+PHBhdGggZmlsbD0idXJsKCNicy1sb2dvLWEpIiBkPSJNNTYuNDgxIDUzLjMyQzU1LjUxNSAyNS41OCA3Ny4xMjggMCAxMDYuMzQyIDBoMjk5LjM1M2MyOS4yMTQgMCA1MC44MjcgMjUuNTggNDkuODYxIDUzLjMyLS45MjggMjYuNjQ3LjI3NyA2MS4xNjUgOC45NjQgODkuMzEgOC43MTUgMjguMjMyIDIzLjQxMSA0Ni4wNzcgNDcuNDggNDguMzd2MjZjLTI0LjA2OSAyLjI5My0zOC43NjUgMjAuMTM4LTQ3LjQ4IDQ4LjM3LTguNjg3IDI4LjE0NS05Ljg5MiA2Mi42NjMtOC45NjQgODkuMzExLjk2NiAyNy43MzktMjAuNjQ3IDUzLjMxOS00OS44NjEgNTMuMzE5SDEwNi4zNDJjLTI5LjIxNCAwLTUwLjgyNy0yNS41OC00OS44Ni01My4zMTkuOTI3LTI2LjY0OC0uMjc4LTYxLjE2Ni04Ljk2Ni04OS4zMTFDMzguODAyIDIzNy4xMzggMjQuMDcgMjE5LjI5MyAwIDIxN3YtMjZjMjQuMDY5LTIuMjkzIDM4LjgwMi0yMC4xMzggNDcuNTE2LTQ4LjM3IDguNjg4LTI4LjE0NSA5Ljg5My02Mi42NjMgOC45NjUtODkuMzF6Ii8+PHBhdGggZmlsbD0idXJsKCNicy1sb2dvLWIpIiBmaWx0ZXI9InVybCgjYnMtbG9nby1jKSIgc3Ryb2tlPSIjZmZmIiBkPSJNMjY3LjEwMyAzMTIuNDU3YzQ3LjI5NyAwIDc1Ljc5OC0yMy4xNTggNzUuNzk4LTYxLjM1NSAwLTI4Ljg3My0yMC4zMzYtNDkuNzc2LTUwLjUzMi01My4wODV2LTEuMjAzYzIyLjE4NS0zLjYwOSAzOS41OTQtMjQuMjExIDM5LjU5NC00Ny4yMTkgMC0zMi43ODMtMjUuODgyLTU0LjEzOC02NS4zMjItNTQuMTM4aC04OC43NHYyMTdoODkuMjAyem0tNTQuNjkyLTE4OS40OGg0NS45MTFjMjQuOTU4IDAgMzkuMTMxIDExLjEyOCAzOS4xMzEgMzEuMjc5IDAgMjEuNTA1LTE2LjQ4NCAzMy41MzUtNDYuMzcyIDMzLjUzNWgtMzguNjd2LTY0LjgxNHptMCAxNjEuOTYxdi03MS40MzFoNDUuNjAyYzMyLjY2MSAwIDQ5LjYwOCAxMi4wMyA0OS42MDggMzUuNDkgMCAyMy40NTktMTYuNDg0IDM1Ljk0MS00Ny42MDUgMzUuOTQxaC00Ny42MDV6Ii8+PC9zdmc+Cg==;" vertex="1" parent="GgMLfgmkicdNKZzxbHs8-12">
          <mxGeometry x="161.89999999999998" y="26" width="91.61" height="73" as="geometry" />
        </mxCell>
        <mxCell id="uNGbDnGRfmz86c7ta_x--1" value="" style="shape=image;verticalLabelPosition=bottom;labelBackgroundColor=default;verticalAlign=top;aspect=fixed;imageAspect=0;image=data:image/png,iVBORw0KGgoAAAANSUhEUgAAB9AAAAUPCAYAAADuz3uqAAAABmJLR0QA/wD/AP+gvaeTAAAgAElEQVR4nOzdebBleUEf8O857/V0z4IKyDAjjrKIJnGhEAwVl7ISy1AmksSiIv6hxBIcViMEwY1lXEFxGxgUKKMSq5KUrVQMMQS0sE2McQkmAacEaiBjWIp+3bP0TM/S3e+eX/54PTO9vOWe9+69v3vO/XyqblV3v/vu+c6bQzO/3/f8fr8EmJcvS1K8vKZ4Hc9iPXuG2b3G/frzLNaNM8zuNe7XbwUAWLRrUv+/ARb1es6MfmbL5Lmp/3Nd1OvwjH5mu/nViv98Xl4lyY9lMU4u8J9pGV5dkq+dyU9u/N6S+v++Fv36lZn85Pp5/gHyDu0FS6WtHQAAAAAAAKCyJsnbkxyqHWTJfXWSl9YOATBPCnQAAAAAAIDkK5O8rHaIJdYmuSXJWu0gAPOkQAcAAAAAANjy40meUDvEkvreJH+vdgiAeVOgAwAAAAAAbHlUkp+rHWIJPTbJT9YOAbAICnQAAAAAAIBHfEeSb6kdYsm8Ocnn1w4BsAgKdAAAAAAAgIvdnORI7RBL4uuSfHftEACLokAHAAAAAAC42FOTvLp2iCWwnuRtSZraQQAWRYEOAAAAAABwuR9O8uTaISr7/iRPqx0CYJEU6AAAAAAAAJe7Mskv1w5R0fVJXlc7BMCiKdABAAAAAAC29+wk31Y7RCU3J/nc2iEAFk2BDgAAAAAAsLObk1xTO8SCfXOSf147BEANCnQAAAAAAICd3ZDktbVDLNDhJG+tHQKgFgU6AAAAAADA7l6V5Ktqh1iQH0ryZbVDANSiQAcAAAAAANjdepK3JWlqB5mzp2SrQAdYWQp0AAAAAACAvX19ku+qHWLObk5ypHYIgJoU6AAAAAAAANN5c5JH1w4xJ89N8o9rhwCoTYEOAAAAAAAwnWuT/GTtEHNwVZKfqx0CYBko0AEAAAAAAKb34iTPqh1ixm5K8sTKGQCWggIdAAAAAABgem2StyVZqx1kRr48yStqhwBYFgp0AAAAAACAfp6R5EW1Q8xAk+StSQ7VDgKwLBToAAAAAAAA/b0xyfW1QxzQ85P8/dohAJaJAh0AAAAAAKC/z0nyM7VDHMCjk/xs7RAAy0aBDgAAAAAAsD/fleQf1A6xTz+V5NraIQCWjQIdAAAAAABg/34lyeHaIXp6RpIba4cAWEYKdAAAAAAAgP370iSvqB2ihzbJ25Ks1Q4CsIwU6AAAAAAAAAfz+iRPrB1iSi9J8qzaIQCWlQIdAAAAAADgYK5K8ou1Q0zh8Ul+onYIgGWmQAcAAAAAADi4f5bkObVD7OHNSR5dOwTAMlOgAwAAAAAAzMYtSa6uHWIH35DkO2uHAFh2CnQAAAAAAIDZ+KIkP1Q7xDbWs1XuN7WDACw7BToAAAAAAMDsvCbJ36od4hKvSvJVtUMADIECHQAAAAAAYHauSPL2LM9q7xuSvLZ2CIChUKADAAAAAADM1jcmeV7tEOfdnOSa2iEAhkKBDgAAAAAAMHu/mOTzKmd4dpJvq5wBYFAU6AAAAAAAALN3XZKbKl7/yiS/XPH6AIOkQAcAAAAAAJiPlyd5eqVr/3CSJ1e6NsBgKdABAAAAAADmYy3JO7L4PuZLkrx6wdcEGAUFOgAAAAAAwPx8TZIXLPiab0lyZMHXBBgFBToAAAAAAMB8vSnJ4xZ0recl+ZYFXQtgdBToAAAAAAAA8/WYJG9cwHUeleTnF3AdgNFSoAMAAAAAAMzf9yT5xjlf48eSPGHO1wAYNQU6AAAAAADA/DVJbklyaE6f/xVJXj6nzwZYGQp0AAAAAACAxfiKJN83h89tkrwj8yvnAVaGAh0AAAAAAGBxbsrst1n/niRfO+PPBFhJCnQAAAAAAIDFeVSSX5jh5z0myRtn+HkAK02BDgAAAAAAsFjfnuQfzeiz3pTkcTP6LICVp0AHAAAAAABYvJuTHDngZ3xNkhfMIAsA5ynQAQAAAAAAFu9LkrzmAN+/luQd0fUAzJS/VAEAAAAAAOr4kSRfus/vfXmSp88wCwBJ1msHAIA5OZ3kN2uHGLjbawcYqc8k+d3aIQbug7UDAAAAwIwcTvLWJM/u+X3XJblp5mkAUKADMFp3Jnlp7RCwjdvi3gQAAAAe8Q+TPDfJ7/T4nl9I8nnziQOw2mzhDgAAAAAAUNcvJblmyvd+Y5LvmGMWgJWmQAcAAAAAAKjrC5O8for3XZHkV5I0840DsLoU6AAAAAAAAPW9MsnT9njPq5P87QVkAVhZCnQAAAAAAID61pPckp1Xl39Rkh9eXByA1aRABwAAAAAAWA5fn+Rf7PC1W5JcvcAsACtpvXYAAAAAAFgiX5fkSO0QM/as2gFG5lSSjdohZuRQkkfXDrEgJ5N0tUPMyOnaAZi7n0vyn7J13z7knyZ5Tp04AKtFgQ7MwlfWDjBwm7UDAAAA8LAfrB2Apfeq868x+IYk/7V2iAX56iSfrB0CpvTYJD+R5CXnf39lkl+sFwdgtSjQgVn4q9oBAAAAAABG5MYk70ryp0lel+RJdeMArA4FOgBjdWWSb60dYuDuSvLfa4cYocfEvXlQn0nyl7VDAAAAwBy1Sd6W5DuT/KvKWQBWigIdgLF6XJL31A4xcH+R5O/WDjFCXxH35kEdTfLttUMAAADAnH11to5ZOFw7CMAqaWsHAAAAAAAAYFufXzsAwKpRoAMAAAAAAABAFOgAAAAAAAAAkESBDgAAAAAAAABJFOgAAAAAAAAAkESBDgAAAAAAAABJFOgAAAAAAAAAkESBDgAAAAAAAABJFOgAAAAAAAAAkESBDgAAAAAAAABJFOgAAAAAAAAAkESBDgAAAAAAAABJFOgAAAAAAAAAkESBDgAAAAAAAABJFOgAAAAAAAAAkESBDgAAAAAAAABJFOgAAAAAAAAAkESBDgAAAAAAAABJFOgAAAAAAAAAkESBDgAAAAAAAABJFOgAAAAAAAAAkESBDgAAAAAAAABJFOgAAAAAAAAAkESBDgAAAAAAAABJFOgAAAAAAAAAkESBDgAAAAAAAABJFOgAAAAAAMBqel/tAAM3SfIHtUMAzJoCHQAAAAAAWEWvTfLx2iEG7C1J/rR2CIBZU6ADAAAAAACr6P4k35uk1A4yQH+T5PW1QwDMgwIdAAAAAABYVX+Y5DdqhxigG5Ocrh0CYB4U6AAAAAAAwCp7ZZJP1w4xIL+e5P21QwDMiwIdAAAAAABYZaeSfH/tEAPx2SQ/UDsEwDwp0AEAAAAAgFX3O0neXTvEALw8yZ21QwDMkwIdAAAAAAAgeVmSu2qHWGLvydaDBgCjpkAHAAAAAACwPfluTiV5Se0QAIugQAcAAAAAANjy60neXzvEEnpVkk/XDgGwCAp0AAAAAACALSXJi5Kcrh1kiRxL8mu1QwAsigIdAAAAAADgEbcneX3tEEvi/iTfm60HCwBWggIdAAAAAADgYjcn+ZPaIZbA65LcVjsEwCIp0AEAAAAAAC7WJXlBkjO1g1T0F9l6kABgpSjQAQAAAAAALveRJG+qHaKSzWydBT+pHQRg0RToAAAAAAAA2/vpJH9VO0QFP53kf9UOAVCDAh0AAAAAAGB7Z7O1lfsqrcT+aJI31g4BUIsCHQAAAAAAYGd/nuSttUMsSJfkhUkerB0EoBYFOgAAAAAAwO5+NMnHa4dYgFuS/HHtEAA1KdABAAAAAAB2d3+SG5OU2kHm6G+SvLZ2CIDaFOgAAAAAAAB7+0CS36gdYo5elOTe2iEAalOgAwAAAAAATOeVST5dO8QcvCvJ+2qHAFgGCnQAAAAAAIDpnEryitohZuxkklfXDgGwLBToAAAAAAAA0/vtJO+uHWKGXpbkRO0QAMtCgQ4AAAAAANDPy5LcVTvEDPxekt+qHQJgmazXDgDAwt2b5MO1Qwzc5yW5oXaIEboj7s2DujbJ42uHAAAAgBXw2Wxte/6rtYMcwD1JXlw7BMCyUaADrJ4/SfJVtUMM3POTvKt2iBH6nfMv9u91SX68dggAAABYEb+W5HlJvrl2kH36gSSfqh0CYNnYwh0AAAAAAKC/kuTGJKdrB9mHP8qwV88DzI0V6MAs/LvaAQbu7iQvqR0CAACAJMlLk/xh7RAz9s1J3lI7BMBI3Z7kDUl+vnKOPh5I8sJsPQAAy8CRhLOxEf+7ngkFOjAL31E7wMBtRIEOAACwLD6d5CO1Q8zY36kdAGDkfinJc5N8be0gU3pDkttqh4ALfLZ2gJH43CT31A4xBrZwBwAAAAAA2L8uWyu6z9QOMoX/na3CH4AdKNABAAAAAAAO5q+TvKl2iD1sJnlBknO1gwAsMwU6AAAAAADAwf10kltrh9jFzyT5y9ohAJadAh0AAAAAAODgzmZrhfekdpBtfDTJT9YOATAECnQAAAAAAIDZ+LMkt9QOcYmHzmh/sHYQgCFYrx0AgIVbT3JN7RADd1XtACN1RfxsD+pI7QAAAABAfiTJtyZ5Su0g5/1ykj+uHQJgKBToAKvnm5L8l9ohYBvfneQdtUMAAAAAHND9SW5M8gdJmspZ/l+2Cn0ApmQLdwAAAAAAgNn6QJJ31Q6R5OVJ7q0dAmBIFOgAAAAAAACz94okn654/d9M8p6K1wcYJAU6AAAAAADA7J3KVolew8kkr6p0bYBBU6ADAAAAAADMx28neXeF635fkhMVrgsweAp0AAAAAACA+XlZkrsWeL3/nOTfL/B6AKOiQAcAAAAAAJifzyZ59YKudU+SFy/oWgCjpEAHAAAAAACYr19L8vsLuM5rknxyAdcBGC0FOgAAAAAAwHyVJDcmOT3Ha/xRknfO8fMBVoICHQAAAAAAYP5uT/KGOX32mSQvyVZRD8ABKNABAAAAAAAW45eS/MkcPvcNSf56Dp8LsHIU6AAAAAAAAIvRJXlxkrMz/Mz/k+QXZvh5ACtNgQ4AAAAAALA4H07yphl91maSFyQ5N6PPA1h5CnQAAAAAAIDF+qkkt87gc96c5IMz+BwAzlOgAwAAAAAALNbZbK0cnxzgMz6W5CdmEweAhyjQAQAAAAAAFu/Pktyyz+/tkrwwyQOziwNAokAHAAAAAACo5UeSfHwf3/f2JP9txlkAiAIdAAAAAACglvuT3Jik9PiezyT50fnEAUCBDgAAAAAAUM8Hkryrx/tfmuTuOWUBWHkKdAAAAAAAgLpeka2V5Xv5t0l+d85ZAFaaAh0AAAAAAKCuU9kq0XdzR5JXLiALwEpToAMAAAAAANR3NMm7d/n6v0yysaAsACtLgQ4AAAAAALAcXpbkrm3+/L3Z2r4dgDlToAMAAAAAACyHzyZ5zSV/dm+SF1XIArCSFOgAAAAAAADL418n+f0Lfv9DST5ZKQvAylGgAwAAAAAALI+S5MYkp5P8jyRvrxsHYLWs1w4AAAAAAADARW5P8vQkdyfp6kYBWC0KdAAAAAAAgOVzW+0AAKvIFu4AAAAAAAAAEAU6AAAAAAAAACRRoAMAAAAAAABAEgU6AAAAAAAAACRRoAMAAAAAAABAEgU6AAAAAAAAACRRoAMAAAAAAABAEgU6AAAAAAAAACRRoAMAAAAAAABAEgU6AAAAAAAAACRRoAMAAAAAAABAEgU6AAAAAAAAACRRoAMAAAAAAABAEgU6AAAAAAAAACRRoAMAAAAAAABAEgU6AAAAAAAAACRRoAMAAAAAAABAEgU6AAAAAAAAACRRoAMAAAAAAABAEgU6AAAAAAAAACRRoAMAAAAAAABAEgU6AAAAAAAAACRJ1msHgBG7I8kba4dgEO6tHQAAAGAP55L8Zu0QC/LJ2gHm4G+yOv/+JrUDDMzxrM69cV/tAAP0b5JcXTvEnN1VO8AI/M8k76wdYgH+uMI1P57V+Tua2ThbOwAADNWzkxQvrylef57FunGG2b3G/fqtAAAAAADMgS3cAQAAAAAAACBJUzsAAAu3luSq2iEYhEmS+xd4vUNJjizwegzXuSQP1g4BAAAAAAAAAAAAAAAAAAAAAAAAAAAAAAAAAAAAAAAAAAAAAAAAAAAAAAAAAAAAAAAAAAAAAAAAAAAAAAAAAAAAAAAAAAAAAAAAAAAAAAAAAAAAAAAAAAAAAAAAAAAAAAAAAAAAAAAAAAAAAAAAAAAAAAAAAAAAAAAAAAAAAAAAAAAAAAAAAAAAAAAAAAAAAAAAAAAAAAAAAAAAAAAAAAAAAAAAAAAAAAAAAAAAAAAAAAAAAAAAAAAAAAAAAAAAAAAAAAAAAAAAAAAAAAAAAAAAAAAAAAAAAAAAAAAAAAAAAAAAAAAAAAAAAAAAAAAAAAAAAAAAAAAAAAAAAAAAAAAAAAAAAAAAAAAAAAAAAAAAAAAAAAAAAAAAAAAAAAAAAAAAAAAAAAAAAAAAAAAAAAAAAAAAAAAAAAAAAAAAAAAAAAAAAAAAAAAAAAAAAAAAAAAAAAAAAAAAAAAAAAAAAAAAAAAAAAAAAAAAAAAAAAAAAAAAAAAAAAAAAAAAAAAAAAAAAAAAAAAAAAAAAAAAAAAAAAAAAAAAAAAAAAAAAAAAAAAAAAAAAAAAAAAAAAAAAAAAAAAAAAAAAAAAAAAAAAAAAAAAAAAAAAAAAAAAAAAAAAAAAAAAAAAAAAAAAAAAAAAAAAAAAAAAAAAAAAAAAAAAAAAAAAAAAAAAAAAAAAAAAAAAAAAAAAAAAAAAAAAAAAAAAAAAAAAAAAAAAAAAAAAAAAAAAAAAAAAAAAAAAAAAAAAAAAAAAAAAAAAAAAAAAAAAAAAAAAAAAAAAAAAAAAAAAAAwRM2XPudTP5U0a7WDAAAAMDyHznY/e+v7brizdg640Kf/yZc8PaV9Xu0cAAAADM96khcm5draQQAAABieBz7n7BtrZ4BLdV17fdPkB2vnAAAAYHjaJMdrhwAAAGCQHvzE0aecqh0CLrVWWnMdAAAA7EubokAHAACgvybZqJ0BttN1m+Y6AAAA2Je2tI1BJQAAAL0VO5qxpE5dc3gjSamdAwAAgOFpmxQTHgAAAOyH8SRL6cuP3no2yd21cwAAADA8bVOKLfcAAADYBw9ks9TcnwAAAPTWdrGFOwAAAPthPMnyahILBgAAAOjNFu4AAADsS9PY0YzlVaxABwAAYB/aLmsGlAAAAPRW0hpPsrRKUaADAADQ24NtWyYGlAAAAPRmRzOWmfsTAACAfTjePuoLjm8kKbWTAAAAMCyTxo5mLLG2ccQAAAAAfR1vP/jOZ55LcnftJAAAAAzLemtHM5ZXUxr3JwAAAD01x9vzvzKoBAAAoI/NjzztCXfVDgE7KfGABwAAAP00KVsFeqNABwAAoJ8TuanpaoeAnazHEQMAAAD0U5KN9vwvDCoBAACYXmMcyXLrcq97FAAAgF7KQyvQE+eCAQAAML1iHMmS+4L3fOb+JKdr5wAAAGA42nL+DPRSykbtMAAAAAxHk6JAZwjcpwAAAEytS/vQGegmPgAAAJiecSTD0FgwAAAAwNTWyuR8gd62Jj4AAACYmi3cGYLiQQ8AAAB6mGxesVWgd01nQAkAAMD0SqzsZek1HvQAAABgeptf+L5b72qTZK1ZN6AEAABgal3sZMbyswIdAACAHjaapLRJcvrQpgElAAAAU2uLncxYfq2dEgAAAJje8SRpk+RTR294IMnpqnEAAAAYjEPdOQU6S6/Ywh0AAIApNRcW6OcZVAIAADCN7nH3P/Fk7RCwl7bYwh0AAIDplMsK9KJABwAAYCp3HDvWbNYOAXvpSmuuAwAAgKmU8w9hP1Kgt7Y1AwAAYG/FDmYMxJmrz7pXAQAAmErTNhvJBQV6iW3NAAAA2FuTbNTOANN4ytFPnEryYO0cAAAALL+S5uIV6I0CHQAAgKkYPzIkjQc+AAAA2FOb7tIz0FsDSgAAAPb00BPZMARNivkOAAAA9tSlvbhAL+cbdQAAANiNHcwYkpK4XwEAANjTFTl76RbuawaUAAAA7KmU1viRwSjFAx8AAADsqbv2ni++I7mgQF8rEwNKAAAA9tTYwYwBaRw5AAAAwN5ONseObSYXFOhnrjzrTDAAAAD21LTOlGZAmsb9CgAAwF4efvj64QL9E0efcirJg1XiAAAAMBibjSPAGA47JgAAADCFhx++bi/80+aCLwAAAMB2JqfOnqidAaZV0irQAQAA2NWFx39dVKCXC5amAwAAwDbuvv3Yk+xexmBMMjHXAQAAwK5KyvYFehToAAAA7M64kUE5ZAU6AAAAeyg7rUDPBc06AAAAXK4xbmRQrn/Px+5Icq52DgAAAJZXk26nAt1ECAAAALvx4DXD0iQlycnaOQAAAFhepTQbD/36ogK9acrG5W8HAACA84wbGSb3LQAAADtaK+32K9CLc8EAAADYRWPnMgaouG8BAADYRddtbl+gN7biAwAAYBclMW5kcMx3AAAAsIvyQHLiod9cVKBPmjUDSgAAAHbUFCt5GR4r0AEAANjF3U99721nHvrNRQV62znLDgAAgJ1NrORlgNrSme8AAABgJxfNdVxUoH/sPdffkeTcQuMAAAAwGG03UUQyOFagAwAAsLNm5wI9aUqSkwtMAwAAwIAcOXdYEcngdKV13wIAALCDi3dpby/7ehODSgAAALZz34fef919tUNAX22ZmOsAAABgW6XssoV7YlszAAAAdmS8yCBtHll37wIAALCtJmX3Av3SNwAAAECSNAp0BuqL73z8iSRd7RwAAAAsn0sXmF9eoJeL93gHAACAJCkeuGagmmPHNpPcVTsHAAAAy6dt9yjQu7QmRAAAALhM48gvBqzYQQEAAIBtdE1nC3cAAAD6swKdIXMEAQAAANs51LUX7dBuBToAAADTKa0jvxiuokAHAABgG2cO716gt6UzoAQAAOAydixj2Ny/AAAAXOb0de//0H0X/sFlBfraFZtWFAAAAHCZUuxYxoA1jfkOAAAALnXZXMdlBfrj7/ziE0m6hcQBAABgMOxYxpA1ady/AAAAXGyb474uK9CPHWs2k9y5kEAAAAAMxtmrzyggGawSD4AAAABwsaadokA//1aDSgAAAC505hNHn3xP7RCwX525DgAAAC5RUqYt0C9/IwAAACttI2lK7RCwX+vZNNcBAADARUppNi79MwU6AAAAU7B6l2E7c2932aQIAAAAq63NlFu4b9e0AwAAsMo8aM2wPenY7Q+WxDEEAAAAPKybdgv37Q5LBwAAYHWVokBn+BoPggAAAHCBtW123Nu+QLc1HwAAABcwTmQc3McAAAA8YlLWpivQt1uqDgAAwOpqWuNExkCBDgAAwCOumpybrkBv0xlQAgAA8LCutBu1M8DBeRAEAACAhz342Pfeds+lf7htgX6urJsYAQAA4GGt4pERaErMdwAAAHBes+0YcfsV6Jv3HU9S5poHAACAwZhkokBn8IoHQQAAAHjY9mPEbQv029771DNJLluuDgAAwGpqc0jxyOAVZ6ADAADwiOkL9CRJs/03AAAAsHI2P/aM6++sHQIOql1rzXUAAACQJCm9C3TbmgEAALDlRG5qutoh4KAmzaa5DgAAAJIkTd8C3bZmAAAAJLFDGaNxZbe2UTsDAAAAy6E0zbZjxB0L9KbEoBIAAIA0pRgfMgqP+48fvTdp7q+dAwAAgPraHXZk32ULdyvQAQAAsEMZY+OBEAAAAHae79hlC3dnoAMAAJA0xoeMi/sZAACArDWTfgV6k9aAEgAAgHTGh4xJ8UAIAAAAyaRd71egd6UzoAQAAMAKdEalcSQBAAAAyeYTnvaRu7b7wvqO37LebWSyyxHpALACmquuSHvNFbVjADBD3b1nUh44VzvGoFiBzpiUtjmeUmrHAICqrnxMm7X1pnYMAGbo9IlJYqjTx0ZzU7rtvrBjgX740JHj5yZn5xcJAAahJK0BJcCoKM56aybdRu0MMCuldBtN/PcdAKutbZLG+jmA8ShFed7fjosFdvy/yFuPXns6yX1ziQMAAFDLts8Ws5v1I5tWoDMajR0VAACAkSmdh4T7apqy42KBPZ4x2/kbAQAAhqh0GvSeylWff/Jk7RAwKyUTBToAADAqXWf5eV8lTf8V6Ft2/kYAAIBBMqjs644PvvOZDo1nNNasQAcAAEamWCvQ2wEK9GJQCQAAjEhRoPfmwWrGZXL2kN32AACAUVGg99fs0oPvXqCX1qASAAAYj4nyvD8PVjMuX/i+W+9KcrZ2DgAAgFkp5jt62/cK9KY1UQIAAIyHJ7L3w7iQcWmSkuRE7RwAAACz0pnv6G2tTHZcSL5rgb5b8w4AADA4RpS9ldLYmYwRMt8BAACMhwUD/XWl3ecKdCsNAACAMXH+eW9NG+NCRsh8BwAAMCIK9N7OdYf2V6BPSrHSAAAAGA8Fem+NlbqMk/saAAAYjc4Z6H11T7z/cSd3+uKuBXqbNQNKAABgNIoCvbfOSl1GqFgwAAAAjEjpmtoRhuaO5tixzZ2+uGuBfrg7Z6IEAAAYDwV6b20640JGx84KAADAWJQkpZjv6Gf3xQK7Fugf/r0vujvJmZnmAQAAqGXiULC+zpV1K3UZnaJABwAAxsL27fuw+5hw1wI9aUqanJhlHAAAgFqK/ry37t4zCnRGp11zNAEAADAOtm/vryS7znXsUaAnSQwqAQCAUWg6DXpPp24/9qQHa4eAWevSmusAAABGoXNcXW/NQbZwT5IUBToAADAOxaCyn8Z4kHG6othZAQAAGAdzHf3tdazXNCvQDSoBAIDBM6DcD9tcM07XHv6/J5NMaucAAAA4qDKxhXtfbTnoCvQ9GngAAIAhaBTove31RDYMVXM0kyR31M4BAABwUKWY7+irO/gKdCsOAACA4bMCvb+9zgSDgXN/AwAAg1e62gmGZ620ByvQiwkTAABgDCZGlL2V1pFejFdRoAMAAMPXme7orayf23W+Y88CvWlNmAAAACNgBXpvHqhmzJrW/Q0AAIzAxHxHX/efbQ5WoLfpDCgBAIDBs4V7f01239IMhqyU3SdMAAAAhsAK9N7ufrF2z/0AACAASURBVOp7bzuz2xv2LNDPtYdMmAAAAMOnQO+tKx6oZrxKGvc3AAAweM5A723PseCeBfrHn/b4k0k2ZxIHAACgFgV6b22ZKBgZrcaOewAAwMB1k9oJhqeZRYGem5ouyR2zCAQAAFCNPc16O3LusIKR0bICHQAAGDyLBXorMynQtxhUAgAAg2ZLs36a5P4Pvf+6+2rngHlZswIdAAAYuKI/760UBToAAMCWiVFlHyXFOJBR6zazUTsDAADAQdhsr7+mbfYcC05VoJdm7w8CAABYWl1JokDvx/bWjNupaw5vxF8MAADAgBVnoO/D3gsGpirQGysPAACAASvOBNsH40DG7cuP3no2yd21cwAAAOyX4+r6a8reCwamLNCtPAAAAIarUaDvg3EgK8F9DgAADJYFA/2VTGZToDv7DgAAGDIDyv6KYpGV4EERAABguKxA7289a7Mp0FOKM9ABAIDBKp0RZV/TbGkGw2fBAAAAMFydM9D7O3N4z957qgK9m6KJBwAAWFa2cO+vaT1IzfiVEvc5AAAwXOY7+jp93fs/dN9eb5qqQG/L3nvBAwAALCtbmvXXpTMOZPQaK9ABAIABM9/R21QPUU9VoD/qC45vJPEIAwAAMEwTI8q+WjuRsQKKM9ABAICBKp3ytr/pxoBTFegffOczzyW560B5AAAAarGlWW9n2rOKRUavbRXoAADAMBVzHb2VKXchm6pAP8+gEgAAGKTSWYHe05nb/8MTT9UOAfPWNY4qAAAAhql0Te0Ig9PMcgV6khQFOgAAMFCNp7L72kgaPzRG71DXTnX+HQAAwLKxAr2/ma9Ab6Y8VB0AAGCplKQYU/ZkW2tWw7kj9322dgYAAID96CYmO/pqy3R9d48t3E2gAAAAw2P79v0oHqBmJdxw9FMPJDldOwcAAEBftnDvr8x+C/fplrQDAAAsE9u399c4wovV4n4HAAAGxxbu/bVl5lu4K9ABAIDhsQK9v2mfyIZRKAp0AABgeIrpjt660s64QG9aW/gBAADDM6kdYHg8QM0qaVoFOgAAMDwK9P7OXH12tgV613QGlAAAwPDY0qy3zgp0VkgpjQUDAADA4HTmO/o68+Sjn7hnmjdOXaCvNesmUAAAgMGxhXt/rRXorJDifgcAAIbIdEdPzfEmmeqpg6kL9NOHNg0oAQCA4Zl4IruvtuusyGVltLGFOwAAMDBdUkx39DT9w9NTF+ifOnrDA0nu3VceAACASootzXo71x1SKLIyOivQAQCAgbHZ3r5MvVhg6gL9PINKAABgUBoFel+T25513R21Q8CirHXOQAcAAIbFYoH+SpnDCvStT56+mQcAAFgGzkDvqzmRmxo/NFZGV1qLBQAAgEEpRu29NWnmVKC3038wAABAdaUkHsruyXbWrJYzV591zwMAAIOiQO+v9Oi5exXoxUQKAAAwJAaUvTXGfayYpxz9xKkkD9bOAQAAMK3OFu69tT3mO3oV6CZSAACAIbF9e3+lx5ZmMB7OQQcAAIbDCvT+Spl+3NezQDeRAgAADMjEE9n7oEhkBVkwAAAADIgCvbdJJvNZgd6VYiIFAAAYDivQeyvFg9OsJPc9AAAwGJ0FA70dSjuvLdzXDCgBAIDBsKVZf47uYhUVCwYAAIABKV1TO8LQbF7/jI/dOe2bexXoa2X6pe0AAAC1NZ0nsvtqS2fcx8pxZB0AADAknfmOvk40N02/8X2vAv3c5CoDSgAAYDCKLdx7m5TptzSDsSitAh0AABiGUpLoz/tp+h3b1atAv+29j70nyQO9AgEAAFRSPJHdW7ve2cqaldM6ugAAABgKawV663tcXa8C/TyTKQAAwCDYwr23cs11Gydqh4BFK6Ux1wEAAAyC7dv76zvmU6ADAACjZQV6b3d+8J3PPFc7BCzaJBMr0AEAgEEoVqD3VtLv2K79FOgGlQAAwACURIHek22sWU2H0rr3AQCAQSiT2gmGp0037wLdhAoAADAAE+V5f/2eyIb/z979/EqWXflCXzvuzcr6lZnlzLJd7W532+IZPdRIDcKoByAhMURCSPwHvAEzJkyQGFkMQYi5B4wRNWirrVapPcrHCAaWkFuF2k/VUCCru515I27eiJs/7z1nMXBZz12uH7nPjRP7nBOfj+RhZa6OdpRj7+9eay3FH/z0X60jwvQFAABg8kzbq3eADnQXKgAAwPQZaTZAmjjGcSoRGRFnresAAAD4Or37jmqjd6CnDnQAAGAOnCirpZVdHLPiv/8AAMD0aRio12fd2q7qAL2U1aPafwYAAODgjDSrVko473G0ioYBAABgDgTo1a7fOKm676gP0B0oAQCAORCgVytWdnHEMosHJAAAwOT17jtq5dn7b1et7KoO0Lty4kIFAACYvHSgrNZ7MM0RSw9IAACAGTDCvdr6hz/++VXNP1AdoJ+uOgdKAABg+gTo1Ur0znscrZX//gMAABOXIUCvVSKqz3rVAfrf/sUfbiKiKqUHAAA4uM6JstZ1nAoQOVo60AEAgMnrNAvUykME6BElI+Jx/T8HAABwOEa41+t3L+2A5mj1/cp//wEAgEnLvrQuYXYOFKBHRAmHSgAAYNKKAL3WxacPv/+idRHQyiqtrAMAAKatd9dRrUQeJkA31gwAAJi6TIfKGhkeSnPcrt+0wgAAAJg2+88HKKX6vmNQgD4kqQcAADiU7DNCfl6lDBhpBkvyJ5tvP44I11EAAMBkCdDrlQGN4QJ0AABgcUrvRFlLgM6xKw8fXkfEpnUdAAAAXyaNcK+W0RvhDgAA4EV2vRSgg4ckAADApLnvqNfH6jABeqTdeAAAwIR1TpT1PJQGD0kAAIApM3Cv3km5PkyAPiSpBwAAOBgjzaqlVV2gYQAAAJi2zn1HrVcX3ePaf2ZQgL7K+lnxAAAAh2InWL2SKTgED0kAAIAJ6/vSuoS5efL9h5++qP2HBgXot/orB0oAAGC6BOjVVicmjUGsrDIAAACmS8NApTJsytigAP3jd773OCJM2QcAAKbJgbLadekEhxy9EgJ0AABgmoTn9TJi0BlvUIAeH5YuItaD/lkAAICx9d771rp9603BIUcvs7fKAAAAmKQ0vr1aGbima1iA/pu/0qESAACYJK+yqz3/+MNvXbYuAlrrdaADAAAT5a6jXg48490gQB+W2AMAAIxOA3ql/MfWFcAUnMa1uw4AAGCSDNurN3RNlwAdAABYlj4j0qvsOrpuISLi5c4IdwAAYJqya13BDA1c0zU4QB/a8g4AADAqI82qZYbQECLi+w8/fRERF63rAAAA+Dwj3OutDt2BPnTpOgAAwJjSTLNqQ0eawSKV8H0AAAAmJ113VOuzP3CAXlY6FAAAgOlxoKxWVh5Iw29lCNABAIDpEaDX63J12AC914EOAABMkA70elZ0wb9WsmgYAAAAJqe3A73a7as3Dxugr2JYyzsAAMCYip1g1azogt/l+wAAAEyQ+45aTz/42S+eDvkHBwfo1+XEgRIAAJic7Bwoa3WZOm7hM8UIdwAAYIKMcK82+Gw3fAf6q2ePIsLNFAAAMC1eZFdbhQfS8FupAx0AAJiY7IWyAwxuFhgcoH/y0Q9eRsTF0H8eAABgFAL0arf7K4EhfCbtQAcAACYm3XVUyxYd6BERUYYn9wAAAGPI3kyzSq/+5q/++EnrImAqVicrD0oAAIBJyb60LmF2brKe62YBurFmAADAxBSvsuuUeBRRfGjwma5cu+sAAAAmRQf6EMNz7BsF6BnFoRIAAJiOjEhnylrOdfA73rx123cCAACYlL5z2VGr5PAc+0YBetGBDgAATIjx7QOkAB1+17c+/PgyIp62rgMAAOC3Mo1wr3WTRvCbjXDPlR3oAADAZBjfXu8mO8FgqTLCfQcAADAd7juq9at+8LnuhiPcdaADAADTkZ0O9FoZRVAIn1ME6AAAwIT0XesK5uckVq1GuA//iwEAAPYt5ecDeBgNvyd9LwAAgOlw31Hv1eplmwC9z96BEgAAmAwj3OuZLAa/r9xgVx4AAMC+9e47ar383k8+vRj6D98oQF9l50AJAABMRvaeZNcqKSiEz8uV7wUAADAhrjtqPSoRg18d3ChAf/PqtgMlAAAwHV5kVzsxWQx+TzGZAQAAmIo+Il13VCkRNzrT3ShA/8XPPngaEU9v8mcAAADsjQC92qs33njUugaYmsziewEAAEyCYXv1smWA/lkJDpUAAMAkpAC9Vvd3p99ety4CpibDyjoAAGAadJ8PcbNH0XsI0O0FAwAAJsKz7Fpn8WHpWhcBU3MSK3cdAADAJPSaBarddC3XPjrQHSoBAID2MiPk57Wc5+ALXPW3fTcAAIBp8Oy9Wt6wAVwHOgAAsAzC8yGc5+AL/PFf/c2TiHjZug4AAAAd6PVK9G0D9JsuYQcAANiHNL59COc5+AIlIqPE49Z1AAAApOuOannDtVw3DtBLudkSdgAAgL3wInsIATp8mXTfAQAAtJdGuFfromscoNuBDgAATIEAvZoH0fBV3HcAAADtpfuOam9cx43uO24coPc3nCEPAACwDw6U9VJACF/F9wMAAGgu+9K6hLnpPvjzT9Y3+QNuHKCv4sSBEgAAaK4I0KuZKAZfrgjQAQCACejdd1QpEY/Lj+JGm+NvHKC/XL1yoAQAAJrL7kZno6PUxcp5Dr5ECtABAIDGMiNCfl5lH2e505v+AZ/+5PtP/s3/9FcvI+L2Tf8s+DK3Tku86b9hQANv3C3Rv2VEDnBYfR9x+cLpqJYR7vVOohMQwpfILI9K8e8VRnb7rSinN76eA6izWkV59zTKiQeowGHlqxcR169alzEv/lVdLaO0D9AjIqLE48j4o738WfAF/t1/XuJ/+q9vtS4DOELl1nvx4J4LLeCw/o9fXsd/8T8+a13G7JQ+Pcquk+9+8Ohx6yJgqlYn+et0WcXIbv2L/zZW//5/3LoM4Micnp7Gvffea10GcISe/8//TVz97z9tXcasGN9ebx/r6m48wv0zuhYY1fnWvyAAgOOx9ttnEB3o1TY///EPr1oXAVPVW3HAAeR207oEAICD8dunnke99fbRgb6fAD0F6Ixrc9G6AgCAw9nsBMHVMiIE6LUetS4ApuzW6spdB6PL7XnrEgAADia3Z61LmJ2+a13B/Kyyv/F9x14C9KIDnZE92aX7UADgaJzpQK/nSXa1dI6Dr/Tt079bR4TrKsZ1oQsLADge/XbduoT5EY5Vm0wH+j4Kga/S9RHby9ZVAAAcxnorDK4lP6/nITR8tfJhdBGhRYZRGWMKAByN7CMvTd+plX1pXcLs9HnzdVx72oGeRv8xus2FW1EA4DjYgT5A57direIhNLwO9x2Mywh3AOBI5OUT88gH6HWgV1tlN40APSNdvDC69bZ1BQAAh7G2A72eA2U15zh4DWlSA+PqL4wxBQCOQxrfPox+gWrXb55OI0AvqXOB8Z1fuBQFAI6DDvR6KUCvpgMdvl5ZeWjCyHSgAwBHot9ZXTNEL0CvlWfvv33jVVx7CdBPsnegZHQbHegAwJHY2IFeT4BerUujqeHrpIcmjO3qZcTL562rAAAYXW5vnGkeJQ0D1dY//PHPr276h+wlQL/qbzlQMrqNTiwA4Ahcvsh4ceOf+Ueo81ux1io8hIavY1IDh5Bb3VgAwPIZ4V4vIyL1WFTJ2E+zwF4C9E/+/IN1RFzv48+CL3OuAx0AOALGtw9kplm1k/5EMAhfI7M3qYHxGeMOABwBAXq97FpXMD8lYi93HXsJ0ONHpY8I/81nVGd2oAMAR0CAPoyRZvV273SCQfgaRrhzCP0TV2oAwPL1O795qrnrqJdTCtB/w6GSUZ27TAYAjsCZ/efD+KlYKbe/+vC7lu7C1zix6oBDMMIdADgCOtDrGbY3RArQOS6bi9YVAACMb7OTBA/iVFlFVy28ni5XviuMzwh3AOAICNDr2X8+wGo/9x0CdGbjyWWaVgEALJ4R7gP0qQO90r52gsHS/fo7dx6Ff8MwstwJ0AGA5cvdWesSZkeAXq9k2cu6OgE6s9F1EdvL1lUAAIzrTIBeT/f5EPafw2v44Y9/fhUR0k1GlRdGuAMAy9d7NFgtdZVWyz2t4dpbgF7KfhJ9+CqbC5ejAMCyre1Ar5Zd6wrmJz2AhhruOxhV2oEOACxcPttFXL1sXcbs6ECv1+9pZd3eAvTc01J2+CqbbesKAADGZYT7ADrQq5W0Ax1en+8LIxOgAwALl1vj24foNQxUO43raQXoRYDOAWwuXCgDAMu23vm9U81Is2oeQEMN3xfGlVvjTAGAZcudB4ODuO+o9nLXT2sHehcrB0pGpwMdAFg6Hej1Mn1mtTyAhtdXrDxgbM+fGmkKACxav123LmGW+r60LmFuLr7/8NMX+/iD9hagr/r9JPrwVTYulAGABXtxFfH0hd87tUrnM6tVVivnN3hNmen7wujyQhc6ALBcRrgPkzrQ65T9PX7eW4B+5zu/fhQR/j/JqM51oAMAC7be2uU9hANlvevoddTCa0o70DmA3AnQAYDlSh3o1dx1DJCxt8fPewvQf/7jH15FhF/7jOrMDnQAYMGMbx8mew8Pap3GmwJBeE2rlQCdA9jaCwoALFfuBOi1jG8fYn9nt70F6J9xqGRU5y6VAYAFE6AP5FV2ree//Mtv7loXAXPRFxMbOICtnhQAYLnsQB/AXccAOc0APQXojGxz0boCAIDxnBnhPoyPrZZzG1Q4LSe+M4wudaADAAtmhHu9vmtdwfyUPd537DVA32dh8EWeXKZHNwDAYm12fuhU6zMifW6VnNugwvWtS98ZRpcXAnQAYLmMcK+XmgWq5VQ70MseZ8vDF+m6iO1l6yoAAMZxZoR7PeF5tUwBOtT47oe/eh4R1h4wKh3oAMCS5fasdQmzk7pJq62mugO9j3y0zz8PvsjmwrMbAGCZ7ECvl53fhrU8fIZB3HcwLjvQAYCFylcvIl8+b13G7OhAr5er1d7ObXvuQN9fazx8mc22dQUAAONY24Fez0dWrRQPn6GayQ2MLAXoAMBC6T4fRoBeryvXE+1Az5UDJaPbXOjMAgCWSQf6AEaaVes9fIZqZSVAZ2RGuAMAC5Vb+8+H6AXo1d68dXuaAfoqegdKRqcDHQBYqvVOGFzNibLaPneCwbFID08YWT7dRnbXrcsAANi73HkoOIiGgUrl2bc+/PhyX3/afgP001OjABndRmcWALBA113E9pnfObWy85nV6gSBUC09PGFsmRG7J62rAADYu/7icesSZim71hXMy74fPe81QL+8tb/Z8vBlznWgAwALtN5lpCy4nhfZ1VZx4twGlVYZGgYYnzHuAMAC5c4I91rZR7jtqFNiv2u39hqg/+rD7z6PiN0+/0z4vLUd6ADAAq23RpEPIkCvdutVJwiESr3JDRxAbs9blwAAsHd2oNdLdx3VcsoB+mccKhmVEe4AwBKt/cYZJO1Ar3X18V//kYQGKp0Y4c4B5IUOdABgeXJ71rqE2XHVUW/fU8ME6MzO5qJ1BQAA+3cmQB/Gq+xajyKKDw0qdWn1AQdghDsAsEC9DvR6AvRqudrvo2cBOrPz5DLdkwIAi2OE+wAZloJV2vdOMDgWb3dXvjuMzgh3AGCJjHCv1wvBqpU9r93ae4C+7xnz8HldF7G9bF0FAMB+bXYOR7WMb6/nvAbDPPjok21EPG9dBwunAx0AWCABer3sS+sSZif3vHZr7wF6KbnXGfPwRTYXLksBgGUxwr1e8SJ7CAE6DFYet66AZcvdk9YlAADs19XLyOe71lXMj/uOan30Ew/Q95zwwxfZbFtXAACwX2sBerXsfGb1nNdguP2OBITPywvdWQDAsvQ7E3aG6LvWFczPSaymHaD3DpQcwObCZSkAsCx2oNdLL7LrpYlhcAPuOxiXEe4AwMIY3z5MuiKqdt29sdf7jr0H6Ks9J/zwRXSgAwBLs7YDvZoR7vWKB88wWArQGVnuLtyWAgCLktuz1iXMUu++o9arP/6rv9nrPqT9B+h9r6OB0W2MOAUAFqTrI55c+n1TK3shQ6088eAZhioCdMbWdxGXOgYAgOXQgT5M9qV1CfNS4lGJ2OvF2t4D9KvubQdKRnfuPAkALMjF04xOFlzPi+xqq+id12CgLEXDAKPrL4xxBwCWoxeg18uISPcdlfZ+17H3AP2Tjx5sI+L5vv9c+F1rO9ABgAU5M11nGAF6tavVLQE6DLSyAoFDsAcdAFgQI9zrGd8+QM4gQP+MV9mMygh3AGBJ1lvt50OkQ2Wt7u9Ov+35PwyUUQTojG933roCAIC9yZ0jaC3j24fY/1ltrADdoZJRbS5aVwAAsD9rjwOH6Xxulc7iw9K1LgLm6qR07joYXW4F6ADActiBXk8Her0ywrSwUQL0IkBnZE8u08ROAGAxjHAfINNOsHomhcENdKtTdx2Mzwh3AGBBeiPc62kWqJYj3HeMEqAba8bYui5ie9m6CgCA/djsHI5qpan39UbYCQbH5A//4m83EXHVug6Wrb8QoAMAy6EDvZ4R7vVyLh3oEamzgdFtLtyaAgDLYAf6AL3PrFauPHSGmygRGRFaaBiXDnQAYCm668hn29ZVzI4R7vVKzmQH+hhJP3zexr93AYCFMMJ9AAfKamPsBIOjU0xyYGR2oAMAC5G7tdVrA2TXuoL56fNkHgF6yZUDJaPbuGgGABZi7XdNPQF6tWLVFtyYhyiMLQXoAMBC9Ma3D5LuO6rd6q/mEaCvonegZHSbi9YVAADshxHuAzhQVuvTqi24qfQQhZHldqNTCwBYBPvPh/FTsFr3wbuf7H0P0igB+vXJqYsZRqcDHQBYgsyIzaXfNbWy85nV0jkLNydAZ3TXV5HPL1tXAQBwY7k9a13CLPV6LGqdlQ9j74PvRwnQT1edAyWjO7cDHQBYgN3zjKvr1lXMkBNltT72vxMMjs0qew0DjM8YdwBgAYxwr5cZEa47ao1y1zFKgP63f/GHm4i4GuPPht9aX+g6AgDm78xUnUHsBKu3Sg+d4aZ0oHMIud37BEoAgIMzwn0A4fkQ8wnQI0pGxONx/mz4jXOXzQDAAqz9phmkCNBr5a23ts5ocEOr6AXojG/7pHUFAAA3JkCv17vrGGJOAXpEjFQw/Nb6onUFAAA3t956XjyEDvRq5x9/+KevWhcBc9fnyl0Ho8sLl80AwPzZgV4v977J+yjMLUA31oxxPbnMcG8KAMydDvQBMsIPwWrOZ7AH12+c2IHO6IxwBwCWoN95FFir12NRrWTOLEAv6VDJqLouYnvZugoAgJtZ7wTB1dKJslYK0GEv/mTz7cdhMyFj2563rgAA4MaMcB9As0C1XJVR8ujRAvQS4yT+8Ls2F+4tAIB504Fez0izeiXCA2fYg/Lw4XVEaA9mVDrQAYDZ67vIyyetq5idzNK6hNnJkSaijxagj1Uw/K7NtnUFAAA3c2YHerViptkAzmewL8VEB8a2c9kMAMxbXp6bHjdA32myqLWKbl4Bug50DmGjYwsAmDkd6PXSSLNq6XwGe2MlAmPLC+NOAYB5641vH8R9R70uTuYVoPexcqBkdJuL1hUAANyMAL2eA2U9D5xhfwTojM0IdwBg7nJ71rqEWcreCPdK+eiDdx+P8QeP14Hepx17jE4HOgAwd+ud3zO1igC9Wp8eOMO+eJDC6F6++M1/AABmKnWgD6JhoNrmhz/++dUYf/BoAfqt/sqBktGd24EOAMzY0xcZL145HNVyoKxXTnoPnGFfSvF9YnS60AGAOROgD5DWxtcaczrYaAH6x+9873FE+H81o1pfuDwFAOZro/t8mN4xo9ZJOfXAGfakRPF9YnT2oAMAc9Yb4V5Nr0C9EuNNQx8tQI8PSxcRfu0zqnMj3AGAGTvzW2YYp8pq286KLdiXjF6Azvi2560rAAAYTAf6AO46BhjvcfN4AXqM2zoPERHri9YVAAAMtxagD2KkWbXd3//0O89aFwFL0cfKXQejy50AHQCYLwF6vb5rXcH8jDkdbNQAvQjQGdmTy/QoBwCYrfVWEjyIEe61nMtgj07zykQHxqcDHQCYsTTCvZpmgXoZOc8APUacPQ8REV0XsXvaugoAgGGMcB+gzwgfWy0BOuzR0+vVr8O/iRhZbjetSwAAGKzXgV5NgF5vth3oOWLh8FvrJ/6tAgDM02Ynf6mVus+HcC6DPfrBR5+8jIht6zpYtrxw6QwAzFT2kZem6dRK45arZfTzDNDLiK3z8Fsb1xYAwEzZgT6A/LxaCtBh/4rvFSPbPmldAQDAIHn5xELvAdJHVi2zjDYJfdwO9Fw5UDK6jYtnAGCmzuxAr+dFdrVSrNaCffMwhbEZ4Q4AzFUa3z6IgXv1TvqTuXagj9c6D791rgMdAJgpHegDOFFWG3MnGBwrE/cY3dbYUwBgnvqdAH0II9zrde/s5tmBXlY6HRifEe4AwFwJ0Os5UNbrBX2wd+lhCiPLZ7uIq1etywAAqJbbs9YlzFL2pXUJs5IR2+9++KvnY/35owbo12W81nn4rc2FS1QAYH5eXkVcvvA7plbpfGa1VmG1FuzbKkPDAKPLnS50AGB+jHAfJtN9R42xp4KN24H+6tmjiPD/cUa1FqADADO02RlFPoQO9HrXVmvB3qXJDhxAGuMOAMyQAL1e9ilNrTbuVLBRA/RPPvrBy4i4GPPvgHOjTwGAGTK+fRgBer1y9bZOWdizlRHuHMJ207oCAIBqvQC9Wm98+wAzDtA/41DJqNaeaAAAM3QmQB+kdDr3K7345KMH29ZFwNL0abIDB6ADHQCYITvQB7CuboB+1GaBAwToXmUzrieXGRqRAIC50YE+jJVg1ZzHYAT9qR3ojK+/0IEOAMyPEe71er0C1UrOvAM9SzpUMqqui9g9bV0FAECd9dbpqFZmStDrCdBhBG/euu27xfiMcAcAZsgI93rpiqhaRs47QC8j/x8AERHrJ/7tAgDMqzaThgAAIABJREFUy3onCK5VjB2qVgToMIpvffjxZUR4ys2o0gh3AGBuMiMvPQKsle47quXcd6AXI9w5gI2tjgDAzBjhXi/tP6829oESjlmGMe6MTAc6ADAz+WwbcX3VuozZ0YFeb3WymneAnjoeOICNC2gAYGYE6AM4UFYzEQzGY8IDo9vpQAcA5sX+82EE6PW6cj3vAH3sJe4QEXGuAx0AmJkzO9DrGWlWrY/UIQsj0TDA2PoLHegAwLz027PWJcxS776j2lv9yaj3HaMH6F26sGF8RrgDAHOjA71e9h4d1Co57kgzOGY60Bnd5Tai61pXAQDw2nSgD6MDvdrzb/7lL3dj/gWjB+ir7BwoGd3mwgU0ADAfXR+xfeb3S7XOZ1ZrFb3zGIylFA0DjCv7yMuL1lUAALy23AnQBxGg1xr9rmP0AP3Nq9subBjdWoAOAMzIepumkQ/hQ6vW5YnzGIykRPp+Mb6tMe4AwHykEe7Vso9I1x215h+g/+JnHzyNiKdj/z0ct3MjUAGAGdnsPC0eRIBe7Y1rE8FgLBnF94vR5YUuLgBgPnoj3KsZ3z5Ajv+YefQA/TMOlYzKDnQAYE7OPP4bJAXota4+/us/Om9dBCxVb0UCB5C7J61LAAB4bWl6TrXeXUe1coDHzAcJ0IsAnZGd74xBBQDmYy1AH6b3LLvSo4jiv2wwktO0A50DcAkNAMxI7oxwr+aqo1quFhKgZ6RDJaPquoidRQEAwEwI0AfIz/5DDecwGNFVf1uzAKPLrUEiAMB8pBHu1Yxwr5fZj37fcaAR7vaCMb71hX/LAADzsN763VJN9/kAzmEwpj/+q795EhEvW9fBwulABwBmpPfbpZrrjnolVkvpQDfCnfFtLlpXAADwetY7rdS1svOZ1UvnMBhRicgo8bh1HSxbXujiAgDmIV9cRly9aF3G7LjvqJfRLSNAL6nzgfFtjEIFAGbCCPcBep9ZrUwBOhyA7xmjyu2T1iUAALwW49uHMcK93slSOtCLzgcO4HzbugIAgNdzJkCvlgL0asUIdxhfCtAZmTGoAMBMCNCHEaDXu+pvLyNA71fjL3OHjQAdAJgJO9DrFQF6tbJK5zAYnYcqjCt3525VAYBZ6AXog/TuO2pd/fFf/c3oY5oOEqCv4sSBktFtLvxLBgCYvj4jzi/9bqmVvfCgVn+AkWZw7Ep4qMLIui7y6a51FQAAXyt3AvQhsi+tS5ibRyVi9Iu1gwToL1evXNwwurUAHQCYgSeXGZ0suJ4X2dVW0TuHwcjSDnQOwRh3AGAGjHAfICMi3XfUOcwUsIME6J/+5PtPIuLFIf4ujte5XaIAwAys/WYZRoBe7VW8IdiDkWWk7xmjy+156xIAAL6WAL2e8e1DHOYMdpAA/TOPD/h3cYTsQAcA5mCz034+RDpU1ur/ZPsttxcwspJ2oHMAOtABgBnojXCvZnz7IEsL0B0qGdf5LjUmAQCTd6YDfZDS+dwqnT18WK5bFwFLlycrO9AZnQ50AGAOdKDX6911VCvLC9DToZJRdV3E7mnrKgAAvpoR7gNkRtoJVssDZjiAW6sr3zVGlxc60AGA6cvtWesS5kdXaLVcWoB+qBcBHLf1hZGoAMC0CdDryc4HSOcvOIRv/9nfnUWEaQ+MKo1wBwBmQAd6PSPc62WWgzRsHyxATyPcOYDNResKAAC+2toO9Gql85nVKuUwB0o4duVH0UeEm0LGZYQ7ADB1Vy8iXxgRXKvXgV5tdZJL60A/zP9BHLeNji4AYOJ0oNdLB8pq6fwFh+T7xrh2AnQAYNp63eeDpH6Ban2slhWg93agcwDn29YVAAB8NQH6AAL0ah4ww0H5vjEqI9wBgKnze2UYAXq9W6urZQXoJY1wZ3wbAToAMHFnO2FwNQF6td4KLTiYUjQMMK68cCENAExbbs9alzBLJu5V6759+ncHGXdwsAD9JHsXOIxuc+G5DgAwbed2oFfLzoGylg50OJz0YIWxXb2KeG6nKAAwXbkzwn2I3hVRrbPyYXSH+IsOFqBf9bccKBnd+qJ1BQAAX273LOPlVesqZsiJstqqP9ERCwdSBOgcQG7tQQcApssO9HqZEeG6o9bBzl4HC9A/+fMP1hFxfai/j+N0bqcoADBhZ36rDGOkWbXr3gQwOJQ08YFDsFcUAJiwFKDXE57XyzhYs8DBAvT4UekjiiUIjMoOdABgyjb2nw/jUFkrI54/bl0EHAsj3DmEFKADABNmhHu9XrNAtbI63OPlwwXoERFeZTOy811qUAIAJmu9lQQPkUa413ryyUc/eNm6CDgWJ9lZmcDojHAHAKZMB3q9dNVR7ZCPl08P9Rd9xqGSUXVdxP/5yz7eebO0LgVYiPfud/GPT/w7hXZWJeLf+uOT1mWwJ2sd6PUyjHCv5+EyHFCXq18XPxcZmQ70BXn5IvIf/t/WVXDk+jffiu7pnYjrV61LARaiP//H1iXMjgC9XllwgO4ih9H9V//9VesSgAUpb1/E6u6brcvgiH3zXol/+T/caV0Ge3J2IQiu5kRZrTh3wUH9+jt3Hn3wD7uMCDE64xGgL0au/yFe/Xf/onUZEKsHq1jd8j9dAK2kZoFqecBJ5wce4e4iBwCgxoO7h/65xph0oNfLrnUF85POXXBQP/zxz68iwnxtxmWE+3Lcvd+6AgBgArL3iKnWIUe4H/RGNvNw/4cBACzBgzt+TC+JHegDeJE9gHMXNOB7x6j6J/aKLkV5526Uk0MPBQUApqbv3HfUOsnuYKvCDxqgl1XagQ4AUOHBXQH6kqy3DkfVeo8OamU6d8HhHW6UIEdq96R1BexLKRHv3mtdBQDQmBHu9bpcLbMDvThQAgBUEaAvixHu9Rwo6zl3QQvFwxVGlXagL8s9Y9wB4NgZ4V4tt2/denyov+ygAXoXh3sZAACwBA/u2IG+JGc60KsVAXq1snLugkMrRrgzthfPIl69aF0Fe1LufqN1CQBAYxoGqp3/6YcfvzrUX3bQG9mT6BwoAQAq6EBfjucvM56/dDiq5UBZry+9cxccWJr8wCEY474Y5d6D1iUAAC1lRNpYV+ugZ66DBuh/sP3uo4jwXwkAgNckQF8O3efDCNDrnZRTQR4cWEbxvWN0/cW6dQnsy10j3AHgmLnqGOKwj5YPGqA/fFiuI+L8kH8nAMCcPbgjQF8K+8+HKb33t7W2XdrFDAe2SpMfOICtK7WlKHfea10CANCSBH2Awz5abrBU01gzAIDX9eCuHehLsdGBPkh2rSuYncu//+l3nrUuAo5Nf1I8XGF0KUBfDh3oAHDUencd1UrEQc9cB7+RzXCoBAB4HaVE3NeBvhhnW53Ug3iVXcuDZWjgtJz47jG+7aZ1BexJufuN1iUAAA3Zf14vlzzCPSKiuNABAHgt994ucXrSugr2xQj3AfqMCJ9blXTeghaub1367jG6vBCgL0W596B1CQBAQ6lZoFoufYR7OfD/gQAAc/Xgru7zJVkb4V4t7T+vt3Legha+++GvnkfErnUdLFvqQF8OI9wB4KjpQK+3yn7ZAfqhW+wBAObK/vNlOROg13OgrOa8BU35/jEuO9AXo9y5F1H81geAY5V2oFfrY7XsAD0i7UAHAHgNOtCXZWMHej0jzaoVATq05PvHqHInQF+M1UnEu3dbVwEANGLgXr3T09VB8+WDB+h9HvaFAADAXD24I0BfEjvQB3CirJeHPVAC/1op4fvHuIxwX5SVMe4AcLTSFVG17LbLDtBXcdgZ9QAAc6UDfVmMcK+Xnc+sVjpvQTNWKDC2fLqLvL5qXQb7cvcbrSsAAFoxca/W7js//ftnh/wLDx6gn/QnDpQAAK/BDvTleHUdcfnc4aiaA2W1Es5b0EpG8f1jXJkRuyetq2BfdKADwNEycK/awc9aB7+Vff7spQMlAMBrMMJ9OTbb3niuIQTo1U6yc96CRooAnUMwxn0xig50ADhK2UeE645ayw/QP334/RcRuT303wsAMDfvG+G+GGf2nw+SAvRqV93bAjxoxAoFDiG3561LYF90oAPAUdJ9PsjyA/QIY80AAF7HfQH6YmzsPx+kOFXWevHJRw88VoZGTrI8al0DR0AH+mKs7gnQAeAode6I6uVxBOglwqESAOBrGOG+HGsB+iApP6/loTI01OWJ7yCj04G+IEa4A8BR0itQL8vhHys3CdDDxQ4AwFd6580Sb74hQF+Ks53TUbXMsDi+mofK0NDb3ZW7DkaXOtCXwwh3ADhKmgXqlQaTzRuNcBegAwB8lQfGty+KDvQBjDQbwjkLGnrw0SfbiHjeug4WToC+GEUHOgAcpdQsUC2jP44AvaQd6AAAX+V9AfqiCNDrZe8zq3f4nWDA7zEJglHlhRHuS1Hu3o8ofvMDwLHJzv/+11rF6kgC9FU6UAIAfIX79p8vigB9AAH6AB4qwwT4HjKqvFi3LoF9Ob0V5a13W1cBAByYhoF6fVwfR4De64wAAPhKD+42+ZnGSNZ2oNdzoKyWzlkwBRoGGFXunrQugX0yxh0Ajk7vvqPam3F6HAF6i1Z7AIA5McJ9WXSg18veo4NapawEd9BY6kBnbJcXEX3Xugr2RYAOAEcnXXfUev7Nv/zl7tB/aZMA/brBsncAgDkxwn05uj7iyaUAvVbxIrta0YEOzRUBOmPru4in29ZVsCdFgA4Ax0eAXqtJs0CTAP003nSgBAD4Cg90oC/G+WWaRj6AnWD1unLinAWNWaXAIeT2vHUJ7Em596B1CQDAAWVmpOuOWk3OWE0C9F/+5Td3EfG8xd8NADAH79uBvhjrrafFgwjQq52uOsEdNLYqxSoFRpcX69YlsCfl7v3WJQAAB5S9hpl65XgC9M84VAIAfAkj3JfjzP7zQbLzuVW6/ts/+0MtidBYNrrc4bjkhX/dL4YR7gBwVHp3HdVaratrGaA7VAIAfAkj3JdjI0Afpte5X+lR/Kj40KCxk2ISBAewE6AvhQ50ADgyTu3VWj1SbhagFwE6AMAXun0r4s5bAvSlONsJ0GtlRoSPrZbzFUxAtzr1XWR8203rCtiXO++1rgAAOKAUoFfL6I8rQDfWDADgi92/Y//5ktiBXq/Yfz6A8xVMwR/+xd9uIuKqdR0sW38hQF+Kcu9B6xIAgAMybK/eKkuTleANO9DbzKwHAJg649uXZW2Ee7V0oqxXssmBEvinym/mZzxuXQcLpwN9MYxwB4DjknagV+tjdVwd6H244AEA+CIP7gjQl0SAPoAO9GoeKMOk+D4yqtzagb4Yt9/8zX8AgKNghHu9k+yOK0Av2ebFAADA1OlAX5a1Hej1BOjVrMiC6SgmQjC2nQB9SXShA8DxEKDX667fOK4AfdVo6TsAwNS9f9cO9CWxA30AI82q6UCH6fCghdFtzyPS/1YuhT3oAHA8eg0Dta7+6K8/bvJ6tNntbJcnDpQAAF/gvhHui5EZsdGBXs0O9HqtdoIBv0+Aztjy+iry2WXrMtiXu99oXQEAcCA60Ks9KhFNLtaaBehvXLeZWQ8AMHVGuC/HxbOM6651FTPkRXa10hsZDVNhIgQHsd20roA9KXcE6ABwFDIaRcFz1u5xcrMA/eO//qPziLhq9fcDAEzV+wL0xVhvnYwG8SK72q3+SmAHU5HhQQujSwH6cuhAB4CjYHx7vRLtmgUaLtgsGRGP2/39AADTdP+OHehLcWb/+SDZ+dwq9d989r2z1kUAv7GK3oMWxrdtsgqSEZS791uXAAAcQJpQWC0jjq8D/TMOlQAAn2OE+3LoQB+meJVda/3wYbluXQTwG32u3HUwOh3oy1HuPWhdAgBwAPaf18tstx6rcYDebnY9AMAUnawi3ntXgL4Um50guFpmZPrcarR8kQ38vqv+lu8ko0sd6ItRjHAHgKOQmgWqlWPcgf4b7V4OAABM0TfeLbGSny/GmQ70arLzekWADpPyvXc+fhwR+ksY14UO9MUQoAPAUcjehV+tPNYAvWXrPQDAFD2423rDDvu0tgO9Wukk6LVavsgGfl/5MLqIWLeug2Uzwn1BBOgAcBR6HejVVidHOsK9rMqjln8/AMDU2H++LHag18veo4NaabIXTJDvJSMzwn0xytt3Im690boMAGBkdqDX67Ndjtw2QHegBAD4JwToy2KEez07wYZID5NhcjQMMK5eB/qilDu60AFg6QTo9d6IV8fZgd7HSoAOAPA73r8jQF+SzU4YXMsI93qZzlUwNRnhe8m47EBflGKMOwAsnoaBav23tn/SbDVW0wB9Fb0DJQDA77hvB/qibOxAr+ZAWa84V8HkmLjH6K5eRrx83roK9uXu/dYVAAAjy651BbNzVh4+vG71lze9oX0VbzhQAgD8DiPcl+PyRcaLq9ZVzJAd6NVWeeJcBROTUXwvGV0a474cOtABYNEyf/MfqjQ9UzUN0P+f2986iwhvLgAAPvO+AH0x1vafD+NEWe2614EOU7MqdqBzANvz1hWwJ6t7OtABYNFM26uXRxygx4eliwjPZQEAPvPADvTFEKAPY6TZEM8ft64A+KfSagUOoH/SbCUk+2aEOwAsmmF79cqq7Vqs5ks2s3ELPgDAlNiBvhxn9p8P41RZ68knH/3gZesigH+qj5W7DsZnhPtiFCPcAWDR0lVHtcy2U72a39AWAToAQERElBJx/10d6Eux2elAH8RYs1rOUzBBJ+Xad5Px7Z60roB90YEOAIsmQK+XUY67A700/gAAAKbi7tslbp22roJ9McJ9gM6Jsp7zFEzRs1flUUT4HwJGlTrQl0MHOgAsmgC9Xmm8Fqt5gJ7RdoY9AMBUPLir+3xJzgTo1Rwoh3Cegin6wUefvIyIi9Z1sGx5IUBfipUOdABYtOzcEdU6+g70iGw6wx4AYCret/98UdZ2oNczvr1eCtBhwnw/GZUO9AV5927EyUnrKgCAkfSuiKqdHH0Heq4cKAEAIuL+HR3oS2KE+wBa0KuVVfEgGSYqS/h+Mi4B+nKUVZR377WuAgAYSWoYqNZftz1PNQ/QW8+wBwCYCiPcl2W9cziqZqRZtdThCpNVrFhgbNsnrStgn4xxB4DFyt6dX6V8HvG4ZQHNA/RVnjhQAgBExAMd6IuiA30AL7KrlWy7Ewz4cq139rF8+fwy4upV6zLYk3LvQesSAICR6ECv9uQHH33ysmUBzQP0614HOgBAhA70JXlxFfH0hcNRLQfKep0OV5isIkDnAOxBX45y9xutSwAAxpA21g3Q/CzVPEC//e7Fo4hwUwYAHL337zb/acaerLdORkMI0OudxGnzQyXwJbK3A53R5fa8dQnsixHuALBIrjqGaP8Yufkt7ccf/umriLhoXQcAQGs60JfD+PZhSu/hQa3bL0NABxO1msClD0dAB/pilDvvtS4BABhD546oXvtpe80D9M80/yAAAFq7bwf6YgjQh8mudQWzc/mLn33wtHURwBfr08o6DkAH+nLoQAeARep79321ygRy44kE6F5lAwA8EKAvxpkR7sOYa1bLOQomrMuV7yij63WgL0a596B1CQDACKyrq5eZzaftTSRAb9+KDwDQ0tu3S7x1W4C+FJudw1G1PiPC51ajhPHtMGW3r95018H4LgToS1HufqN1CQDACATo9XICjdfTCNBTgA4AHDf7z5flzAj3ag6U9dJDZJi0D372i6cRYc0Co0oj3JfjnhHuALBEaYR7tdVKgB4REWVVdE4AAEftfQH6otiBXq8I0KuVCbzIBr5amhTB2IxwX4zy7nsRZRJXtQDAHmkYqNeXvvl9xyR+laXdfQDAkbtv//mirO1Ar+ZAWU8HOkxfcd/ByHSgL8jJSZR37rSuAgDYs94VUbXTctL8HDWJAL2kzgkA4Lg9uDuJn2XsiQ70AZwoB1g5R8HEaRhgbKkDfVnuGuMOAEuTrjuqZbdtPslrEje1nc4JAODIGeG+LOudAL1a5zOrVTKbHyiBr6YDndE93UZ2162rYE/K3W+0LgEA2DcT92rtvvPTv3/WuohJBOgncepACQAcNSPcl+O6i9g+cziqZYR7vUwd6DB9GgYYWWbE5UXrKtgXHegAsDgG7lWbRLPAJAL0XbRfBg8A0JIO9OVY7zJSFlxPgF5tlc5RMHWllElc/rBwF8a4L4UOdABYluwjwnVHnZzGFK9JBOh//9PvPIuIp63rAABoxQ705VhvPS0eRIBe7dU7LydxqAS+XEbxPWV0uT1vXQL7ck8HOgAsSe+uo1pZCdA/bxIfCABAC0a4L8d663A0iJlmtV783x/+G2b2wsT1Ju5xAHmxbl0Ce7Iywh0AlsVVR7WcyBqsyQToRYAOABwxI9yX40yAPkg6VFYpE9kJBny1k1i562B8WyPcF8MIdwBYFHcd9aYyxWsyAfpUXhQAABzaG6cR774lQF8KI9wHyAyL4+ukB8gwC69WVi0wvtw9aV0C+6IDHQAWxbC9ekWA/k9N5QMBADi0+3dXUeTni7HZCYKrdT6zAZyfYAa+/5NPn0TEy9Z1sHA60Bej6EAHgEVJO9CrZfaTmLg3mQC9N4IQADhS79t/vihGuNdzoKyXmc5PMBclHrcugWXL7XnrEtiTogMdABYlu9YVzM/JRBquJxOgl5zGBwIAcGj37T9flLUAvZ4AvZoJXjArvq+MKi/WrUtgX269EeWtd1tXAQDsiR3o9bo8mcT5aToBuh3oAMCReiBAXxQ70AcQoFcrK+cnmI0UoDMyHejLcs8YdwBYChP36r3dXU3i/DSZAD1zNYkPBADg0N6/M5mfZOzB2g70atl7dFArw/kJ5sPECMaVl0+0Ny3JHQE6ACxF32maqfTiwUefbFsXETGhAH2VvQMlAHCUjHBfjq6PeHIpQK/mRXY1E7xgPnxfGV3XRTzdta6CPbEHHQAWJN13VJrM2WkyAfqLN64eta4BAKAFI9yX4+JpRqcBrJ7PrFqXnfMTzERG+L4yut4e9MUo9wToALAEmSk/rydA/7xPf/L9JxHxonUdAACH9r4AfTHOtk5GQ6RXB9VWcWsyh0rgq6UOdA7BHvTF0IEOAMuQvfu+ASbz+HgyAfpnHrcuAADg0B7Ygb4Y660geIhihHut63/17/3BpnURwOspaQc6B7D1PwuLcdcOdABYguzcddRKHehfxqESADg+Rrgvx1oH+iDZe3hQ6XH8qPjQYCb6PHHXwehSB/py3BGgA8ASpFN7tSJA/zLGmgEAx+VkFXHvHQH6UhjhPkBmhI+tTpnOgRL4erf6K99ZxidAX4zVew9alwAA7IEAvd6U1l9NKkDPnM4HAwBwCO+9W+JkUr/IuInNThJczYGyWprcBbPywZ9/so6I69Z1sGz9xbp1CeyLEe4AsAi9dXXVVhNafzWp69pSVpNZDg8AcAjv353UzzFuyA70esa31ysTepENfL3yo+gjQrrJuHSgL0a5e791CQDAHmTXuoL5yVWZTE48qRtbF0EAwLG5f8f49iUxwn0AL7KrlczJHCiB1+a+g3FtN60rYF9uvxVx+83WVQAAN2SEe72T0k3m3DSpAL03ihAAODIP7grQl2QtQK/X+cxq9bFyboL58b1lVKkDfVnuGOMOAHOXrjuqdavTyZybJhWgr3SgAwBH5n0B+qIY4V4vdaBXM7kLZsn3llHlduOWdkFW9x60LgEAuKHUMFDr+g//7G8n8yp0UgF6F9NpzQcAOAQj3JcjM2Jz6XBUzQ70ajrQYZZ8bxnX9VXki6etq2Bf7rzXugIA4IZcd1R7VH4Uk/nUJhWgx/UbdvkBAEflwd1p/RxjuN3zjKvr1lXMkA70aqvsBXEwM6UU9x2M72IyDTvcULl7v3UJAMBN5Gf/ocak7jomdWP7yZ9/sI4I144AwNEwwn05zuw/H2Yyb4vn41Z/NalDJfD10uoFDmG7aV0B+3JPgA4Ac6b7vF4RoH+FH5U+opy1LgMA4FAeCNAXYy1AHySdKmvlN599z5kJZiajTOoyiGXKrQ70pSh3v9G6BADgBuw/r5cC9K/jVTYAcDzsQF+O9VYQPIgR7rXWDx8WU7tgZlbRuetgdHmxbl0Ce1LuPWhdAgBwA+mKqFpObO3V5AL0IkAHAI5EKRH370zu5xgD6UAfIgXo1XSxwhx1ceK7y+hypwN9Me6817oCAOAG0lVHtanlw5O7sTXWDAA4FnfeKvHGaesq2Jf1zumoVnatK5ijaR0ogdfz3e0fPIoI/0PBuIxwX4xy1w50AJgz9x31ppYPTy5Aj4hJtegDAIzlffvPF0UHer2i+3wAATrMUXn48DoipJuMKreb1iWwLwJ0AJi13n1HtVX0k7rvmFyAnjmtFwYAAGN5IEBflDM70Ktl7zOrNbUX2UAV31/GpQN9Mcrb70ac3mpdBgAwkB3o9fpYTeq8NLkAfWoz7gEAxmL/+bLoQB/Ai+xqpZjYBfPlvoNx5cW6dQnsSylR7n6jdRUAwEAC9HrX16eTuu+Y3K3tKqfVog8AMBYj3JdFgD6AAL1a0YEOM+b7y7hSB/qyCNABYLbSfUet/nvPvnnWuojfNbkAvctptegDAIzFCPdlWe8cjmo5UNbrdbDCbHkAw+hePo94+aJ1FexJsQcdAGYrO3d+ldbl4cPr1kX8rskF6KvTflIt+gAAY7l/x4/ppXj6IuPFK2FwNQF6tVWY2AVzleG+gwPY6UJfjDs60AFgjjIjMt131Jles8DkAvQ/2H73UUTYDgAALN77dyf3U4yBNrrPh+n97K91XU4md6gEXk/qQOcAenvQF2N1Twc6AMyS8HyA6Z2VJndr+/BhuY4Iz2UBgMUzwn05zuw/HyS71hXMT3fx6nHrGoBhVmmCBAdgD/pyGOEOALPUG99ebYrrriYXoP/G9Fr1AQD2zQj35VgL0AcpOtBrPfn04fctt4WZ6mPlroPR5XbTugT25a4R7gAwR2ldXbWcYC480QB9ei8NAAD27X0d6Iux3gqCh3CorOacBDN20lvBwAFFqobIAAAgAElEQVToQF+MogMdAGYpXRFVy4hHrWv4vGkG6OliCABYtrdul3jrtgB9KYxwryc8H6Dk5A6UwOvr3tn5DjO6FKAvRrEDHQBmSYBeb5U60F9LKcWhEgBYNN3ny7LZCYNrFQF6tTSpC2btux/+6nlE7FrXwbLlxbp1CexJMcIdAGYpO/cdtfoJ3ndMMkCf4qx7AIB9emD/+aLYgV5PB3q94pwES+B7zLh0oC/Hu/ciTk5aVwEAVOp1oFc7ydXkzkmTDNDLBF8aAADs030d6ItyZgd6PSfKas5JsAi+x4wqt5vWJbAvZRXxzr3WVQAAlYxwr9f315M7J00yQO91VgAAC/f+3Un+DGMgHegDGGlWLQVvsAS+x4xrpwN9SYxxB4AZEqDXyucRj1sX8XmnrQv4IiXzURRdWYzrP/kPVvFv/zPhBfDVPvjgnXja3WpdBgv0z79rHOOSbC6FwbWMcB8gV49alwDcVP46wn0H48lnl5HXV1FOnWGW4PQ//y/ttWcUJ2+/G2+/93bE1fPWpQAT1v9//1e8+t/+19ZlzE7vvqPWkx989MnL1kV83iQD9JP+5NfdiScajOuffXcV/9l/JLwAvlq5dTse3Jvk/1wCE/HyKmL3zOGomgNltT57naswc1nKo+Jff4wp8zd70O9/q3Ul7MHq3/kPW5fAQp2ensYb773Xugxg4l79y/+ldQnzk0a4DzDJZoFJtt8+f/bSxRCj22xbVwAALMHa/vNhBOjVVtk5J8HMlSi+x4xva4w7AHBzuTUFpZarjnplomuuJhmgf/rw+y8iUrzJqDYXLrsBgJs7s/98mM5vsVpvXt2e5KESeH0ZJkkwvtxuWpcAACxAbs9alzA/nTuiWilAr5NeZTOy813rCgCAJVgL0Acx0qza01/87IOnrYsAbmYVK3cdjE+ADgDsQX8hQK/lrqNepgC9ylRb9lmOjctuAGAPzoxwH8Zcs1rOR7AAfVz7LjO6/kKADgDcnBHu9XpXRNVK5CTPSAJ0jta5JQEAwB7oQB+gz4jwudVwPoJlePuqPGpdA0dgZwc6AHBzuROg10rNAtWmOpF8sgF6H+FQyajOtxHp32UAwA0J0Os5UNbLib7IBuo8+OiTbUQ8b10HC7cVoAMAN2cHer3sS+sSZmdVpvnIeLIBeslpvjhgOa6uMy6fubwFAG7msQC9WhGgDzDNAyUwiO8zo0o70AGAG8qXzyJfevdZS8NAvYxuknnwZAN0HRYcwsYYdwDghtZ2oFdzoKyXRrjDkvg+My4BOgBwQ/afD+O+o95pnEzyfDTZAH2qS+NZlo2OMQDghoxwr5edRwe1TOiCJfF9Zlz9hQAdALgZ49uH6Y1wr/fy9iQndE03QF+tJvmBsSznOtABgBsSoNczwr2eB8awHL7PjO5yG9F1rasAAGasvxCgD9K576h0+cHPfvG0dRFfZLIB+nX0DpSMTgc6AHATL68ids/9nqiVPrJqmSvnI1iItAOdsWUf8fSidRUAwIzlzgj3IdLAvVqTveuYbIB+Gm9O9kNjOTYXbm8BgOHsPx/ICPdq5SQFbrAQqQOdA8jteesSAIAZswO9XvYREqdKKUCv9su//OauRDxrXQfLtjHCHQC4AePbBzLCvdrL1avJHiqBOqu0A53x5YVLbwBgODvQ6/XuOqplme50rskG6BHGmjG+c5feAMANnPktMUj2OtArvfz0J98zixcWog8rGRifDnQA4CZ6Hej1XHVUKzHdx8WTDtBjwrPvWQYd6ADATZwZ4T6Mj63Wo4jitQYsxEl27joY33bTugIAYMbyQgd6LfvP6015vdWkA/Sc8Ox7lmGjawwAuAEj3P9/9u6lx7Isuw/72udGVmZVZURWRmY/xW52q0X2S2Zb6mpRTdImG9ZEEggObMEDS4aHluGJDX8ADmwP/QE48QfIgQkSAkENjIJgAhKLpJqPbKsfJItSu8XKikfGvfmOuGd7kEXWo+uR+9Q9d9+zz+8HNNDDhRuVN2Lv/15rDdBHRPa5ldndF9lAuf65hWl7jE4HOgDwUeSVDvRShu2V63a4kXqnA/SUkkMlozo5c3kLAAwnQB/AiXKA3X2RDZT7G//XvzuJiPPaddA4AToA8BHYgV4ur90Rlep3+L5jtwP0Hf7gaMOT84j7D2tXAQBMlR3oA+g+L5azcxG0JEXkiHijdh20LZ/pGgMAhsmPH0Z+LDgpZYR7uUW/u43UOx2g7/LLA9px6uIbABjIDvRyWQd6sZS6nT1QAoO572BURrgDAEPpPh9GgF6uz93Onot2OkDv7PpjC06WtSsAAKbKCPcB1rULmB6TuaA9SYDO2JYntSsAACZKgD6MAL3c4xef7Oy5aKcD9JSzTgtGd+LiGwAYSIBeTgd6ud7DYmhOFqAzsrw6tTYFABgkL62CGcJ1R7FHX7j1Z2e1i3g/Ox2gr/PCgZLRGeEOAAzx+Dxi9dDfEcV6n1mpTgc6NCen3d31RyPW68j3V7WrAAAmqNeBPoz7jkK7fSba6QD9uYu1iyJGpwMdABji2P7zYXxsxdbhXAStsZqBrTDGHQAYQAd6uZwN/ym322einQ7Qb//2T5xGxJPaddA2O9ABgCGMbx8mryXopbq4tNOHSqBctpqBLcjL09olAAATZAd6ubyuXcEk7fSZaKcD9IiUI+KN2lXQtlMBOgAwwJEAfZBkpFmp9fe+/ikthNCYLvqdviyiETrQAYABeh3oxbK7jmJZgP7RpB3/AJm+47u6oACAckdGuA+Se59bmfRG/GryoUFj+ujcdTC6LEAHAAYwwr1cdmovlnLYgf5R7PoLBKZPBzoAMIQR7gPkHOFjK7TbO8GAYS4u9nb6sog2GOEOAAxhhHs5AXq53O32WqudD9AjdvsFAtN34vIbABhAgD6AA2WxJECHJn3uxdtvhG9FxqYDHQAYQIBerjfCvVi34/cdOx+g57zbHyDT9/BxxKPHtasAAKbGDvRyxreXy7HbL7KBYdKtWEeE2ZiMSgc6AFAqP34Y+fHD2mVMTu5T7RImZ9fvO3Y+QE87/gHShtNV7QoAgKk5WQmDi3mRXUwHOrTMv29GpgMdACik+3yY7L6j2CKtd/o8NIEA3YGS8R2fuQAHAMroQB9g7W+uUn3urLSCZmkYYFxZgA4AFMorQ5KGsAO9XO53+75j5wP0vtvtD5A2nC5rVwAATI0AvZwDZTkPiqFdJu4xtnxmhDsAUCYvBehD5LU7okIXn/r693b6tefOB+hd9A6UjO7EBTgAUODJRcS9h/5+KJWMNCvWZechaFWOXsMA4zp/HPHoQe0qAIAJ6QXog/QaBkq9kX41dvpT2/kA/Uk858KI0elABwBKnCz7yLLgYtmJstg6d85D0KisA50tMMYdAChhB/oAOUe4IyqTYufPQjsfoP/55Y8fRcS6dh20TQc6AFDiaOVvh0Hk58X2rlzs/KESGKbLVjSwBUtj3AGAZ2eEe7ncp9olTM4U1tXtfIAet9I6IvyLZVTHZy7BAYBnd+zx3SA60IvlF24eef4Pjep1oLMF/ZkrNQDg2eWVvx1K9dbVFZvCNK7dD9Cf2vkPkmk7dQkOABQwvWYgh8pSx7//ay+f1y4CGEfukh3ojE8HOgBQwA70clmvQDEB+uY4VDIqO9ABgBJHK6ejclmAXmz3D5TAcItkRQNbIEAHAAoY4V5OgF6uy/3O576TCNCTiyNGJkAHAEoY4T7A2mdWLu/8gRIY7sGTdCcifDkyqrw8qV0CADAhAvRyeV27gunRgb4heQLL5Jm21YMcTwzHBACekQC9nBfZA2SrrKBlP/VbP3gcEWe166BxOtABgGd18STyo3u1q5gcO9DLddHv/H3HJAL0JEBnC05XvuQAgGdzJEAv10vQS+UQoMMM+HfOqPozXWQAwLPpl8cR2X1HKQ0D5frc7fw5aBIBej+BVn6m79RFOADwjE7sQC/nRXax1AnWoHVJgM7YdKADAM/I+PaBXBEVO+8v7fw5aBIBesp2/zG+E3vQAYBnZIT7AAL0YslDYmieSROMzQ50AOBZ5ZUAfYh+7b6jUP+5Bx87ql3Eh5lEgN7lhQMlozsVoAMAz2DdR9y953BUKgvQi/UeEkPzcgr/zhnXowcR549rVwEATIAO9GFyn2qXMDXH6ZVXLmoX8WEmEaBf9Lu/TJ7pOz4zZwMA+HCn97Jm6iF8aMVSOAdB60yaYBvymTHuAMCH65c73xS8c3KOyPbGF0kxjUfEkwjQL189uxMR/gtkVCdntSsAAKbgeOnR3SBrn1upi9gTrEHzsn/njM4YdwDgWehAH0B4Xmwqa6wmEaDfvvXVJxFxt3YdtO3ULlMA4Bkc+ZthkCw/L9avHk/iVTYwXMo60NkCAToA8AwE6OXy2vj2UgL0zZvEB8p0ndiBDgA8g2MB+iCpl6AXOnvtlc8/ql0EMK6c1x7KMLq8NMIdAPhweSVAL9VbV1csTWQK14QC9ORQyah0oAMAz+J45W+GIbJDZZnkATHMwTp3/q0zPh3oAMAz6HWgF3PXUS7HNKZwTShAn8aLBKZLBzoA8CzsQC/nQDmE8w/MweXzK/6tMzod6ADAszDCvZwR7uW6NI2G6ekE6NkFEuNa3s9xsXa5CwB8MCPcyxnfXi7laRwogY/mk//yj+5HxP3addC2rAMdAPgw/Try/bPaVUyOhoFyOfpJ5L2TCdCn0tLPdOUccXdVuwoAYNcJ0Mtl+XmxHEa4w4z49864BOgAwIfIqxOH9wH0C5TrYxprrCYToE9lqTzTZow7APBhjgTo5dZOlOU8IIb58O+dcRnhDgB8GPvPh8muiIot0sUkzj/TCdBTZ4Qhozt1IQ4AfAg70Acw0qxY9oAYZsO/d0anAx0A+BB5eVS7hGmyFrjYk7P1G7VreBaTCdDXDpRswfGZLzsA4P3lHHF6z98LpewEK5cmMtIM+OhShIYBRpXvryKvL2qXAQDssKwDfRAj3Ivd/fwrrz2qXcSzmEyAvog9F0iM7tQIdwDgA5w9yHGxrl3FBAnQi/W5d/6B2dAwwMhyjljdrV0FALDD8srEmiGsjS82mbPPZAL0VbhAYnxGuAMAH+TY3wrDCNDL7fU6UmEmUrYDnS0wxh0A+AC9Ee7Feg0WxZIAffN+9JuffhAR92rXQdtOdKADAB/gyP7zYcw0K3b50pXJHCqBjyaHAJ3x5eVp7RIAgB1mhPsAmgWK5ZQn0ywwmQD9TQ6VjEoHOgDwQXSgD2OkWZkU8eD2rY97PAwz0XcmTjC+fOZSHAB4fwL0cu46yk3p8fCkAvQU4VDJqI7PXIoDAO9PgD7Q2udWItuHDLOyiM6/ecanAx0A+ADZCPdiGtDLJQH6OFwkMTYd6ADABzle+VuhWJ8jwudWZjoHSuCje9I99m+e0RnhDgB8kH51UruEycl2oA8wnZx3UgH6lF4mME1n9yLWxm4AAO/j2A70YtmT7AGmc6AEPrrP//prdyPiUe06aNzSpTgA8D5yjnzPY7tSRriXS3k6Oe+kAnQd6Ixt3Ucs79euAgDYVUa4D9A7UZabzoES2Jg3ahdA23SgAwDvJ9+/G7G+qF3G5GgYKJfzejKruicVoIe9YGyBMe4AwPs58ndCOfl5sZRiMgdKYDNShPsORpXPjmuXAADsqLz0d8IQAvRy6zydnHdSAXrK2UUSozs+86UHALw3Hejlsg70YlkHOsxOFqAzMh3oAMD76QXog/R9ql3C5Fw+vzKZc8+kAvQ8oZcJTNepAB0AeB8nK2FwqeRFdrFkdRXMUNIwwLjunUX069pVAAA7KC+PapcwTWv3HYXuf/Jf/tFklihPKkDvcu8iidGdLGtXAADsotXDHI/Pa1cxPdmbg2J9OPfA3Hg4w+j6dcT9Ve0qAIAdZIT7MO47ik3qzDOpAP3Ji48n9eEyTSdGswIA7+Fk5W+EQdZOlKW6WDj3wMxY3cA29GcntUsAAHZQXvkboVTuI9wSlZrWmWdSAfqf3frCWUQ8ql0HbTvVgQ4AvAf7zwcywr3Y4+7JpA6VwEeXTJ5gG5YuxwGAH9cb4V4su+solic2dWtSAXpERIqwF4xRHduBDgC8h6OlTuohcu9zK/TktV//3FntIoDtytkOdMaXBegAwHswwr1c7lPtEiYn6UAfVw6HSsZ1qrsMAHgPOtCHSV5ll0lxJyL50GBm+mx1A1uwPK1dAQCwgwTo5XSgD9FPKt+dXIAeE2vxZ3pOjHAHAN6DAH2AHJF9bKWcd2CGLvXn/u0zvpUAHQD4cXllhHspw/bKpawDfVQ5C9AZ1+kqu+gFAH7MkQC9mPHtA2QBOszRJ3/2B8cRcVG7DtrWnxnhDgD8uN4ju2J5XbuC6clGuI9rajPymZ71OmJ13wU5APBOJythcCnj28slHegwS+lXo08RWn8Ylx3oAMC75AeriPPHtcuYHCPcy3UTa5CeXoCeYlIz8pkmY9wBgHczwr2cDvRyU3uRDWxO9oCGkWUBOgDwLnll//kQ2XVHsT53kzrvTC5A710osQWnLsgBgHcxwr2ckWZDZA+GYb78+2dcS+NZAYB3yksB+hAC9HLnzz2a1HlncgF6F9Nq8WeadKADAO+mA72cEe7lsvMOzJl//4xreRqR/W4GAN7SC9AHMXCv2OPP/fprZ7WLKDG5AH0dawdKRnfighwAeJtH5xEPHvv7oJQR7uVSNnELZsy/f0aVL84jP7hXuwwAYIfk5VHtEqZJw0CpOyliUh/a5AL0Li45UDK6k7NJ/TsGAEZ2dCYIHmTtb6pSi9w778BMpWwCBVuwMsYdAHiLEe7lcjbUp1Sa4GPhyQXo3/vNTx1HxHntOmibDnQA4O2Mbx8me5Fd7Lz3YBjmKocJFIwvL09qlwAA7JC8EqCXyuvaFUxPFqBvQ8oRYaYEozq1Ax0AeJuTlSB4CDvQi61/cPWTkg2YqdylO7VrYAaWOtABgLfYgV5Os0C5PMFpWxMM0CMiwqGSUZ0I0AGAtzlaGuE+RM4+tzLpjbiVvGWHmepiPblLJaYnn7kkBwDeYoR7OVcd5dIEp21NMkBPMb2XCkzLqTGtAMDbGOE+QM4RDpWFnHNgztax8B3A6LIOdADgbYxwLydAHyBNb9rWJAN0e8EYmx3oAMDbCdAHcKAcYnIHSmBzPrP81J3w7cnYBOgAwNvkpY3JpXoj3Iul6CeX604yQNeBztienEfce+hLEAB46kiAXiz3MqABnHNgxtIrr1xEhHSTUeXlSe0SAIAdkR8/jPz4Ye0yJkcHerkc3eTuOyYZoPe505nB6E7PalcAAOyKk5XTUbG1RwcDTO5ACWxW9j3A2HSgAwBv0n0+kCuiYutYT+6cM8kAXQc623CyrF0BALArjHAfQAd6sZytqoK5S5E1DDCq/syeUwDgqbwymWaIXsNAsUs60Lejy9Oblc/0nLooBwDeZIR7OSPNynkoDER4SMPIdKADAG/KSw/rhsh9ql3C1Fx86uvfm9xrjUkG6Os8vZcKTM/xmYtyACDi/CJi9dDfBaVS9pmVSp3OU5i7JEBnbE8eRdh1CgBERG+E+yB9776j0BvpV6c3+H6SAfrelQsHSkZ3uvIlCABEHK/6kAWXy+vJnY2qW09wpBmwWdkkCrYg60IHACIir3Sgl8o5ItwRlZpks8AkA/RPnPzkGxHTe63AtJzagQ4AhP3nQ2UvsostYi04g5nTgc42ZHvQAYAwwn0QyWSxPNEzziQD9FdeSRcRMbl5+UzLictyACAE6EMlAXqpfPWTd96oXQRQWV5PsjuDidGBDgBERDbCvZjx7eXSRKdsTTJAf8p+QMalAx0AiBCgD6UDvdjJ7//ay+e1iwDq6q1yYAvyUk8KABDR+5ugWNaBXkwH+tZN8wNnOo7PXPoCAE93oFMqRwjQC03zRTawWYt+4buA8elABwDCDvQh8rp2BdPTRT/JM850A/Qck/zAmQ4j3AGACB3og6x9ZuU8EAYiHj946LuA0eWVAB0AMMJ9CNP2yuWcJjlRfLIBeg4BOuN69Pjp/wCAeROgl8s+siEmeaAENuvzr7z2KEdYKMao8pluMwCYvYsnkR/eq13F5PSGFBbr8zTXVE02QE/JBRPj04UOABz5e6Dc2omyVNKBDrwpWenAyLIR7gAwe/3yxOv3AexAL9fl9STPN9MN0F0wsQX2oAMAdqAPYKRZsSwwA/7aNEccMiHLk9oVAACV5ZXx7YO4Iip2cWVvkvcdkw3QexdMbMGpwXkAMHtGuA8gQC/mgTDwNr4PGNeZDnQAmLu8tNJliN59R6l8dPOFSb7WmGyAnqJ3oGR0RrgDwLyt+4iz+/4eKJUdKIt5IAy8xfcB48oP70WcP6ldBgBQUTaRZhAj3Isdv/xrv39eu4ghJhugX8Q0W/6ZFh3oADBvd+9l67yHWAvQS3kgDPyVlE2kYHx5pQsdAOasN8K9WA4Beqk04elakw3Q+9VjO8EYnQ50AJi3o6WT0SC9z63UYr3nfANERETWgc4W5KUAHQDmzAj3ATQLFMsC9O177ZXPP4qIs9p10LaTM1+IADBn9p8PY4R7udWLawE6EBERuQvfB4zP2FYAmDUBerncp9olTE+e7tlmsgF6RESO6X7wTIMOdACYNwH6MEmAXigvf3jrMw9rVwHshi66yXZpMCE60AFg1vLSCPdSvbuOAaY7XWvSAfqUZ+czDSd2oAPArB2tHI6GyNnnViKHfcfAW/q48J3A6PozXWcAMGf9yjSaUqbtDdBN975DgA4f4FTXGQDM2okd6MVynyP8CVXEuQZ4uyux5zuB8elAB4BZM8K9nBHu5dKEGwYmHaBPefk803D/YcTj89pVAAC1GOFeLvUeHZQSoANv97Hf+O4qIj2oXQdtywJ0AJivfh353t3aVUyODvRyOfrJ3ndMOkCPnOxAZ3SnZ74UAWCujgToxfK6dgXT42Ew8OOy+w7GtTS2FQDmKt87jcgev5fykZXrJ5zjTjpAzxNePs90nNp9CgCzdezvgHI60MtN+EAJjMb3AuPSgQ4As9Ub3z6I645ye3Ex2Rx30gF6EqCzBSfL2hUAALUc24FezkizYh4GAz9uursCmYb+zMU5AMxVXh7VLmGa1u47Sj1e9ZN9GDzpAL1bdA6UjO5UgA4As5RzxIkO9GJ2gpXzMBh4N98LjO7+MvL6onYVAEAFWQf6IH2fapcwNWeff+W1R7WLGGrSAfpFWjtQMroTu08BYJbOHuS4sM+7nAC9mIfBwLtlHeiMLeeIe2e1qwAAKhCgD6NhoFCKSZ9pJh2gX750ZdIfPtNwcuZLEQDmyCO6gRwoi3kYDLxbjt73AuOzBx0AZqlfCdBLCc/L5Zh2gL5Xu4CP4vatj9/74i//8EGOeKF2LbTr/361j9d+dF67DKCSG59Yxb24XLsMJuQffuNS/Fe/cKl2GWzAsfHtg+Te3vhSHgYD79bldCebEMnIzv/P/z3SCwe1ywAquLj8fNw7vBRd/7h2KUzIlf/uf4vu+idrl8EG5OVJ7RImJxvfXmzqa6kmHaBHROSIOxHxudp10K7jsxzHutBhttJr59EdLGqXwYT8wt+e/J9XvOnoTBA8iFfZpR7evvXxe7WLAHZLH93rKfweYlz5te+G39owXxc3uuguCYR4dumyPsZW5OVR7RImRwd6uamvpZr0CPc3TfoHAAC05ea+C4hW6EAfSN5TynkG+DGLbLUDALBD9i5Fen6/dhVsiAC9nGF75bocd2rX8FFMPkDP2YUTALA7bhwI0FtxZAd6uT5HZJ9bIecZ4MesL57z3QAA7Ixu/zAiue9oRb+0A71UXteuYHryxEe4Tz5ATxMfAQAAtEWA3o6TpefFxYw0K+ZBMPBefuK3b59GxJPadQAARESkg5u1S2BTco5877R2FZNjhHu5buL57fQD9G7aLxgAgLbcPJj8n1e86VgHerFsplkxD4KB95IickS8UbsOAICIiHRwo3YJbEh+cBaxvqhdxuRk1x3F+txP+r5j8je8fc6TnqEPALSjSxEvXdWB3oojO9DLOVAW8yAY+ADuOwCAnSBAb0c2vn0QAXq5de4mfd8x+QB96iMAAIB2vHQ1xWLyf13xV3SgD2CkWTEPgoH3k8KKBwBgN3T7Rri3ol8e1S5hkno70Is9/8KlSd93TP6Kdz3xJfQAQDvsP2+LHegDGOFezINg4P1kAToAsCPSwWHtEtgQHegDaRgolB58/Nbte7Wr+CgmH6B3sXCgBAB2wo39yf9pxZvuPcrx6Lx2FdOT1w6UpTwIBt5Pzr4fAIDdYIR7OwTowxjhXiY3cNcx+VveS0/Wkx4BAAC046YO9GYY3z6QF9nFPAgG3k/qkvsOAGAnpAMj3FuRVwL0UrmPcNtRpoV1VJMP0G//9k+cRsST2nUAABjh3g4B+kAC9GKX+/PJHyqBcWQrHgCAHdHt60BvRa8DvVh211GshXVUkw/QI1KOiDdqVwEAIEBvx7H954NkO9BLPfnjf/HZu7WLAHZTF/3kL50AgDYY4d4OI9zL5d59Xykd6DuihR8EADB9Nw6a+NOKiDheeV08RPIqu0yKO28+CAb4MX107joAgPq6RaSrL9Wugg3Jy6PaJUyODvQh7EDfCS2MAgAAps8O9HYY4T5Ajsg+tiIph/3GwPt6Lp646wAAqktXr0ekJqIkQgf6EP3aZUeplNLk7zta+dZzqAQAqjPCvR1HAvRixreX8xAY+CAfv/znRxGxrl0HADBvnfHtTelXJ7VLmBwj3MvlSJO/72gkQJ/+DwIAmD4j3NthB3o549sHcY4B3le6FeuI0CIEAFSVDm7WLoENyQ9XEeePa5cxOUa4l+ujn/x9Rxu3vDlPfhQAADBtKUUcXvUitRUndqAXy2uPDsp5CAx8GPcdAEBdSQd6M4xvHya77ii2iG7y9x1NBOipgWX0AMC07T+f4tJe7SrYFCPcyzlQDmkOB0wAACAASURBVOEcA3wYD20AgLrSvgC9Fdn49kHcd5R70j2e/DmmiQA9L6b/kgEAmLab9p835ViAXswI93JZgA58iCRABwAqswO9Hf3yqHYJk9S77yj1+HO//tpZ7SI+qiYC9K6BWfoAwLTdEKA349F5xP1HDkelcu9JdqnUdUYzAx/IQxsAoDYj3NthhPtArjtK3UkRk79YayJAf5yfc/EEAFR146CJP6uIiOOlk9EgXmQX8xAY+DA5wn0HAFCVAL0dAvQB+ojsuqNMauMM08RN759f/vhRRKxr1wEAzJcO9HYY3z6QAL3YeXdJgA58oC7rQAcA6koHN2uXwIZkI9yLGbY3QI4mzjBNBOhxK60jwtMZAKAaO9DbIUAfJgvQS63/dO8TzjDAB+rtQAcAKrMDvR396qR2CZPjrmOINs4wbQToTzXxAwEApskI93YcrxyOBvEsu9TRmw+BAd7XInfuOgCAelKKdPV67SrYECPcy8nPy6VoY4pWOze9jYwEAACm6ca+DvRW2IE+QM4RPrZSzi/Ah+r7C98VAEA16cWXIhZ7tctgQ4xwH8Cz92JZB/puyV0bPxAAYJqMcG/HkRHu5YTnQzi/AB/q7OrlOxHhFxMAUEUyvr0pOtDL9VrQi+Xo79SuYROaCdBbGQkAAEzTDQF6M+xAL5eNby+WU2riQAmM66u3bj+JiLu16wAA5sn+84acP4r8+EHtKiYnu+4olnIbDc/tBOg5u4ACAKo5tAO9GUa4D+BFdjEPgIEC7jsAgCrSwc3aJbAh/Znx7YO4IirW50UT9x3N3PT2jczUBwCm58UrKa5cql0Fm3K8EgYXE6AXS84vwDNKVj4AAJWk/cPaJbAhxrcP06/dd5S61J83cX5pJkDXwQEA1GJ8e1uMcC+XBejFsvML8IyyAB0AqMQO9Hbk1UntEiYp9+78Cq0/+bM/aOK1RjMBeh9tjAQAAKbnpgC9GRfriOUDYXCpJEAv5gEw8KxyFqADAHV0Rrg3o18a4T5E776jSIp4I/1qG4PvmwnQ46K3EwwAqEIHejuOVzmys1GxvG7ibLRV6+gEYsAzSV1y3wEAVKEDvR1GuJfLOSLcERVpaXpWMwH65atnd8J/ygBABTf2m/mTavaOl4LgIYxwL9f1HgADz8rECgCgDgF6OwToA7giKpYjNXN2aea29/atrz6JiLu16wAA5kcHejvsPx/GCPdi+dLzyzdqFwFMQ8rtXEIBANOS9o1wb0U2wr2Y8e3lUuRmmgWaCdDf5FAJAGydHejtOBKgD6IDvdjpmw+AAT5UjrW7DgCgim7/eu0S2JBeB3qxrAN9iGbOLk0F6KmhHwwAMB03Dpr6k2rWjHAfIEeEAL2UcwvwzPZi4TsDANi69MJ+xKXLtctgQ/LqpHYJk5PXtSuYnpTbWT/V1G1vS8vpAYDpMMK9HScrQXAxT7KLObcAJfpY+c4AALYuHRjf3hIj3MuZtlfODvSd1c4PBgCYjhv7AvRWGOFeTn5ezuQsoMSnf/NHDyLiXu06AIB5Sfs3apfAplycR364ql3F5OTefV+pPnfN3Hc0FaDn3M5yegBgOnSgt+NYgF4srSXopZKHv0A59x0AwFZ1B4e1S2BD+tVxRHbfUarXgV5ssbho5tzSVICeop3Z+gDANFy5FPHiFQF6K+xAL2ekWbk+PPwFSnl4AwBslxHu7cjL49olTJMromLrWDRzbmkrQO/aGQ0AAEzDjYOm/pyaPSPcywnQy3n4C5TKvjcAgC1LB0a4t0KAPowO9GL5zievvlG7iE1p6sa3T70DJQCwVca3t2PdR5zddzgq5kBZrKWdYMB2WP0AAGybHejtEKAPk3Wglzp5+dd+/7x2EZvSVIDe9ZeMQgQAtkqA3o6z+zms8x5gLUAv1YWHv0AZHegAwLZ1Rrg3o18J0EvlEKCXyhFNnVmaCtDvXzn/y9o1AADzctMI92YY3z5Q70RZatG3sxMM2I4uh4YBAGCrjHBvhw70cnldu4LpSQL03fXDW595GBH3atcBAMyHDvR2HC8FwYNkDw9KrV5cC8KAItkIdwBgywTo7RCgD2BdXbksQN91Tf2AAIDdJkBvx7EO9EGMNCuVl28+/AV4Zl02wh0A2C470NuRl0e1S5gcw/aGaOvM0l6A3tgLBwBgt90UoDfDCPeBnCoLJd3nQLE+d+46AICtSZdfiHT5+dplsCF2oJfTLDBAauu+o70AvTPWDADYnht2oDfjZCVAL9bnCB9bKecVoNj5c4+auowCAHab8e1tMcK9nAC9XGps7VRzN74pZ4dKAGBrDvd1oLfCDvQBdJ8P0dSBEtiOz//6a3cj4lHtOgCAeUgHN2uXwKb068j3z2pXMTnZDvRiOfqm7juaC9BzYzP2AYDdZoR7O4xwL5fXtSuYnixAB4Z7o3YBAMA8pP3D2iWwIfne3Yje4b2UDvRyvQ70XWcvGACwHZf2IvafF6C34liAXk4HerGU2zpQAtuTPMABALakM8K9Gf3yqHYJk+TNQbm9uGjqvNJcgN7aiAAAYHcd7neR5OfNMMJ9gOzRQanUWTkFDGOCBQCwLUa4t8P+84GMcC+2vvKkqYlZzQXoKRYOlADAVhjf3o6cI07uORyVshOsXG/lFDBQzr4/AIDtSDrQmyFAH6bv3fmVyBHLz9z64cPadWxScwF6t+51dAAAW3FDgN6M5YMc5xe1q5ietBagl+qsnAIGSo3tFAQAdpcAvR15ZYT7EBoGyqQGmwWaC9CfvPi4uR8SALCbBOjtsP98GAfKchdWTgFDpaRhAADYis4I92b0y5PaJUyOu44h2nvs21yA/me3vnAWEY9q1wEAtO/mfnN/Ss3W8crhaIjc2xtfai+uNHeoBLYjeYADAGyJDvR2GOFezvj2IdoL0PdqFzCGFHEnR3y2dh2069rVFH/3S75EW/Gv/qCPtft/YAAd6O04XvpFMIhX2aUefvc3PraqXQQwTTm61yN87zKu9LkvRrr56dplsAmnb0T/p39SuwpgogTo7chLI9yLuesYoL0R7k0G6Dni9RCgM6LrBxH/6/9wqXYZbMgv/09P4uTML0WgnAC9HUa4D+TdQanmDpTA9qxj/fqivUGC7JjFN/6LWPzD/6Z2GWxA/yf/Jvr/43+uXQYwRZcuR7pytXYVbEhe6UAv1a9rVzA9KUdz66ZaPXm5mGJUJ8vaFbBJhwe1KwCm6qYAvRlHAvRiOeeI7HMr1NyBEtie5y58hzC+vDytXQIbkg6u1y4BmKhO93lTeiPci2XNAsVygx3oTQboOWeHSka1up/j/MKFcStuXBOAAcMc2oHeDCPcyyUjzYolD32Bj+CTP/uD44i4qF0HjVue1K6ATTk4rF0BMFHGtzck58grv9tLZfcdxXKDO9CbvPVNDf6g2C05R9y1vbIZ13WQAgMZ4d6O45XDUam89uigVIsHSmB70q9GnyIssWRUeXW3dglsSNq/HpGavPoFRpb2BeityA/OItbeX5bSgV6uW3TN3Xc0+VdU6tobFcDuORWgN8MId2CIRRfx0lUBeivsQB/AgbJYanCkGbBd2SQLRpbPjHltxmIR6cX92lUAE6QDvR3ZZJlBBOjl1umiuXNKkwF6jvZeOrB7Tl20N+OlfQEYUO761RSdr49mCNAHMNKsWC9ABz4ikywYnYv2ttiDDgxgB3o7+qXhRUP0AvRiVy5dbu6c0mSArrODbTg+c2ncCh3owBA3Dpr8M2q2jHAvl50oi3WCL+Ajct/B2PLqTNtVQ5IAHRggHdysXQIbkpcmywyiYaDUw4/fun2vdhGb1uTN7zqv79SugfadLmtXwKbcuKaFFCh30/7zZtx/lOPRE4ejYmufWamUs3MK8JHoQGd0/TringuPZhwc1q4AmCA70NuRVwL0IfK6dgXTkiP+snYNY2gyQO/ikgMlozsx6rUZ14VgwAA3fHc0w/j2gbzILrbOC+cU4CPpcu8hDqPrz4xxb0USoAMD2IHejmyEe7HcR7jtKJMimjyjNBmgf+83P3UcEee166BtOtDbcXitdgXAFAnQ23EkQB9GgF7suYu1AB34SHSgsxX2oDcjXROgA+U6I9yb0fudXiy76yiX21wz1WSAHpFyRHhaw6hOXbY346WrKTo5GFDoph3ozTix/3wQO9CLnd/+7Z84rV0EMG197pq8nGLHrPy6asa+HehAOR3o7bADvVzuBQWlUqOPfNu9+U3R5A+M3XF85rK9FYtFxP6LfjECZXSgt+N4KQgexKvsUnfefOgLMFiXTbJgfHkpQG9FOhCgA4UWe5FeOKhdBRuSV/pMS+lAL5c7AfqkGGvG2HSgt+XQ34VAocN9AXorjHAfIIelYIVSeOALfHT9XtfkfkF2jHGv7bADHSiU9m9EJPcdrdCBXq4XoBdLYYT7pKScHSoZ1dm9iLWGtWZc10kKFLrpe6MZxwL0Ysa3l8sCdGADPrP81J2I8CXMqPozAXorkgAdKNT53miKHejljHAvl3NqMo9tN0Bv9MUDu2PdRyzv166CTdGBDpS6YQd6M45Xcohia48OBmjyQAlsV3rllYuIMF+bcblsb0a6JggDyqR9+89bkR/dizh/VLuM6dGBXixHm2ummr357aNr8gfGbjHGvR060IESKUVcv+p7oxU60AdwoCyWswe+wGaYaMHo7EBvx6XnIp5/sXYVwISkg5u1S2BDjG8fpl/XrmB6Fo3msc0G6DrQ2YaTM5fHrTi8VrsCYEpeejHF3qJ2FWyKAL1cFqAXS5GcT4CNSAJ0RpYF6E1JB9drlwBMSDrQgd4KAfow2ZDCYuf95SbPJ80G6DrQ2YYTF+7NODSKGShww9SKpgjQyyUBejEPfIGNyQJ0xpWXJxHZ7/pm2GcMFOgE6M3oBeiD9O47Sj357L/447u1ixhDs4lRWvd2DDK602XtCtiU63agAwXsP2/H4/OIe48cjkrl3pPsUnnhgS+wKR7kMLKL88gP79Wugg3pBOhAASPc25FXAvQhcq9ppkiKOymiyYu1Zm9/965cOFAyuhMBejMOBehAgZs60JtxvBQED+JFdrEueucTYDNS0jDA+Ixxb4cR7kABI9zbYYT7ADlM4SnX7F1HswH6J05+8o2IcCPKqE7O/CfWiuvCMKCAEe7tML59IAF6scf5OYEXsBEpUrOXVOyOvDypXQIbknSgAwWMcG9HXh7VLmFyjG8foOH1Us0G6K+8ki4iwl/7jOp0VbsCNuVQGAYUEKC340iAPkh2qCy1/vPLH3d7AWxENtGCbdCB3g4d6EABI9zbYQd6OePbB2m2WaDZAP0pr7IZ14lL92Y8dyni6vN+QQLP5uZ+439Czcjxyu/yQdY+t0LHcSutaxcBtKF318EW5DM9Kc3QgQ48q24R6cVrtatgQ/LK7/JSOtDLJSPcpyo3+4NjN5zagd6U6/4+BJ6RqRXtOLEDvVzOdoKVcy4BNmZvvWi2y4PdYYR7O7qXjGMGnk26+lJEt6hdBhtihPsAnr0Xyw3fd7QdoOd2RwewG06X7o9bcnhQuwJgKoxwb4cR7uWyNwflGt4JBmzf4wcPfacwPiPc27H/Uu0KgIlI+x7ctCQb4V7MfUe53HAjc9MBessvH9gN5xc57j1w8d6K6/sCMeDZ3PR90Qwj3AfonShL5c64ZWBzPv/Ka49yhHlojEoHejuSEe7AM+oOBOjNOH8U+dH92lVMjhHu5VJu976j6QA9dQJ0xnfi2qIZh9cEYsCzOTxo+k+oWTnWgV7OgbJYavhFNlCH7xVGpwO9HVdeiHjuSu0qgAlIAvRm9LrPB8lGuBfLi67ZSeBN3/6maPflA7vjxMV7M+w0Bp7F/gspnturXQWbcmQHejkBerGUc7MHSqAW9x2Mqz9z8d4UY9yBZ5AObtYugQ0xvn2Y7L6j2KXuvNlzSdMBeu+iii041YHejOt2oAPP4KbHNk3xEG4AB8pivaAL2DjfK4xMB3pTumu6SoEPZ4R7OwTow+TenV+h9Sf2/rTZ/9iaDtBT9A6UjM7Fezt0oAPP4ob9581Y9xHLB36Pl8prn1kpo5aBzes1DDCuJ48iHj+qXQWbcnC9dgXABBjh3o68ajbTHJUd6MWO0q1odvB90wH6Rey5qGJ0pwL0ZtiBDjyLG/afN+N4mTVTD9Ebe1+qj4VzCbBRKetAZ3x5eVK7BDYkHRzWLgGYACPc22EHermcI8IdUammzyRN3wD3q8deZDO6k7PaFbApRrgDz8II93Yc238+iJ1g5bq8bvpQCWxfNtmCLcj2oLdDBzrwDNK+DvRW5OVR7RKmxxXREE2fSZoO0F975fOPIkK8yaiMcG+HEe7As7jhu6IZxyu/w4dIDpWl8qXnl2/ULgJoS7YDnW2wB70Z6ZoOdODD2YHeDjvQyxnfPkjTZ5KmA/SIiEht/wCp73RZuwI25fnLEVcu164C2HWHdqA348gjuEGyEe6l7t6+9dUntYsA2tItOncdjM4I93YY4Q58qJQi7fuuaIUR7uVys5u8R5Si6Sng7QfoxpoxshPjX5tyfb92BcCuu2kHejOOBejlcoTF8cWcR4CN6/N505dV7Agd6O0wwh34EOmFg4jFXu0y2BAd6OX0CpRLjU/Fav4GOOXkUMmo7EBvy41rzX8tAh+REe7t8AhugOwzK5UE6MAIrsSe7xZGl1cC9FboQAc+TDK+vSl5JUAvplmgWG68gbn5pCi7sGJkj88jHj6uXQWbcv2gdgXArhOgt+PIDvRiRpqVcx4BxvCx3/juKiI9qF0HbctnLt+bIUAHPkR3cLN2CWzK+iLyA3tnS+Xsvq9U1oE+dW3/ANkNJ0bANuNQMAZ8iBt2oDfDCPdyyUyzAZxHgLFkE/cYVTbCvRnphauR9i7VLgPYYTrQ25FXxxHZfUepfu0zK9XFuun7juYD9NZHCLAbTj3oaoYOdOCDvHA5xfOXBeitEKCXy0aaFXMeAUbk+4VxLU9qV8CmpBSx/1LtKoAdlvYF6K3o7T8fxH1HuXUsmj6PNB+gp+xFNuM7vqsbqxXXdaADH8D49rYc2YFezIGynPMIMJrsgQ4jO9OB3hRj3IEPkIxwb0YWoA+Se3d+hfKdT159o3YRY2o+QO8WnQMlozvRgd6MG9f8ogTe300BejP6HHH3njC4VBKgF0ud8wgwjpSSBzqMKj+8F3H+pHYZbEg6uF67BGCHdUa4NyMvj2qXMEkaBoqdvvxrv39eu4gxNR+gX6S2Z/CzG+6ualfAphjhDnwQHejtuHsvx1oDejEHynJ96p1HgFHkSL5fGF1e6UJvhg504APYgd4OI9zL5YjI7ohKNX8WaT5Av3zpSvM/ROo7sUO1GYfCMeAD3Dho/k+n2bD/fKDeibLUIu05jwCjyOGBDuPLSwF6K7prAnTg/Rnh3o68OqldwuTkde0Kpqj9dVLN3wLfvvXxexFxv3YdtO3kzCV8K67v164A2GVGuLfjeCUIHkQHerHl2g50YBwprIhgC5Yu4Zuxb4Q78P50oLfDCPcB3HUM0P40rOYD9KdcWjEuHejtuPpCikt7tasAdtXhvgC9FUd+dw9ipFmx1Y9+89MPahcBtCmHlXVsgQ70dhjhDnyAziObZmQj3IsZtlcuCdBb0f4PkrpOlrUrYFNSiriuwxR4H3agt8MI94GcKks5hwCjWfRJswCj689cwrciXROOAe8tXbkacelK7TLYEDvQy2kWKJejb/4sMosAPedo/gdJXXcF6E25flC7AmBX3bQDvRkC9AH6HOFjK+McAoxoffGcRzqMTwd6M9I145mB92Z8e1uMcC8nQC+XZ9C4PItb4DmMEqCuew9zPDmvXQWbcqjDFHgfOtDbYQd6uaz7vFznHAKM5yd++/ZpRDypXQdtywL0ZqQDHejAexOgN6RfR75/VruKycl2oBfrct/8fcc8AvQuN/+DpD570NtxqAMdeB8C9HboQB9Afl4sh3MIMJ70dC7IG7XroHHLk9oVsClXr0UsFrWrAHZQd3CzdglsSL5/FtGva5cxOTrQy/XRNX/fMYsAfQ6jBKjv1EV8Mw6vzeKrESh0+VLE1SsC9FYI0AfwIrtYEqADo3Pfwch0oLcjdREvXqtdBbCDdKC3w/j2Ybw5KLfoF82fQ2aREqWc7R5kdCf2oDfj+n7tCoBddMP+86YcCdDLGeFezCopYHwe6jCu/uy4dglskDHuwHsRoLejX/q9PYQR7uXWL66az11ncRO8dqBkC04F6M24boQ78B6Mb29HzhGndqAXy2sHylK9cwgwvuYvrqjs/jLy+qJ2FWxIOjisXQKwg5IR7s3IAvRBcu/Or0SOWH7m1g8f1q5jbLMI0Ltof5QA9dmB3o5DIRnwHm7u+25oxephjifugct5kV0s5YVgCxhVzh7qMLKcI+6d1a6CDUnXdKADP67Tgd4MI9yHydl9R4m5rKubRYB+uT+fxQ+Tuk7OfMm24lAHOvAedKC3w/j2gQToxRZ57RwCjMqqCLbCHvR26EAH3oMR7u0wwr1c7nOE645CaRbNArMI0P/4X3z2bkQ8rl0HbTt1Gd+Mw2uz+GoECtmB3o5jv7MHsROs3Pn6BcEWMKosQGcLsj3ozTDCHXgvaV+A3oq8OqldwuT0xrcPMYszyExuglOOFG/UroK2ndiB3oyDqxGLRe0qgF2jA70dJ/afD5LWPrdCj37wWzf8hQiMqlvMY3widWUd6O04MMId+HE60NthhPsAmgUGmMcZZCYBekTM5EUE9ehAb0eXIq5dFZQB73TDDvRmGOE+jJVgxZw/gNH1eR7jE6lsqZutFemakAx4p/TclUiXX6hdBhuSjXAv1q9rVzA9Kc9jCtZ8AvQcDpWMSgd6W+xBB95NB3o7jHAvl3OWoJebxYESqOu5eOK7htHpQG9H2n+pdgnAjkkHN2uXwAbZgV4uG7ZXLOtAb84sfqDUs7yf42LtYrkVh4Iy4F1u2oHeDAF6uWSkWbHk/AFswccv//lRROibYVwrAXoz7EAH3sX49obkHPmeqTGlsvuOYrmbR8PyjG6C5zFSgHpyjji7V7sKNuW6AB14Fx3o7Thael5cKnskWCxHnsWBEqgr3Yp1RGg1YlT5zH9izTi4HpGca4C3CNDbkR8sIy7Oa5cxOTrQy3XRzSJvnVGAPo+RAtR1cla7AjbFCHfg7fYWEQcvuGhqxclKGFzMi+wBPOAFtsb3DaMywr0dabEX6cX92mUAO6Qzwr0Z9p8PI0Av18fFLM4fswnQU9YBwvhOjYRthg504O1u7CeNGg0xwn0AAXqxuewEA3ZAFqAzsjPjYJtijDvwNmlfB3or8kqAPkQvQC92JfZmcf6YTYCeF/MYKUBdx2cul1uhAx14uxv2nzflWAd6sexEWSxl5w9gO1JKGgYYVb53V3tWQ9LB9dolADvECPd29DrQB7EDvdjDj/3Gd1e1i9iG2dwGd9G7wGJ0J8vaFbAph9e0mgJvsf+8HQ8e53j42OGomB3oxZw/gG0x8YLRrdcR92dxTzoPOtCBt0lGuDfDCPeBvBEsNZuzx2wC9PPu0mx+qNRzV0dbM4xwB97upu+EZhjfPlD2uZVa54XzB7AVOZLvG0bXn7mUb0Xa14EOvKXTgd6MvDyqXcLk5N51xwCzOXvMJkD/06994igiLmrXQdt0oLfDCHfg7Yxwb8eRAH0YI82KLZ7rjVQGtiKZeME2rO7WroANSdd0oANvSfu+E1phhHs5G2oGyPOZfjWf2+BfTX1E+AZhVKcu5ZtxfT9Fp+EUeNPhvi+EVuhAHyYb4V7q4t997W+c1i4CmAcd6GzF8qR2BWyKEe7A2xjh3o68En+V6jULFEspzaZZYD4B+lMOlYzq+MwXbisWi4j9FwVmwFNGuLfjZOV58SC9z63QnTcf8AKMbtF3s7nEop689C6sFenACHfgTXvPRXr+au0q2BA70Adwai82p8e78wrQczhUMioj3NtijDvwV24I0JthhPsA+c3/UWI2B0qgvr6/8J3D+M50oDdDBzrwpu7gMCK572iFAL2cDvRyeUbro2YVoOduPi8jqONsla0Ibch1gRnwJjvQ22GE+wC6zwdw7gC25+zq5TvhqRMj689cyrciCdCBN6V949tbYoR7udy7/y+VopvNfcesboNTzGe5PXWs+4jlvdpVsCk60IG/YoR7OwTo5ew/H8K5A9ier966/SQi7taug8at/CfWinTNCHfgqXRwo3YJbEh+dD/yk0e1y5gc9x3lcqxnc98xswBdJwjjO1nq0mqFDnQgImLRRVx70fdBK478ni6XHShL5SxAB7bO9w7jWhrh3oxLlyOuvFC7CmAHCNDbYXz7MNkVUbFFn2azKntWAXqf82x+sNRzag96Mw6vCcyAiJeupljM6i+mtulAH8B+mmKpm8+BEtgVGgYYV16e1i6BDTLGHYiI6A6McG9FXh7VLmGSBOjl1hfPzebcMavrYCPc2YYTAXozDnWgAxFx0/7zppyshMHFjDQr5twBbJ+GAcaVdaC35cAYd0AHekt6HeiD9BoGSp3/xG/fns2rylndCPexcJHF6E51tjXjuh3oQETc8JimGY/PI1YP/Z4ulXtPskv10Tl3AFuVsxHujOz8SeSH92pXwYZ014RmgAC9JXnlodsQuXfnV+hOipjNxdqsAvQuz2e5PfXoQG/HoQAdCAF6S05WguBBvMgu1kXv3AFslckXbMXZbBqO2qcDHYiItC9Ab4UR7gPkiMjuO8rMa23UrAL0/U+/fidm9DqCOk7OXM634rrQDIiIG/u+C1ph//lAAvRiT2I+O8GA3ZBndplFJca4N8MOdCAiotOB3oxshHsx49uHmNej3VkF6L//ay+fR4TnsozqVAd6M+xAByIibtiB3owjAfog2Q70Uv1PLj/u9gLYqi4lO9AZXV65UmuGDnQgjHBvSb9yBC1lfPsgAvTGOVQyKiPc2/HcpYgX0rs1/wAAIABJREFUn69dBVCbEe7t0IE+TPIqu9TxK6+ki9pFAPOSw8o6xpfPdKA3Q4AOdItIL16rXQUbogO9XK9ZoFjOeVb56uwC9DSzFxJs36nL+aYY4w7c9D3QjOOlNSvFco5sJ1iR7LwBVLAXC989jC4b4d6M7pquU5i7tH8YkWYXDzVLgD6AZoFiaWZro2b3DelCi7GdLHO4Z27H4UHtCoDa7EBvx/HKL+hS/qYp58EuUEMfK989jG9phHszdKDD7Nl/3hYBejkj3MtlAXrr5vUDZvvOLyLuPXTb3Ap70AE70NthhHu5tNa1X2puL7KB3fDp3/zRg4i4V7sO2qYDvR3p4LB2CUBl6eBm7RLYlPPHkR/5M7BUrwO9WLfIs7rvmN2NcI55/YCp49Qe9GYcXhOgw5ylFHGoA70ZAvRy2YGymPMGUJHvH0ZlB3pDrrwQ8dyV2lUAFSUd6M3odZ8PkvULFOujm9V5Y3YBeprZknvqEKC347rgDGbt2gsp9ha1q2BTjuxALydAL5YE6EAtWYDOyIxwb8v+S7UrACoSoLfD+PZhBOjlLnXnszpvzC9A7+b1QoI6TnW4NeO6HegwazescWiKDvQB1j6zUn3uPNgFqsgpfP8wKiPc29JdM8Yd5swO9Hbk5VHtEibJxL1i60/s/emsXmvMLkDvUy9AZ3THZ758W3EoQIdZu2n/eTPWfcTygd/PpRwoy6Vw3gDqSJF8/zCuxw8jHj+qXQWbYg86zFratwO9FXk1q0xzY3od6KWO061Y1y5im2Z3K7xIew6UjO5Eh1szbrw0u69J4G10oLfjZJVNIx/CibJYlxfOG0AV2QoJtmFljHsr0sH12iUAFSWPaJrRmxBTLOeIcN1RanZnjdklQ/cuXczuh8z22YHeDiPcYd4O9wXorTi2/3wYrw6KXfQ60IE6uhlearF9/Zkut2YIz2DW0oEO9FYY4T6AK6JyeX5njdkF6D+89ZmHEbGqXQdtO125bG7Foe5TmLWbvgOacWQ6zDAOlaVyxMM3ahcBzFPOyQ50xrfUgd6KZAc6zJod6O0wwr1cr1mgWOrmN+1qdgH6mxwqGZUO9HY8fzniyuXaVQC13LADvRnHAvRBshHupe7+4Ld+6nHtIoB56vL8LrXYvixAb4bxzTBjqYt01RqHVuSlAL1UdtVRLEea3VljnrfCMxw1wHYdn7mkb8n1/doVALXYgd4OAfpAXmWXcs4Aqulz5zuI8dmz2o594RnMVbr6UkS3qF0GG9Ib4V5MgF5ujtOu9moXUEWXXo/sMpDxnLikb8r/+F/vxb/6gxyvfqePE48joHn7z6f42S8t4ptf3ouv/y0HylYcr5yOiq19ZuXmd6AEdsfjF5+8fvnRPK952B4d6O1In/1bsfgv//vI33k1+u//UcTFee2SgJF1n/hc7H3l52LvZ36pdilsUF753VwqaxYolqKf3WPdWZ6scuTX9ZMxpkePn/7P6O82/NLXF/FLX3/6/3/0xtMg/dXbffzu7T7uP6xbG/DRLbqIL33maWD+zS8v4uWf2otLs/wLqW060Mt5kT2E8clAPV+49WdnP/zln34UEVdq10K78pkxsa1IL+zH3j/+ZxH/+J9FnD+O/vt/FPk7vxfr77wa+S++F5qPYPrSiy/F3pd+NhZf/mbsffXno7vxN2qXxKb168j379auYnJynyLC77kScxzhPsvr4RT59QgROuM6Web49Mf8d9aaT38sxa/84iJ+5RcXsV5H/OA/5Hj1O+v4nT/s409+kE26hYn4zMe6vw7Mf+7Le7H/gu/r1gnQB/BLrZz9w0B16U5E/mztKmiYDvQ2Xboc3Ve+EfGVb8Qi/nnE6jT67347+tuvRv/H/zryiT9xYBK6RSw+86XY+/I3Y+9nfikWX/hPI9I8t/jORV4ee/A0QL/2mZVa6ECfidzd8bqEsR2fCdBbt1hEfPFzKb74ub34p/8o4uxexB/8u6fd6f/mT9bxlx7mw864fjXF3/vi08D8F766F5++4QA5N0cC9HK9FvRSc3yRDeya/HpECNAZjTGxM7F/PbqXvxXdy9+KiIj8xo+i/86rTwP1278b8fB+5QKBv9J97DOx9+Vv/nWXebpytXZJbFG/dAE9hBHu5da5m919xywD9Bz960kHOiO7u6pdAdt27WrEt17u4lsvdxGx945x77/3nRyrB34xw7Ysuoiv/c1F/NLP7MU3v7wXX/7sIjq/+mfteCkMLuVAWS4Z4Q7Ud6d2ATRueVK7AipIH/t0LH7xV2Lxi78SsV5H/g8/eDrq/Tu/F/13/yBiva5dIsxG2j+MvZ/+xtPA/D/5z6O7/snaJVFRXgnQhzDCvVhePn/pjdpFbNssA/QUi9cjXKIyrhOdbrP3jnHvfcQP/v3Tce+/950c3/5ejvML/43AJr19LPsvfHUvXrwiMeepPkec3vOdWyr12XGyUOrm9yIb2C0559dT8jcQ48kP7kVcnEfsXapdCrUsFpE+98XY+9wXI/7RP4149CD67/7b6L/9O7G+/bsRR/+xdoXQlPTclVh84e88Dcy//M1YfPYrEX7X86a8PKpdwiRpGCh2+tVbt5/ULmLbZhmgL/L69bVfMozsdFm7AnbJonvnuPdHjyP++E+fdqa/+p11fPc1v7Sh1I2DFC//1NPA/Bd/5lJ84iW/23lvd+/lWHs7WcyBstw6Z52fQFXJKgnGlnPk5Wmkw4/XroRdceWF6L7289F97edjL9457j3/v78X+b4RjVAkdbH47JffGsv+U1+P2HuudlXsqGyEe7kckd0RlZrlGWOWAfr5+oXXu72HtcugcTrQ+SBXLkd84ytdfOMrEf88FnFyluMPv5/j1dt9/D/f7uP4zH8/8G5Xnkvxd76wiG9+eRHf/PJefOWzC4+ueSbHficPIkAvt4i9WR4qgd2Ru/R6yr6/GdnyNEKAzvt4x7j3fh3537817j1/79uRL85rlwg7J137WOx95edi72d+Kfa+9PcjvXitdklMRG+1SjFXHUOkWTYLzDJA/8Fv3Vj+9C//8GFEPF+7FtolAKXE4bUU33o5xbde7uJ/+W8jvv8Xb417/8Pv9/HE+ZIZWnQRX/rM4q/Hsn/9p/biuVn+5cJHdbLytHiI1PdGuBe6/NjuYaCuLvd3cnhhyLjy8sR/ZTyb7l3j3h8/iv5P/zjyd37vaaj+F9+L8OiHGUqXX4jF3/zaW2PZf/KrtUtiovLKCPdiEvQB8iybBWZ7DZ0i3sgRn61dB+26a4Q7A3XpnePeH59H/NH33xr3/r2/yM6XNOvte8z//pf24tqLrub46I50oA+S17UrmJx7f/QvP3m/dhHAvOXoXg/PnxibbjeGunwluq98I+Ir34hF/PPIZyeRv/+H0d9+Nfo//J3IdwVBNKpbxOIzX3prLPtPfyNiMdtohg0ywr1c766jWDLCfV7y0x+4AJ3RGOHOply+9M5x76eriG9/t49Xb/fxr/+4j9dP/LfGdL1wOcXX/ubTsezf+tql+MKnutol0SAj3AfyKrvULA+UwG5Zx/r1Rfh7inH1y1P/lbER6dphpJe/Fd3L34qIN/en/+HvRP/t34n++38Ycf6kcoUwXPexz7wVmH/55yK9sF+7JBokQC9n/3m5rAN9dmb5A2d7TnWgM5Lr+xHfermLb7389MriR2/kePU7TwP1373dx/2HlQuED/Dusezf+Om92FvUrorWCdAH6HPoYCyUnS+A+i5F97o7QUanA52RpI99Ohb/4J/E4h/8k4jzx9F//4+Me2cy0tXrsffFv/c0MP/qL0R349O1S2IG+qXJHaWyZoFiOdIs7ztmHKDn18PGJka0epDjyXnEc5dqV0LrPv2xFL/yi4v4lV9cxHod8YP/8Nb+9D/4bh9rY2mo7O1j2X/uK3ux/7zfv2zXkR3oxXLvMyvWzfNACeyWT/3m947/v1/+6fOIcBJlPMvT2hUwB5cuv2Pce6zuRv/df/t03Puf/JvIx39Zu0Lm7tLl2Ptbf/etPeaf/XJEMp+DLcp95Ht3a1cxOTrQy3Up3aldQw0zDtBdcDG+01WOTxwKitiexeKd+9MfPIr4t9/t43e+3cfv3l7Hf/QokS043E/xjZ9+Gpj/Z397Lz516ABJXdaqlEsOlMVSzrM8UAK7JUXkH0YcRcSnatdCu7IOdGrYfym6d497/86r0d9+NfLtVyM/vFe5QObgHWPZv/oLka68WLskZizfu2uh9wDZR1asT/0s89TZBugp5Ts5CzYZ1+lSgE5dL1yJ+PmvdfHzX+siYu8d495/7//N8f+zd2+/VV5pvu9/Y7w2GAIFoeJUxekQEoxJ7AY7Kc/0CmZ3VaR11VJU62Kvm62+Wnd9t/+E0v4L9h1SS3WH9g2RelmtprRbWW3cXcFK7DSBhGnMaTsYSE0f8QHw4R1j7ItJcSoOHhO/852H70fislOP3HO+8x3jN55nLN8lVMKra2uVPuosB+afftiiD/cnsjz6UEMY4R6PkWbxmvVOMAA1yKikQICODBGgowaY9g4lv/6tkl//VnJOYepqedR7cUxh4pyCS/MuEQ3A/OznajnUr+TDT9V69Ncye3+Rd0nAQ9x/XhkG7sVrMUlT7nc0bYAeZEvc64iszXMPOmrME+PevXT1xqNx799dDtpIeS5ic95pt/rN0Rb95miLPu5s0XaGhKKGzS7zbIvGirICtikXlABqTwhm2rDfgQz5RUa4o8YkicyBw2o5cFj6u7+X1u7LX/uhfH/6d18p3P7/8q4QdcJsa1Ny8KPHxrJ3S4YOAdQmv0yAXgkaBuIFt9SUE/eaNkA3CiW+JsjaAgE6alhinxz3vromfX/Na6xYDtUv/xgUeFDigTd+ZvSrQ+Uu898cbdWbe1lAon4scAd6tOD4AYgV1JwjzQDUHsNEDGRtZVFyrnyHGFCLtu94dH/6//4PT457v/StwgobdnjAJkre+eDRWPZDv5JatuVdFbApYYm7OisRvBHNtVGWO/759r28i8hD0wboziQly2UHyNj8opfE3b+oD23bpUK3VaFb+gclml8MOn8laPSi11fnvWbv8GLRTHZsN+p7P3k4lr17f8Kha9Sl5XtBaxt5V1GHOJEdzag5R5oBqD1BpkQHOjIVvHR3UfrZvrwrATbliXHv3inceDTu3V/+TkpZMDSTJ+4x/+C/yLy2J++SgIowwr0ygY6xWE2719G0AXqLdSUmUyJrjHBHPdu3x+izfqPP+suHQG7PBH113uur77zOX/FaZ33ZUBIrffBOOSz/9MNE/Yda1Nq0bwloJLPcf14ZAvRo1vmmHGkGoPZY+VIQJx+RrbC0IEOAjnpknxr3vr4qf/X78rj34qjCj5fFOL7GYrbvVPJ+r1p6P1PL0d/IvvFXeZcEbAkC9HjBi+bzeATozebSP7093/X5rQ1J3NqKzCywaY8G0tFu9N//a6L//l8TrW1IF64w7r3evdNuHwbmn37Yop/tZKMVjWeO+88rQ4Aebf21taZdVAKoLSGYafJzZC0szsn81cG8ywBe3ba2R+Pe9Q/S0rz85fPyF0flL5xVWJjJu0LEenose1dBSpo2BkED8wTo0WiqjWeMmrZZoIl/OUyQbs5KeivvStC46EBHo9re+uS49zvL0rkJr9GLXl//4PWnOYKXWvRam9EnXYl+fbRFx7pb9FdvcMUEGt/cEqujirCqjLV6/dTBxbyLAABJ8sGWrOE5jmyFpYW8SwCy8bN9sv2fyfZ/JklP3J/uf/haWm3Ka2Br3hNj2buPyezYnXdJQObCMgF6NMeedayg0LTNAk0coEsyKikQoCM7C8t5VwBUx97d0mf99olx76PFcqA+ejFo5T4vJ3l4eiz7J4dblJCZo8nMMQ2mIoHcJYpR857IBlB7bHAl0YKOrC3N510BUBVP3J++sSZ/5cJj496v8OKcE7N7n1q6CuXA/K//N9l9bPGj+TDCPR69AvGCDAF6MwoyJcOFB8jQ/CJPZDSnjnaj3/460W9/ncg56epUedT7WDHo3ERQymm/zDw+ln2gp0W72tg8RXMjQK9ACNz7GCk08Z1gAGpP2tZSatlweZeBBkcHOppS6/Ynx72vLMpf+s9yd/rFrxVm/5R3hY2rtU0tnR+VA/MPP1Wyv1sy7HeguYWl2bxLqDuceYpnCNCbk2ni0QOojqUVyTkpSfKuBMhPkkiHDxgdPtCiv/876f6a9MM1r6++8/rjd04/8a73SvbtNip0lQPzv/3rFv1yHy3mwOO4A70CHHKqBOsKADXj3flfzNzafdtL4sUQ2SFAB6Rde5477j1cHFW4v5JzgfXNtr+jlqO/Kf/r/Fhq3Z53SUDtCEF+md/iWIFmgWhBvmn3O5o+QA+MNUOGfJAWV4L27eFzBvzZju1/vj/d6v/8P1qeGPf+7aWgpRVeZF6krVX6qLMcmH/6YYu69yccugZeYJY70KMFz3M4HgdzAdQOc+ZMevPzrnlJb+RdCxpXWGRsLPC0J8a9e6dw42p51HtxTGHinIJL8y6xppmfvaGWQ79S8uGnaj36G5m9b+ZdElCzwv1lKV3Pu4y6E5yRmEodxco27X5HUwfoPthpRrgja/NL0r49eVcB1K4nxr176eqNR+Pev7vstdHk60trpA/3P7rH/OPOFm1vzbsqoH4wwr0CBOgVaN6RZgBqU5CmDQE6MsQId+AlbCJz4LBaDhyW/u7vpbX78td+eHR/+uRE3hXmzmzfoeT9PsayAxVgfHtlaBiI572dzruGvDR1gM4Id1TD3GJQ5zu8/AGbkdgnx72vrkvfX/UaK5ZD9cs/hqa4lrd9j9HHD7rMP+ttVTtTLICKzTPCPR4LymjGhKZdUAKoTaZ8tUR33nWggS3N510BUF+273ji/vQnxr1f+lZhZSnvCrNnEyXvfFAOyz/8VC2H+qUWOgSASoQlJsFUwrPfEW2n22jaHLWpA3QvW7JirCeytUDnG1Cxtm1/Hvcu/YMSzS9J5y+Xx72fveA1s9AY368d24363k8ejmXveTfJuySgYczyOxwteN6PY4UmHmkGoEYFlbixDlkKywtSCHSLAhV6Ytx78Ao/Xnk47t1f/k5KN/IucUvY9nceBeYffiqz82d5lwQ0BL/MQbZKBLY7Yq3+/A9Xm+CE17M1dYBug2dBicwtLOddAdA49v1M+qzf6rN+K0lP3J/+9Q9e91ZzLnCTEit98M6jsez9h1rU2tS/yEA27q8F3V8jQI9lfOCSo0hMtgJQe0JJbHggS84p3F2W2UUYBrwyY/XEuPf1Vfmr3z8a9/7jZdXLOD7z2l61fPA35cC8Z0D252/nXRLQkBjhXiEC9FhNvdfR1Nv1rX6jtJEwJgbZogMdyM7j96evbUgXrjwa937lx1BTU4jfabcPA/NjH7Zo9042NIGs0X1eGe4Ei+dM0tSLSgA1yJoSp6GQuaV5iQAd2Hrb2p4Y966lefnL5+Uvjsp/P6IwX0O3Bz09lv3wJ5Jlqh6QNUa4xwu+bs4i1ZKm3uto6gD94msHZrpWb3lJNu9a0Ljmm3bABVBd21ufHPe+uCL956UH3ekXvf40W903pNd3GX1yuByYH+9pUcfP+akBqm2O+88rQ4AercW6pl5UAqg9Jphp5okga2FpQabjQN5lAI3vZ/tk+z+T7f9Mkp64P93/8LW0eq+q5Twxlr1nQKZtV1X/9wEQoFeC8e2VME2919HUAbpOGafPb85LeiPvUtC45hbZtADysGfX88e9j14MWrm/td/NP49l/83RFv3maIs+3J/I0mQO5GqODvTKOP5ukdJLvW8v6J/yLgMAHgnyjHBH9pa4fxXIwxP3pzunMHVV/vxXcuf/qPDjlS1PiczufWrpKpQD87/+W9l9v9zS/z6AeJ4R7tE8zQLRmv26uuYO0CWVT1AEAnRkhhHuQG14fNy789LVG+VR72PFoHMTQWkFgdHjY9mP97TotTY2KYFaMrfE8eJKBM/fLdKMfmf4owGoKV6mxPwjZC0QoAP5SxKZA4eVHDis5Lf/Q1pZlL/0n+Xu9ItfK8z+Kfo/aba1KTn4UTkw//BTJfu7JcN+B1BLwjK/wdFYtUcLUg3dGVJ9BOjlExQ9eVeBxrXACHeg5iRWOnzA6PCBFv3930n316Qfrj26P31i8tlh+s9/ZtR/qByY/+2RFv3ydbYlgVrGCPd4IUhM/I1kmvtOMAC1qUVpybPlg4yFpYW8SwDwtF17njvuPRTHFO4t/+X/jbFK9n/4aCz7oV9JLduqXDiAGIxwj8cI93iBDvRmFxhrhkzdWS5vRnNQE6hdO7Y/eX/67Zmgby6Wx73ven2b+nradKy7RQffIjAH6sk8U2CiGUaaRQtNficYgNq0tuynW3fnXQUaHh3oQM37i3Hv1y/KXfxGmrykbR8eUusH/Wr54G9kXtubd6kAIoRlAvRYDNuLZ0Nz73c0fYAeZErkmshS6oKW7gbt2cUnDagXHe1G/+03if7bbxKZ1l36+Z6m/7kE6tIMAXo0xrfHa/Y7wQDUpvfOTK7e/LxrUdKevGtB46IDHagzSSJz6KhaDh1VS0uLdu4lNAfqUVi7p7B2P+8y6k6o4PrOZudlm3q/o+lb6Yxp7hn+qI55xrgDAFB13IFeATrQoxGgA6hdgf0OZIsOdAAAqo7x7ZVhhHu8JLim3u8gQGfkIqpggQ44AACqbo7f33gE6NEY4Q6gdvF8QrYCAToAAFUXlmbzLqEuEaDHc+m2pl5PNH2A7ukYQRXQgQ4AQPURoMdjpFkFAhOtANQqAnRkKywSoAMAUG10oFfG0zAQK/2r//diU9/X0/QBupVnQYnM0YEOAEB1rafSyiq/v9G4Az1as98JBqCW0TCAjG2sS/fv5l0FAABNxROgV4QO9GjTRmrqjbWmD9BTk7CgRObmF5v6OQMAQNXNL3kFfn7jcSI7mg0cyAVQm4zE8wmZC8tN3ZgEAEDVhWUC9GhBTR4FV6Tp1xJNH6Cb9XvT4quDjM3TgQ4AQFXNLvPbWxFOZEdr9RtNv6gEUJtCCFwxgewtEaADAFBNjHCPx/j2eBzGJUDX1T8cWpPEDdXI1AKfMAAAqor7zysTHAl6JN9+78Bs3kUAwLME7kBHFfhFNvEBAKgmAvR4wZu8S6g7gQCdAF2SZPggIFvzBOgAAFQVAXplDKeyY82dOWPSvIsAgGexiWWvA9mjAx0AgKryS5zhjuUdex2xQghNv5YgQJck8UFAthbYxAcAoKpml+ikjhcUuDg+CieyAdQyZ1KeUchcWJrPuwQAAJoKHegVoFkgmrGm6a+DIkAXY82QPe5ABwCguua5Az1acHlXUH+M1PQLSgC1q611O3sdyB4d6AAAVFVY5vBaLEa4xyM3JUCXJBk60JGx9Q3p7v28qwAAoHkwwj0e49srwToCQO1689TFFcncy7sONDgCdAAAqmdjTeH+ct5V1B3Pfkc0K9/0+x0E6JIULJ0jyBxj3AEAqJ5ZfnejBc/Y+1icyAZQ+wL7HciUX2SMLAAA1eLpPq9IYLsjmpdt+v0OAnRJgc4RVMH8Ut4VAADQPOa4Az1a4ER2NCZZAagDPKeQLTrQAQCoGu4/rwwBerxtWm/6dQQBuiTDSQpUAfegAwBQPYxwj2ccf7NYIbCOAFDjAgd9kK2wRCccAADVEpZm8y6hLtEwEM2/ufRu05/WIECX5AOz/JG9+UUe0gAAVIPz0uJdfndjhcDfLJbhTjAANc5w1QSytnpPWl/NuwoAAJoCHeiVCS7vCurOrDlzJs27iLwRoEuywbGgROYWltmUBgCgGuaXgzhcXAH+aNGM5W5hALUtWAJ0VMHynbwrAACgKXgC9GghlP8hCmsIEaBLklp37mDjC5njDnQAAKpjfpnLrSri+bvFSk3CohJATQvBs9+BzPlFxrgDAFANYZkAPRrNApVgDSECdEnSxVNvrki6m3cdaGwLBOgAAFTFLPefV4SRZvHc4vpM3jUAwIsYWQ76IHvcgw4AQFUwwj0evQLxuAaqjAD9IcYvIltzd3hSAwBQDXME6JVhVRnrzuSZ97j0FUBNC+LKOmQvLC3kXQIAAE2BAD1eYKsjWlBgDSEC9MdwogLZogMdAIDqIECvEGPNYrF+AFDzEjrQUQ10oAMAUBV+aTbvEuoOAXq8QF4qiQD9MZyoQLbm2cwHAKAqZpdYHUVz/M3isaAEUPs2/HaeVchc4A50AACqgg70eIFmgWhGnjWECNAfwwYYsnV/TVpdy7sKAAAaHx3o8TiRXQkO4AKoffv/5fs7ktbzrgONLdCBDgBA9rxTuMeY21jB5V1B/QnBcOW1CNAfMkZ8IJC5heW8KwAAoPHNLxOgRwv8zaKZwPoBQM0zUpA0k3cdaHDL3IEOAEDWwtIcp98r4PmTRUsC10BJBOgPMdMf1TDPSFkAADI3Swd6PFaU0QzrBwB1g+cVshWWCNABAMiaX2biSyUY4R7P+5T1gwjQHzKMYEQVLDBhBQCAzM1xYC2eY0EZK0isHwDUCfY7kDFGuAMAkLmwNJt3CXUpeJN3CfUm3GeClSQC9Ie8PAtKZG5+kc1pAACyFIK0sMLvbTROZEczgY5OAHWD5xUyFe4uK6QbeZcBAEBDC0tzeZdQl+hAj3bn0B+uruVdRC0gQH/AhBbuMETm5ulABwAgU3fuBqUu7yrqDwvKeI6OTgB1whCgI2shSMt38q4CAICGRoBegcC18RVg7fAAAfoD2/0GHwpkboE7WQEAyNQcv7WVIUCPZr3jAC6AuhCCeF4he4xxBwAgU54APRpbHZVg2t6fEaA/8P2/7L8jibEEyNQ8m/oAAGSK+88r5Pi7xWrb2M6iEkBdCGyCoQrC0kLeJQAA0NDCMgF6NEceEy9w+PYBAvSHTJDRTN5VoLEtMMIdAIBMzS2zOKoEI82i3b3wr7+8m3cRALAZNuHKCWQv0IEOAECmGOG5URR0AAAgAElEQVQez3uTdwl1JwRGuP8ZAfqT+GAgU3SgAwCQLUa4V4i5ZrFYNwCoG16WZxayRwc6AACZCkuzeZdQdwJ7HdGMOHz7ZwToj+NkBTI2Twc6AACZIkCvgA+S+LvFMAToAOpIq93gmYXM0YEOAEC2uAM9HgF6PK5/eoQA/TFshCFrK/eCNtK8qwAAoHHNcgd6NBaU8QInsgHUkV+0XJuT5PKuAw2OAB0AgOwEr7DCtJdYXFcXz1oC9D8jQH9MkJnOuwY0thCkBTrjAADIzDx3oEczBOjRDCeyAdQRc0pOEi1LyFRYZFMfAICshLuLkuc8ZCwC9HjeePY7HiBAfwKdJMjeAmPcAQDIzCwH1aLRgR6PDnQAdYjnFjLFCHcAALITFrn/vBKeAD1aq7c0Gj9AgP4YNsJQDQt0xgEAkBnuQI8XHCvKaIEFJYA6EwjQka2wRAc6AABZ8cscVKsEHegVWNvOfscDBOiPMYFRjMjePB3oAABkZn6Z1VEsRrjHMxy8BVBnjOW5hYytMFoWAICshCU60CvCfkeslV/+64W7eRdRKwjQH2OTwMkKZG5+kY19AACysHw/aG0j7yrqDyPc44VgCaIA1JUgGgaQMe+ku3QMAACQhbA0l3cJdYkR7tFYMzyGAP0xG7aVDwcyRwc6AADZYHx7hQjQo9ngWTcAqCshGBoGkDnGuAMAkA0C9HjBS2K7Iw7XPj2BAP0x13p/MSspzbsONLYFAnQAADJBgF4hAvRo66+tsagEUFeMOPiD7IVFNvcBAMiCX+Y3Nhbd5/GMJUB/HAH6435nvCSeRMjUApv7AABkYo77zysSWFXGWrt+6n2ORAKoK4xwRzWERTrQAQDIAh3oFaBZIFpQYM3wGAL0v8QHBJmaW+TBDQBAFuhArxD5eaxpyfBhA1BXEjrQUQ3LBOgAAGSBAD1eYK8jGtc+PYkA/S+xqESm6EAHACAbBOgV8JICf7c4dHECqD8uWJ5dyN7SfN4VAADQkMLybN4l1B2G7cWz5KNPIED/S3xAkKnFFcm5vKsAAKDxzC0TBEdjRVkBRpoBqD+ljt3TkvihRKb8IgE6AABZ8Ex5iRYY4R7Ns9/xBAL0pxkxogCZ8kFavJt3FQAANJ65JcLgWCwo44XAghJA/en/x283JN3Juw40ODrQAQDYcuH+srSxlncZdSc4k3cJdSdh4t4TCNCfYviAoAoY4w4AwNZjhHsFCNCjsV4AUMd4fiFTYYnuOAAAthr3n1eGhoF4LiSsFx5DgP6UwIgCVMHcIg9vAAC22iwBejwWlNGMZb0AoF5xAAgZY7wsAABbjgC9MgTo8Xa6DdYLjyFAf4ohQEcV3GGDHwCALTfPHejRAnegR/PBcuUTgDrFfgcytrQgBd7HAADYSp4AvSKeEe6xVn/+h6tLeRdRSwjQn+JCwoYYMjfPYwgAgC21uiHdXWXDNhonsqNZAigAdcowwh0ZC+mGwr2VvMsAAKChhGUC9IpwqC+SIRt9CgH6U2xwLCiRuXk60AEA2FJzS3RSV4Q/WzQn1gsA6lMIgU0xZG9pPu8KAABoKIxwjxdCID+PRrPA0wjQn7K7ozQtia8WMrVABzoAAFtqjsNpFQmOBD2WVSuLSgB1KXAHOqogEKADALClwtJs3iXUneAZ314B1gpPIUB/yrf/2L8haSHvOtDY5hbZ5AcAYCsRoFfGMMI9Vnr5V2+RDACoS9YSoKMKlthSAwBgK3EHejzv2OuIFQjQ/wIB+rPxQUGm7izzAAcAYCvNMsK9IsHzd4s0o98Z/mgA6pI3nr0OZI4OdAAAtlZY5rc1Gqv2aIZc9C+05F1ALQpSyUgf5l0HGteVG0H/4/9aV6E7UX+3UV+XUWsLY0UAAIgxuxR0tphq6HyqkfE073LqTwhcXBTLsKAEUL9aTFJy7CYiY+kXJ+TP/VGmu19J34BMx3t5lwQAQH3xTm7qktLxEbnxEbnJ7/OuqO4EXnmjBWOm866h1hCgPwMnLZA1H6SJyaCJyVQnT0tt26UjB60G+qyO9yV66428KwQAoPasbkjnrqYaGXcaGU918UeXd0n1jQVlNBMCC0oAdSttXSkZtzPvMtDo1lbli6NScVTuixMy7R2y3QXZnoJMT0Fmx668KwQAoOaEpVmlxbNKzw8pHR9RuLeUd0l1zXNdXTSrQC76FAL0ZzLTtOOgmlbXpNGi12jR6//+f1J1tBsVuq0KPVaf9Fi9tiPvCgEAyMfUjNfIeKrhC6nOjqda28i7osbB+PZ4QdwfDKB+vXPq5v2bn3etSCLBRNWEmdtyw4Nyw4NSksi806mk97hs74DMu12SYRofAKAJbawqvXpObnyk3Gl+o1ieEoctEei3iMZ+x18iQH+GoFDi9R15uj0TNDjsNDjslCRSz/tGA71Whe5EXe8a1pcAgIa1sBL0zUS5y3z4+1SlBULezHAiO5rhRDaA+lcSATry4pzC5ITSyQlp8PfS7r2yhz+S7SmUA/W9jOMDADQuPzOldHxE6YVhpeNnpY21vEtqWIxwj5cYx37HUwjQn6G8MUZCidrgnHThStCFK04n5PT6bqnvcLk7faDX6o29fFYBAPXLeenSVHkk+5kLqb675sh1q8Xxh47lZVlQAqhvQSUZHcy7DECStHxHfmxIfmxIkmTffl+295hMd79MV59MS2vOBQIAULlw947SS1+Xu8x/+Hf5+T/lXVLTIECP52wL+x1PIUB/Bh9syRo2FFGbFpaloTGvobHyr8D7b1sd67Xq7zbq6zJqbSFQBwDUtpuzXmeL5S7zs+Oplu/x3pWHwEmFaHSgA6h3xqrEdFDUKn/ruvyt69Lpk9L2NtmDR2S6+5X0Dch0vJd3eQAAvJh3clOXyiPZx0eUTnwjeWaJ54E70KOlb/deWtA/5V1GbSFAfwaT+Gl5QkjUh+u3vK7f8jp5WmrbLh05WA7Tj/clOtDB5xgAkL/V9aBz15xGxsud5hd/ZAFZC4wPYkkZx3o/nXcNAPAqAhP3UC/WVuWLo1JxVO6LEzLtHbLdBdmegkxPQWYHNxEAAPLnZ28qLZ59cJf5WYV7y3mXBNGBXoFp8zvxV3sKAfozJKal5MXGLurP6po0WvQaLUonvnDqaDcqdJfHvX/SY/XajrwrBAA0i6kZr+HvUw2dT/XtlVTrad4V4WnBszaK5QIj3AHUtxDMNPE56lGYuS03PCg3PCglicw7nUp6j5fvTn/3kGRs3iUCAJpAWF+Vu3buQWA+IvfjxbxLwtPCg3/YPCOaBZ6BAP0ZVlrT0k7HkhL17/ZM0OCw0+CwU5JIne8YHe9NNNBr1fWukeFjDgDYIvPLQaOXy2PZhy9sqHSH1UrNIz+P1tKWEqADqGtWKvELjbrnnMLkhNLJCWnw99LuvbKHP5LtKcgePSbzenveFQIAGoifmVL6/bDS80NKr3wrpet5l4QXoFcgHtfVPRsB+jPcPPXO/a7Pby5L2p13LcBWcU6amAyamEz1+0Fp727po8Pl7vSBXqs39pKmAwA2z3np0pTTmQupzlxINX7DiSum6gsd6NHCzjdmZ/MuAgBehVcoGUa4o9Es35EfG5IfG5Ik2bffl+09JtPdL9vVJ7W05lwgAKCehJUFpRPflLvMvx+WXyBbrCfBsTkVK8jwIX8GAvTnK4kAHQ3szrI0NOY1NFbePH//batjveX70/u6jFpb2FQBADxpasZrZLzcZX62mGr5PouSusaJh1hz3/5j/0beRQDAq0hkShyfQqPzt67L37ounT4pbWuT7Twi092vpG9ApuO9vMsDANQa7+SmLikdH1F64Yzcte+4RLuO8f+6eAToz0aA/nwlSZ15FwFUy/VbXtdveZ08LbVtl44cLIfpx/sSHeggTAeAZnR/Lei7604j405D5zd07SdWIY0jEKBHY0EJoP65kJSMcXmXAVTP+qp8cVQqjsp9cUKmvUO2uyDbU5DpKcjs2JV3hQCAHPiZqfId5uMjSotnFe4v510StkhgryMaI9yfjQD9+fjAoGmtrkmjRa/RonTiC6eOdqNCd3nc+yc9Vq/tyLtCAEBWrv3kNXR+QyPjTmNXUm2keVeELASykwqwoARQ/9Z3rE1vX2UrCM0rzNyWGx6UGx6UkkTmnU4lvcdlewdk3j0kGZt3iQCADIT1Vblr5+TGR7Rxfkj+p2t5l4SMBG8kEaLHoAP92Vg1PUcwmjZ8xwBJ0u2ZoMFhp8FhpySROt8xOt6baKDXqutdI0ODOgDUrfnloNHL5bHsZy5saPoOL0DNwHAiuwIE6ADq38FT1xdvft61Kqkt71qA3DmnMDmhdHJCGvy9tHuv7OGPZHsKskePybzenneFAIBX4H+6po3zQ+Uu8yvfSul63iWhCjz7HdGS4KbzrqEWEaA/R3lkAakg8DTnpInJoInJVL8flPbulj46XO5OH+i1emMv3xsAqGXOS+evO525kGpkPFXxhlNgbdF0gmccf6wQDAtKAA3CTEthf95VADVn+Y782JD82JAkyb79vmzvMZnuftmuPqmlNecCAQAvEpbnlV4eLXeZXxhWuMMZ6GbEHejxfLB8WZ6BAP05jEyJvWTg5e4sS0NjXkNj5V+m99+2OtZbvj+9r8uotYVAHQDyNjXjNTJe7jL/6mKqlVXecpoeJ7KjGcsVTwAaRShJIkAHXsLfui5/67p0+qS0rU2284hMd7+SvgGZjvfyLg8A4J3c1CWlF84ovXBG7kZRdAiAAD3ehm9lv+MZCNCfwyuUDB3oQLTrt7yu3/I6eVpq2y4dOVgO04/3JTrQwXcKAKrh/lrQdw+6zP/tu1S35lg94CkE6NEMd4IBaBw8z4BY66vyxVGpOCr3xQmZ9g7Z7oJsT0GmpyCzY1feFQJAU/AzU0rHR8pj2S9+pbC6kndJqDGB/Y5Y/sC99tm8i6hFBOjPYUIyLbHZDLyK1TVptOg1WpROfOHU0W5U6C6Pey/0GO3aQaAOAFvBB2n8hnvYZT52JdVGmndVqGUsKON57kAH0CCCVGIlBryaMHNbbnhQbnhQsonM/k4lvcdlewdk3j0kGZt3iQDQEMLafbnr35W7zM8Pyc/ezLsk1Ljg8q6g7syZM2fYRXwGAvTnSIIrOcOSEthKt2eCBoedBoedkkTqfMfoeG+igV6rrneN+MoBwObNLweNXi4H5kPnNzSzSCCKCATo0aw8ATqAhmCCphm4B2wh7xQmJ5ROTkiDv5d275U9/JFsT0H26DGZ19vzrhAA6kfwcjfGH3WZXxmT0o28q0KdCIEp/vFoFngeAvTn2HA7S7blft5lAA3LOWliMmhiMtXvB6W9u6WPDpe70wd6rd7Yy44OADzOeen8g7HsI+OpijcciwJUzjFpKdZGaJnOuwYA2ArBmpLhJQLIzvId+bEh+bEhSZJ9+33Z3mMy3f2yXX1SS2vOBQJAbQnL80ovj8qNj2jj/JDC4kzeJaFe8Y5bAa6rex4C9Oe4+oefL3V9fvO+pB151wI0gzvL0tCY19BYeUP//betjvWW70/v6zJqbSFQB9B8pmb8w7Hsf7yY6u4qCwFsjUB+Hs0vrxGgA2gIVqHEGwVQPf7Wdflb16XTJ6VtbbKdR2S6+5X0Dch0vJd3eQBQfd7JXT9fHss+PiJ3o0jwiS3hHRlCrCCx1/EcBOgvNi3p3byLAJrR9Vte1295nTwttW2Xjhwsh+kDfYne6+CHEEBjurcW9M1Eucv8jxdT3Z4j5UQ2jPdieyLK4uSZ91bzLgIAtkKQKYlfASAf66vyxVGpOCr3xQmZ9g7Z7oJsT0GmpyCzY1feFQJAJvzM1KOx7Be/UlhdybskNKDAdXXRDCPcn4sA/cVKIkAHcre6Jo0WvUaL0okvnDrajQrd5XHvhR6jXTsI1AHUJ+elS1PuYZf56OVUqcu7KjQDFpWRjFhQAmgYLrjpRDbvMgBICjO35YYH5YYHJZvI7O9U0l2Q7Tsuc7BHMnxXAdSnsHbvUZf5d/9Lfu523iWhCTBtL15ghPtzEaC/GKMLgBp0eyZocNhpcNgpSaTOd4yO9yYa6LU69K6RJU8HUMPmloLGrqQ6c6H8b/EuQSaqi/C8EpzIBtA4WmVL7C0CNcg7hckJpZMT5XHvu/bIfvCxbE9B9ugxmdfb864QAJ4veLkb44+6zC+PSi7Nuyo0GQL0eDaw3/E8BOgvFEoSSRxQy5yTJiaDJiZT/X5Q2rtb+uhwuTv92FGr9tf5DgPI1+qGdO5qucN8ZDxV8Ybjai/kyhCgR+NENoBG8tY/X5679XnXhqTWvGsB8AIri/JjQ/JjQ5JUHvfeOyDbNyDb1Se18BUGkK+wNKf0yli5y/zCGYW7i3mXhCYXHPsdsTz7Hc9FgP5CfHCAenNnWRoa8xoaKx83e/9tq2O95fvT+7qsWnnqAaiCqRn/cCz7f/yQ6t4aL/CoHXSgx+NOMACNxEjhpjQr6a28awGweWHmttyXp+S+PCVta5PtPCLT3a+kuyBz4HDe5QFoBhurSq+eK3eYj4/I3SiKDgHUEk8HerQkWPY7noMo6QWCQsnQgQ7Uteu3vK7f8jp5WmrbJh3pLIfpA32J3uvg+w1ga9y5G/T1pUeB+U/zvLGjhrGijBcsVzsBaCxGJQUCdKBura/KF0el4qicTpS707sLsj0FmZ6CzI5deVcIoEH4malHY9kv/lFh9W7eJQHPxQj3eKFlg/2O5yBAfwETbEmGE1RAo1hdl0aLXqNF6cQXTh3tRoXu8rj3Qo/Rrh0E6gA2x3np0pR72GU+ejlV6vKuCtgkRppFC3SgA2gwRqEUaBgAGkaYuS03PCg3PCjZRGZ/p5LugmzfcZmDPZKxeZcIoE6EtXtyE9+Ux7L/8B/y8z/lXRKweQTo0e6tGwL05yBAfwFjwzQTSIDGdXsmaHDYaXDYKUmkzneMjvcmGui1OvSukWU/CcBjZpeCzhZTDZ1PNTKeaukeLwmoT4xwj2fESDMAjSVwZR3QuLxTmJxQOjkhnT4p7doj+8HHsj0F2aPHZF5vz7tCALXEO7mpS4+6zC+PSi7NuyqgIp79jlh3Dv3h6lreRdQqAvQXcCYp2UA7GdAMnJMmJoMmJlP9flDau1v66HC5O/3YUav210nTgWazuiGdu1ruMB8ZT3XxR94J0CBYUEbzwRM0AWgoIZhpI34PgKawsig/NiQ/NiRJ5XHvvQOyfQOyXX1SS2vOBQKotrA0q7R4Vun5IaXjIwr3lvIuCXh1gRHuFWCv4wUI0F+gxboSV0QCzenOsjQ05jU0Vn4IvP+21bHe8v3pfV1WrTw9gYY0NeM1Mp5q+EKqs+Op1jbyrgjIAAF6NBsci0oADcXKM8IdaFJh5rbcl6fkvjwlbWuT7Twi092vpLsgc+Bw3uUByMLGqtKr58od5uMjcjeKEqN30WDY6ohnCNBfiAjoBS7909vzXZ/f2pDEUUygyV2/5XX9ltfJ01LbNulIZzlMH+hL9F4HG09AvVpYCfpmotxl/u8/pPrTPCfn0AQcn/NYbRvbWVQCaCiMcAcgSVpflS+OSsVROZ0od6d3F2R7CjLd/TI7d+ddIYAK+ZkppeMjSi8MKx0/K20wpRkNzpGgxwoE6C9EgP5CJkg3ZyR15F0JgNqxui6NFr1Gi9KJL5w62o0K3eVx74Ueo107CNSBWuW8dGmqPJL9zIVU311znFBF06HRII6R7l3411/ezbsOANhKVr7kZfMuA0CNCTO35YYH5YYHJZvI7O9U0l2Q7Tsuc7BHMjw3gFoV7t5Reunrcpf5D/8uP/+nvEsCqorx7fFCIEB/EQL0lyuJAB3AC9yeCRocdhocdkqs1Lnf6HhvooFeq0PvGlnydCBXN2e9zhbLXeZnx1Mt3yM9RJPjVHaUoMCCEkDD8c5MK8m7CgA1zTuFyQmlkxPS6ZPSrj2yH3ws21OQPfKpzL43864QaG7eyU1dKo9kHx9ROvGN5F3eVQG54TrmeMaa6bxrqGUE6C8RjJk2tOkA2CTnpYnJoInJVL8flPbulj46XO5OP3bUqv110nQga6vrQeeuOY2MlzvNL/7IAhJ4yAdJvNvGYcwxgMaTtrWUWjZ4RwIQYWVRfmxIfmxIksrj3nsHZPsGZLv6pBZuwASy5mdvKi2efXCX+VmFe8t5lwTUjMCIyQrQMPAiBOgvYfgAAXgFd5aloTGvobHyEbj337Y61lu+P72vy6qVpzCwJaZmvIa/TzV0PtW3V1Ktp3lXBNQmFpSVYD0AoPG8O/+LmVu7b3uJOe4AKhNmbst9eUruy1PStjbZziMy3f1KugsyBw7nXR7QEML6qty1cw8C8xG5Hy/mXRJQs4I3omEgjgk0DLwI0c1LGIVSEB2jALbG9Vte1295nTwttW2TjnSWw/SBvkTvdfCsATZrYSXom4nyWPbhCxsq3eEFGdgMQ4BeARaUABqPOXMmvfl517ykN/KuBUADWF+VL45KxVE5nSh3p3cXZHsKMt39Mjt3510hUDf8zJTS74eVnh9SeuVbKV3PuySgLtAwEC/Isd/xAgToLxHYMAOQkdV1abToNVqUTnzh1NFuVOguj3sv9Bjt2kGgDvyZ89KlKaczF1KduZBq/IYT78VAPBaU8YLEegBAQzJSKRCgA8hAmLktNzwoNzwo2URmf6eS7oJs33GZgz2SYfgF8GdhZUHpxDflLvPvh+UXWH4AleAO9HgtSnjgvAAB+kvQgQ6gWm7PBA0OOw0OOyVW6txvdLw30UCv1aF3jSyPIjSZqRmvkfFyl/nZYqrl+wR/wKsKjhVlLEaaAWhUDw4I9eRdB4AG553C5ITSyQnp9Elp1x7ZDz6W7SnIHvlUZt+beVcIVJd3clOXlI6PKL1wRu7ad1JgnQa8Kr5GFVjbPp13CbWMAP0lXEimrfjmAagu56WJyaCJyVS/H5T27pY+OlzuTj921Kr9ddJ0NJ77a0HfXXcaGXcaOr+haz/x+wtsNRMCN4JFMjawoATQkIJUYlUBoOpWFuXHhuTHhiSpPO69d0C2b0C2q09qac25QGDr+Zmp8h3m4yNKi2cV7i/nXRLQeBy7HZFWfvmvF+7mXUQtI0B/CRt8iQZ0AHm7sywNjXkNjZUDxffftjrWW74/va/LqpWnOerUtZ+8hs5vaGTcaexKqo0074qAxsaJ7Hheng50AA3JhDAtw4YHgHyFmdtyX56S+/KUtK1NtvOITHe/ku6CzIHDeZcHVCSsr8pdOyc3PqKN80PyP13LuySg4bHfEY1mgZcgcnmJVr9R2kg4+Qigtly/5XX9ltfJ01LbNulIZzlML3QnOnyATTDUrvnloNHL5bHsZy5saPoOp0OBqmKEezTLnWAAGpU1JcaSAKgp66vyxVGpOCqnE9Ibbynp+US2pyDT3S+zc3feFQLP5X+6po3zQ+Uu8yvfSul63iUBTSN48VobjevqXoYA/SUuvnZgpmv1lpdk864FAJ5ldV0aLXqNFqUTcupoNyp0l8e9F3qMdu0gUEd+nJcuTTmduZDqzIVUxRtOgTdaID+eL2CsNbvOohJAQzIyJS72AFDTZn+SGx6UGx6UbCKzv1NJd0G277jMwR7JsF2L/ITleaWXR8td5heGFe6wbADy4tnriBYUeGi9BAH6y5wyTp/fnJPUnncpALAZt2eCBoedBoedEit17i93ph/vs+o5aGTJ05GxqRmvkfFyl/lXF1OtrPISC9SK4OlAj7Q2+T8PLOZdBABkIciXxJ11AOqFdwqTE0onJ6TTJ6Vde2Q/+Fi2pyB75FOZfW/mXSEanXdyU5eUXjij9MIZuRtF0SEA1Ai2OqIZOtBfigB9E4JUMgToAOqQ89LEZNDEZKqTp6U9u6SPPyh3px87atX+OhtmeHX314K+u17uMv+371LdmuOtFahZfD1jTUuGXTEADckHM03vJoC6tbIoPzYkPzYkSTLtHbK9A7J9A7JdfVILV3Li1fmZKaXjI+Wx7MWzCveX8y4JwDNw/3k8OtBfjgB9E4w0nXcNALAVFlekoTGvobHyW0VHu9FAr9VAn1Vfl1UrvwrYBB+k8RvuYZf52JVUG2neVQF4KS86JKJxIhtA42pRWvJsCwFoEGHmttyXp+S+PCVta5PtPCLT3a+kuyBz4HDe5aFOhLX7cte/K49lP/9v8j9dz7skAJvAsL14NpB7vgwrpU0JjDUD0JBuzwSd+tLp1JdObdukI51W/d3lke+HD/DcwyPzy0Gjl8uB+dD5Dc0sEsIB9SZwJLsCgQUlgIa1tuynW3fnXQUAZGB9Vb44KhVH5XRCeuMtJT2fyPYUZLr7ZXby8MMDwcvdGH/UZX5lTEo38q4KQKTg2KeMFWgYeCkC9E0IMiViJACNbnVdGi16jRalE3LqaDcqdJfHvRd6jHbt4EnYTJyXzj8Yyz4ynqp4w9G4CtQ54/kSxzISC0oADeu9M5OrNz/vWpS0J+9aACBTsz/JDQ/KDQ9KNpHZ36mkuyDbd1zmYI9kuNCimYTleaWXRx90mQ8pLM7kXRKAV0S/QDwbGOH+MgTom2DoQAfQhG7PBA0OOw0OOyVW6txf7kw/3mfVc9DI8lhsOFMz/uFY9j9eTHV3lbANaCSBmWbROJENoOEZlRQI0AE0Ee8UJieUTk5Ip09Ku/bIfvCxbE9B9sinMvvezLtCbDXv5K6fV3rhTLnT/EaRq62ABkOAHs8Hy37HSxCgb0IItmQMP6oAmpfz0sRk0MRkqpOnpT27pI8/KHenHztq1f46aXo9urcW9M1Eucv8jxdT3Z7jbRNoaC7vAupP+SAtADSuIJWM1JV3HQCQm5VF+bEh+bEhSZJp75DtHZDtG5Dt6pNaWnMuEJXwM1OPxrJf/EphdSXvkgBkKDBxL9raa+vsd7wEAfpm2DAtvn8A8NDiijQ05jU0Vg5cO9qNBnqtBvqs+rqsWvl1qUnOS5em3MMu89HLqVICNaBp0IEezyRtJfYAACAASURBVNOBDqDBMXEPAJ4UZm7LfXlK7stT0rY22c4jMt39SroLMgcO510eniOs3XvUZf7d/5Kfu513SQCqyDsjEeLFWHv/1PWlvIuodUQcm2DlS0HchQMAz3N7JujUl06nvnRq2yYd6bTq7y6PfD98gA25PM0tBY1dSXXmQvnf4l1eJoGmxYnsaCaE6bxrAIBMBcNzDgCeZ31VvjgqFUfldEJ64y0lPZ/I9hRkuvtldu7Ou8LmFbzcjfFHXeaXRyWX5l0VgLxwLUMkUzKcOHgpAvRNSE1SSvgCAsCmrK5Lo0Wv0aJ0Qk4d7UaF7vK49/5uo907CdSztLohnbta7jAfGU9VvOF4hwRQ5ngYxEqCpwMdQEMzUolfBwDYpNmf5IYH5YYHJZvI7O9U0l2Q7Tsuc7BHMjRgZSkszSm9MlbuMr9wRuHuYt4lAagBIZCfxzKiWWAzCNA3wazfm1bLjiDmmgFAtNszQYPDToPDTomVOveXO9OP91n1HDSyPFlf2dSMfziW/T9+SHVvjbdGAH+JO8HibfhWAnQADS0wwh0AKuOdwuSE0skJ6fRJadce2Q8+lu0pyB75VGbfm3lXWP821pRe/c9yh/n4iNyNIikZgL8QuJ4yWpDY69gEAvRNuPqHQ2tdn99clLQ371oAoJ45L01MBk1Mpjp5WtqzS/r4g3J3+qdHrN7cx+bdZty5G/T1pUeB+U/z3GsM4OWMD8zniuOu/s0v5/SHvMsAgOxYmRJvkgCwBVYW5ceG5MeGJEmmvUO2d0C2b0C2q09qac25wPrgZ6YejWW/+EeF1bt5lwSgxtEsEC+EQIC+CQTom1cSAToAbKnFFWlozGtorLxt19FuNNBrNdBn1ddl1cqvlKTywYNLU+5hl/no5VQppysBRAqeiCSOmdHvDH80AA0tWDstfh8AYMuFmdtyX56S+/KUtK1NtvOITHe/ku6CzIHDeZdXM8LaPbmJb8pj2X/4D/n5n/IuCUCdCbzKRjMyBOibQDSxWSZMKxjebgAgQ7dngk596XTqS6e2bdKRzvK96YXuRIcPNFd3+uxS0NliqqHzqUbGUy3d4zQlgFcQgmg/j8WJbACNz5m0ZMWdvQCQqfVV+eKoVByV0wnpjbeU9Hwi21OQ6e6X2bk77wqrxzu5qUuPuswvj0ouzbsqAHWMAD1esATom0GAvklBptRc0Q0A5Gt1XRoteo0WpRNyeusN6ZOeRIWecqi+e2djPZVXN6RzV8sd5iPjqS7+SIs5gC3EgjKaIUAH0ATaWreX1t1G3mUAQHOZ/UlueFBueFCyicz+TiXdBdm+4zIHeyTTWAebwtKs0uJZpeeHlI6PKNxbyrskAA3EM8I9mmW/Y1MI0DepvIHWWGENANSTn2alwWGnwWGnxEqd+8ud6cf7rHoOGtk6fERPzXiNjKcavpDq7HiqNfYuAWSE8e3xAiPNADSBN09dXLn5edddSa/lXQsANCXvFCYnlE5OSKdPyuzaI/PBx7I9Bdkjn8rsezPvCuNtrCq9eq7cYT4+InejWJ6IBQAZCN6IkXtxQjDTeddQDwjQN8nIlPgKAkBtcF6amAyamEx18rS0Z5f08QdWhR6rT49YvbmvNtP0O3eDvr5U7jL/9x9S/WmeQAtAlTjeZCvAghJAUwjStJHey7sOAIAUVhYVxobkx4YkSaa9Q7a7INs3INvzidTSmnOFz+ZnppSOjyi9MKx0/Ky0sZZ3SQCaRKADPZqTo2FgEwjQN8kHTddmHAMAWFyRhsa8hsbKgXRHu9FAr9VAn1Vfl1VrTr92zkuXpsoj2UfGnb6ZSOXIzAHkgQ70aCHQgQ6gORipJAJ0AKhJYeb2o3Hv29pkO4/IdPcr6S7IHDicX1137yi99HW5y/yHf5ef/1NutQBobtyBHq9Vlv2OTSBA3yQjW+LySACoD7dngk596XTqS6e2bdKRzvK96YXuRIcPZHsc6uas19liOTA/O55q+R6nIAHkjwVlPO5AB9A0QpiWoWUAAGre+qp8cVQqjsrphMyen8v+9SeyvQMy3f0yO3dn97/tndzUpfJI9vERpRPfSN5l978HAJsUmLgXK33rV5fn9c95l1H7CNA3yQdfqsf7dQGg2a2uS6NFr9GidEJOb70hfdKTqNBTDtV373y1h/vqetC5a04j4+VO84s/soAEUHuMD9wIFskGT4AOoClwZR0A1KewOCf31R/kvvqDZBOZ/Z3lzvTuftnDH0tJ8kr/fT97U2nx7IO7zM8q3FveosoBYOswcC/ajPkd3cKbQYC+STa4ksyrvXQAAPL306w0OOw0OOyUWKlzf7kz/XifVc9Bo80clpqa8Rr+PtXQ+VTfXkm1nmZfNwC8isCKMpoLjDQD0ByCNSUFInQAqGveKUxOKJ2ckE6flNm1R+aDj2V7CrJH/ovMvl+89D8R1lflrp17EJiPyP14sQqFA8ArCA/+YfOM2OvYJAL0TWrb2F5a3U5CAgCNxHlpYjJoYjLVydPSnl3Sxx9YFXqsPj1i9ea+cpq+sBL0zUR5LPvw96lKCwRRAOpL8KwoY9kWP513DQBQDUaBDnQAaDBhZVFhbEh+bEiSZNo7ZLsLsn0Dst0FqaUcC/iZKaXfDys9P6T0yrdSup5n2QAQhV6BeFxXt3kE6Jt04V9/ebfr85t3Jb2Wdy0AgGwsrkhDY15DY17GSJ3vGLX/YlGjN1tF9gSgnjHCPVrY9cvpmbyLAIBqCDIlWncAoLGFmdtyw4Nyw4PS9jal3QUt3ZuUFm/nXRoAVIxmgXghGJoFNokAPU5J0vt5FwEAyF4I0pUbQVdnnezPWvMuBwBeCYvKaPPf/mP/Rt5FAEA1hOCmjWzeZQAAqmVtVe7cf8j/3Mq2buIeOwCoUYEO9Gjlw7PYDFZIcTiZAQAAgDoTxBiNWIw0A9A8ElmeeQAAAKg7BOjxrDzv/ptEgB6FjTQAAADUGUd4Ho8T2QCax4bfzjMPAAAAdSe4vCuoP3Sgbx4BehQ+WAAAAKgvnMiuQBDv/QCaxv5/+f6OpLW86wAAAABieKbtRaMDffMI0CMEsZEGAACAOuNJ0GPx3g+gmRgpyGgm7zoAAACAGDQMxPOB65s2iwA9gjGGO9ABAABQXziRHc0Y8d4PoNmwkQYAAID6QoAeLd2WsN+xSQToEQx3oAMAAKDeEKBHM1zdBKDZBA4OAQAAoL54x35HpDD7xs7ZvIuoFwToETx3AwAAAKDOBAL0aJ6DswCaD889AAAA1JXgTd4l1Ju5/n/8diPvIuoFAXoEq4QFJQAAAOoLAXo0w8FZAE3GEKADAACgjoQghcB+Rwze+eMQoEdYs+t8uAAAAFBfHJeCxUrVwns/gKYS2EwDAABAPSE8j8Y7fxwC9AiT//O9O5LW8q4DAAAA2KxAfh7NL69xFzCAphK4ugIAAAB1xDvGt8ciQI9DgB6PzTQAAADUDeNJ0CMtTp55bzXvIgCgmqw17HUAAACgbgSuq4tmODQbhQA9liFABwAAQP1gURkncGAWQBPysmymAQAAoG6w11EBw6HZGATosQIjDgAAAFAfWFDGM4w0A9CEWu0Gzz4AAADUjcAI92hGhnf+CATokdhQAwAAQL1gfHs83vcBNKNf9F6blZTmXQcAAACwGTQMxAvy7HdEIECPFDihAQAAgDoRyM+jBQJ0AE3I/E5e0lzedQAAAACbQb9APK5tikOAHi1wRwAAAADqg2NFGY8DswCaFs8/AAAA1AUaBuIlJuV9PwIBeqSgwAcMAAAA9YGRZtF43wfQtIJoGAAAAEB9YL8j2vqim8m7hnpCgB7JBDpSAAAAUB+4EyyeCUycAtCcjOUAEQAAAOoDI9yj3XnvzORq3kXUEwL0SEnwLCgBAABQHwjQo9mEO8EANKfAFRYAAACoE4xwj2SYNhWLAD3Shm9lQQkAAID6QIAeLTWO930ATckQoAMAAKAOeJd3BfUnSLzrRyJAj3T1b345JynNuw4AAADgpZhpFm17axuLSgBNKYgR7gAAAKgDNAtEM7zrRyNAj/U74yUzm3cZAAAAwMsw0iza/Yun3lzJuwgAyEMIjHUEAABA7WOvIx7XNcUjQK9IYFEJAACA2uc4lR0n/CnvCgAgL4k8m2oAAACoeQzbi8d1TfEI0CvDBw0AAAC1zQdJBOhxWFDi/2/vbpfjKs9131/3GJIcWzakJhgiAcEWRnHiVQYDqY2pBYiqEXsypWYVHziTfQA+Dk7BVVlgSRjjsWYMTMxOUTbOzjbITEexZohaEgnhVVb3GOO59wcJ28zwYkktPf3y/31OxVcldnc/4xr3/QC9q/KEz0AAAAC0PWeF+/p5YDB4nSjQN4ZDJQAAANobB8p1Y30xgF62OLxnSbx5BQAAgDbnwWJH6DgJAwPrRoG+MfxFAwAAQFtzdpqtGyvNAPSyJ16+UEj6R+wcAAAAwA9hAn39gnNd03pRoG+AmTGZAgAAgPZGf75uljgHSgC9js9BAAAAtDUK9PXjuqb1o0DfABcP1gAAANDemEBfP2cCHUDPY2AAAAAA7S2wwn3ddhQ/4XnHOlGgb4BRoAMAAKDNGW9krxu/8wGAz0EAAAC0uYrnHev09c/e+H+/jh2i01Cgb0AlVh0AAACgvTkHynWr3Jm8BNDTjBXuAAAAaHPOwr314jf+BlCgb0Cqir9sAAAAaG9MoK9bopTf+QB6GlfWAQAAoJ15kHjasW4MC2wABfoGDH3xwJL4NwoAAIB2RoG+bjtCQXEEoKe5cwc6AAAA2pfzrGPdnAn0DaFA34Bz56yU9I/YOQAAAIDv44GdZuvU/OP0zz+LHQIAYkoS4+EaAAAA2pYHix2h43BN08b0xQ7QwRYl/UvsEAAAAMANweXNSt4omUBfL9OSZPyPBqCnBQuL5jyUBAAAQHupSqlqBJUrsZN0Iq5p2ggK9A1yadGkX8bOAQAAgB5XBHmzlDdKeVFx0dDGcaAE0PP6LF2sxAYTAAAAxOVBqpqusuEqG6xu3wxztkxtBAX6BrHyAAAAAFFUfqMwV6OSO4fIlnB+3wNA2f/VolW7YscAAABADwqFVK6V5lXhDAi0iIsCfSMo0DfIZIvOv14AAABsMXdJxepadm+WUsFk4FbgBVkAkB44+fH1j2ujX0raEzsLAAAAuluobk6ZV02X87hjS4QkLMXO0Iko0DcoyJe4FQwAAABbogoKK6XUKOVFWGvRsZVcxoESAFYtigIdAAAALeYuhWJtLXvTFYrYiXpDqoSBgQ2gQN8gky9KVOgAAABogeDy5i1T5hWF+fZzDpQAIEmuJZkOxI4BAACAzhcqqVwJKhur5TnzAduvmTR43rEBFOgbFDxZTIx/6QAAANigIty4y9ybVew0Pc8p0AFAkmSJFnmwCQAAgI3wcHMte9l0OY87Ymvse+Xa57FDdCIK9A1KFJhABwAAwO2rwo0pczUqOe1EWzE3CnQA0DcvFPG8AwAAALcnFFJ5y13maCtLJvF/ygZQoG9QGtLFKg2xYwAAAKBNuUsqblnLXvDbsZ2lHijQAUCSyxapzwEAAPB9vLqlMG+IAYE2ZhLPOjaIAn2DvhyslnatcKQEAADATV4GqbG2lr0I4nKvztEcGFiKnQEA2kHiWuLbCwAAADe4qyp0Yy17KGIHwu1yCvQNo0DfoI9PPnB9tPbxl5L2xM4CAACASILfWMvuzUqqmDLvUNWf+u79e+wQANAOgnzRWOEOAADQ00IllStBZUMKhTMf0LGMYYENokDfnEVRoAMAAPQOl1QGeaNUaBSsZe8ef9NJq2KHAIB2kMoW+XYDAADoLR6k6pZ7zAMn5K5gcibQN4gCfXMWJR2IHQIAAABbqAo3p8wbFWvZuxMHSgBYU3m6aLxTBAAA0PXC2lr2ohFYy96lXMbzjg2iQN8c/uIBAAB0G5e8WC3M1ShX7zVHt+N3PQCs2VUVi9f7ktgxAAAA0GKhumXKvMFa9l5gCjzv2CAK9E1waZFbwQAAADqfl2G1LG+U8mbQ6q529BAOlACw5q7TV7/4uDZ6XdLO2FkAAACwCe6q1qbMy4YUSp519BpXwvOODaJA3wQzX5JToQMAAHSc4N9eyx6YMu9xHCgB4NuWJD0YOwQAAADWJ5SrZXnZcIWCKfNeV6nieccGUaBvgskW+ewBAADoAC6prBRWSnmzlAoKc9xkZkuxMwBAm6FABwAA6AAevr2WnfkA3GqgFM87NogCfROCfNHEBDoAAEBbqsLNKfNmKXGIxPdwOW9kA8C38bkIAADQjlwK5eqEedEICkXsQGhj1c/+r6t/1+nYMToTBfomJEoWnfsxAQAA2oNLXlTylVLeKKSK32m4PUaBDgDf4tIi4wIAAADtIVQ3p8zLpjMggNti0id2gr8tG0WBvgmlwmLKBDoAAEA8RZA3y7Up8yDxciM2oFJCgQ4AtzAm0AEAAOJxqSpc5YqraLi8ih0Incj5Tb8pFOibYMWuJfVdjx0DAACgZ3hw6Zu17I1KXO6FVkhVcagEgFu42ZI5L6UBAABsl1BI5dqUeWiy+xib5zKedWwCBfomXD191xejtY+vS9oZOwsAAEBXckllpbCydo95QWGOlvPdP1v6JHYIAGgniXyRh7YAAABbx4Oraq7eZV41nPkAtBzX1W0OBfrmLUl6MHYIAACArlEF+Y0p85Kt7Nhqn154+YkidggAaCer0yp8AQMAALSMS1UplStBZdMVOIViizGBvjkU6Ju3KAp0AACAjXOt3mP+zZR5xQN7bKul2AEAoN2kVi1WnsSOAQAA0NFCJVVra9nLpktMmWMbJR543rEJFOibZBJrzQAAANarCKuleaOUN4OYckMsvvpCLADgFlXSt8geUQAAgHVyqSpc5YqraLi8ih0IvYwJ9M2hQN8k1poBAAD8OA8u3bqWPfD7Ce3BKNAB4J/c979nPv1rbbSQ1B87CwAAQDsLhVSuTZmHptMWoW0ET3jesQkU6JtkcibQAQAA/jt3eRHWJsxLqWCKDe3JeCMbAP6JSf6x9Imk4dhZAAAA2okHV9XU6lr2hst53IE2lXjF845NoEDfpCBfMlnsGAAAAPFVQX7rlDlvGaIDuJwDJQB8F9OSnAIdAAD0NncpFDfvMQ9F7ETA7Sl/0sfzjk2gQN8k82RRxtNhAADQg1yr95ivlFKzlFf8JkIn8qXYCQCgHa1u3GNgAAAA9J5QSdXaWvay4QwIoBP53+7e9bfYIToZBfomJQqLgQMlAADoFUVYLc0bpbwZxCkSnY47wQDguzlXXAAAgF7ha/eYr6xOmXsVOxCwaZ8+8fIF9iVsAgX6JlWeLppxyQUAAOhSt65lb1ZSoDBHd0kUKIgA4Du4bNF4UQ4AAHSpUKyV5g1XaDq/etBVXOJZxyZRoG9SOhCWQhk7BQAAQIu4y4uwVpiXUsGLguhuaUg5VALAd0g8LLHCHQAAdAsPrqqpG2vZnccd6GJGgb5pFOibNPO/7/t0tPbXQlJ/7CwAAAAb8s2U+cralLnz3jV6x5eDFXegA8B3YIU7AADoZO5SKNbuMW+6Asus0UucAn2zKNA3zVz6+BNJw7GTAAAA3JbgN9ayq1HKWcuOnuVffHzygeuxUwBAO0oUFoOS2DEAAABuW6ikam0te9lwsZcdvcsp0DeJAr01FkWBDgAA2lkR5M1ydTV7UXGIBMR0JQD8kODJIhvcAQBAO/NwS2HelLziYQcgSUp43rFZFOgtYYs8hQYAAG3lm7XsjbW17EyZA/+EO8EA4PsVoX+xP2XXKQAAaC+hkMq10jw0nWYG+A7mxnV1m0SB3hKsQgAAAHG5Syq+KcxLqQixIwGdgAMlAHyPfYOXP/nrymiQ2OMOAADiuXUte9V0OY87gB/lCvSWm0SB3gJmvuTOXjMAALDNqqCwsnaPeRHWWnQAt8uZQAeA72UnVX1c06eS7o6dBQAA9A53KRTfrGV3BRbiAOsWuLJu0yjQW4C7EwEAwLYIfsta9lLibi9gU8z5HQ8AP8SkRadABwAAW+zGlPnK2pQ5jzuATelTyfOOTaJAbwGTL7qYQAcAAFugCPJmefMucwAt41zFBAA/aG1Tx6HYOQAAQHfxcHMte9mQPNCYA63U+DJwZd0mUaC3QFCyaOIDHgAAtEDlNwpzNSo5r10DW8Yo0AHgB7m0yLgAAABohVBI5Td3mRcuKhVgy3y+/9y1ldghOh0FegskCkygAwCADXGXVNyylr0IsSMBPcOShDeyAeAHrL5oxPMOAACwfl7dUpg3xIAAsF1MDAu0AAV6C/SV5VKR9seOAQAAOkUVFFZKqVHKiyAu9wLiKBU4VALADzFbYjoMAADcFndVhVbXsjddoYgdCOhRLoYFWoACvQUuD+77ZHTlr5WkNHYWAADQhoLLm9XNe8wrpsyBdtCnn1CgA8APMNmi06ADAIDvESqpXAkqG1IonPkAoC0YzzpagAK9FU5apdrHn0raGzsKAABoE0WQN0qFRsFadqA9Xb9yau+XsUMAQDtzBVa4AwCAGzxI1dpa9rLp8ip2IgD/zCnQW4ACvUVcWjQKdAAAelcVbk6ZNyrWsgPtjwMlAPyIoGQxYQIdAICeFopb7jJv8rsAaHfG846WoEBvkbW/kP8jdg4AALA93CUVq4W5GqW8ZMoc6DAcKAHgR6RWLrpzWx0AAL0kVDenzKsGa9mBTuNMoLcEBXqLcC8YAADdz8uwWpY3SnkRmDIHOpg7BToA/Jjlpi3t7JOLPe4AAHQvd1WFbqxlD0XsQAA2I+EO9JagQG+RIF/iNAkAQJcJ/u217IEpc6BbGAdKAPhRD5++2vi4NvqFpDtjZwEAAK0TSlfZWC3NQ8GUOdBNPEmWYmfoBhToLWLyRV7IBgCgw7mkMsgbpUKjkAoKc6BbmTkHSgC4HaZFOQU6AACdzMMta9mbrlDFTgRgq1RWMjDQAhToLeKeLJrxmhYAAB2nCjenzJulRGcO9ITAnWAAcFtcWjRpNHYOAACwDi6FcnXCvGgE1rIDPeQn/Tt43tECFOgtYgpMoAMA0Alc8qKSr5TyRiFVvAAH9CLuBAOA28PGPQAAOkOobpkyb7CWHehNtnzPyctfxU7RDSjQWyTxdDEYI2sAALSlIsib5dqUedDqrnYAvaxiAh0AbovLFqnPAQBoQy5VxWphXjZW7zUH0NucZx0tQ4HeIkWfL6X05wAAtAUPLn2zlr1RSYEvaQDflijlUAkAtyFxLfE4HgCA9hDK1bK8bLhC0xkPAPAtJvGso0Uo0FvEmstL6tvpYq8ZAADbzyWVlcLK2j3mBYU5gB/W36yWYmcAgE7grHAHACAaD66qqRtr2ZkPAPBDnAK9ZSjQW+Tq6Ycbo7WPP5f009hZAADoCVWQfzNl3iwlDpEAbl9x+cz9/4gdAgA6QSJb5GcWAADbxKWqlMqVoLLpCkXsQAA6SeJiWKBFKNBba1EU6AAAbA2XvKjkK6W8UUgVi8oAbNiSZHyIAMBtCB4WZUnsGAAAdK1QSVVz7S7zpjMgAGDDPDEm0FuEAr2lbFHyX8ROAQBA1yiCvFmuTZkHidu9ALQAd4IBwO2rPFlM2eAOAEDruFQVrnLFVTRcXsUOBKBbmJznHS1Cgd5S/MUEAGAzPLj0zVr2RikFCnMArcedYABw+3bu6l9qrrA/FgCAzQiFVK5NmYemMx4AYEu4mEBvFQr0VjJfkvNaNgAAt81dXoSb95gX7CkDsC3+HDsAAHSKe05e/urj2ujXkgZjZwEAoFN4cFVNqWy4qoYr8LgDwNYr5dVfYofoFhToLdT8ovy/B+4ceEVBmcwzuR6TRKMOAMCtqiC/dcqc164BbDGTlt113sxzC2k+Mz18IXYmAOgkfX3VSFn1PSv3TFJN0lDsTAAAtBWXqlIqV4LKpiuwvAXANnDpzyadlVleJI2z+1+59lnsTN2CcncL7X9h8d4BFc+4qyZpXNK/xM4EAFgf29Wv5I6fxI7R2Vyr95ivrE2ZVzTmALbFrMmmPNFkaC6/ffX0w43YgQCgG/gJJfX3Dh6pEs/MPZPpGUkDsXMBANZn8K5EST/1wGaESqrW1rKXDWdAAMA2sGW5n3ezPA2WD0/PMCCwRfiG3C4nPDn4Xv2IJ1XmbplMz0rqjx0LAPDDKNA3qAirpXmjlDeDOEUC2AZ/k/Q7mXIFn/5o6oG/xg4EAL1g4djhwWrnylEFq7n8BUn7YmcCAPw4CvQN8LV7zFdcZdPlVexAAHrErMmmlPjkcjO8/fDpqwwIbAO+ISM59NLS7sb14rnEfELScUkPxs4EAPhnFOi3x4NLt65lDxTmALZcJdMlyaeSKp2c+fXQ+zph3CwIAJHNjY+OpKkyuTKXjpt0R+xMAIB/RoF+e0KxVpo3XKHpjAcA2A43BwSK8Nr9p69+HDtQL+Ibsk2Mjs+NKE0zuTJJ/yppT+xMAAAK9O/lLi/C2oR5KRV0VgC2xayk3Ex5saPxxuzJhz6PHQgA8P18bKyvvmf+SZcm3JTJ9Zh4FgUAbYEC/bt5cFVN3VjL7jzuALD1KpkumSs3aWro8Y/O2wnx6RMZ35BtaN/Yn38ycOfA/1RQJnMOmAAQEQX6Laogb1Zrd5lXkvPeNYCtZdKyu86beV4lfZNXXx36IHYmAMDGLbz40D1l1fes3DNJNUlDsTMBQK+iQF/lLoVi7R7zpisUsRMB6BGzknKZ5UXSOLv/lWufxQ6Eb+MbsgPsf2Hx3gEVz7irJmlc0r/EzgQAvaKnC/Tgq4V5o5SapbyiMAewHfwDKZlUojw0l9++evph7vYCgC7kJ5TU3zt4pEo8M/dMpmckDcTOBQC9opcL9FBJ1dpa9rLhYi87gK1ny3I/72Z5Giwfnp65EDsRflhvfkN2shOeHHyvfsSTKnO3TKZnJfXHjgUA3arnCvQiyJvl2mr2IE6RALbBJ5LOyZSbwtSVUz+fjx0IALD9Fo4d6ptjawAAIABJREFUHqx2rhxVsJrLX5C0L3YmAOhmPVWg+9o95iuusikGBABsC5c+SKRJJcqXm+Hth09fZUCgg/TIN2T3OvTS0u7G9eK5xHxC0nFJD8bOBADdpOsL9G/WsjfW1rIHDpEAtlwp0x8kn0qqdHJmeuiiZHz4AAC+ZW58dCRNlcmVuXTcpDtiZwKAbtLtBXoo1krzhis0nfEAANvhxoCAB00/MPXRX2MHwsZ17zdkjxodnxtRmmZyZZL+VdKe2JkAoJN1XYHuLi/CWmFeSkWInQhAb5iVlJspr4qdZ66evuuL2IEAAJ3Dx8b66nvmn3Rpwk2ZXI+JZ1oAsCndVqDfupa9arqcxx0Atl4p0x9cmkqrZHLo1zPv2wnx6dMluucbEv9k39iffzJw58D/VFAmcw6YALABXVGgfzNlvrI2Ze68dw1gy30t17uW+JS8/9SVyZ/9OXYgAED3WHjxoXvKqu9ZuWeSapKGYmcCgE7T6QW6uxSKtXvMm65QxE4EoEfMSsplljd2FG88dHL289iBsDU69xsS67b/hcV7B1Q8465Mshck/1nsTADQ7jqyQA9+Yy27GqWctewAtl6Q6X255UqU9w989tblk4easUMBALqfn1BSf+/gkSrxzNwzmZ6RNBA7FwC0u04s0G9Mma+sTZnzuAPA1vtarnfdLE9DODU8/Z8fxg6E7dFZ35BonROeHHyvfsSTKnO3TKZnJfXHjgUA7aZjCvQiyJvlzbvMAWDrLUl6U6Y87SsnP/ztvnrsQAAALBw7PFjtXDmqYDWXvyBpX+xMANCOOqFA93BzLXvZEAMCALaFSx8k0qQS5Z8N9L916ORlBgR6UHt/Q2LbHHppaXfRLJ60oJrL/5ekB2NnAoB20LYFeuU3CnM1KjmvXQPYeqWk35t80kKaz0wPXZSMDx8AQFubGx8dSVNlcmUuHTfpjtiZAKAdtGuBHgqp/OYu88IlThwAtt6NAYEgm/r5qSvzsQMhvvb7hkRbGB2fG1GaZnJlkv5V0p7YmQAghnYp0N0lFdXahHkpFSF2JAC9YVZSbqa8KnaeuXr6ri9iBwIAYKN8bKyvvmf+SZcm3JTJ9Zh4NgagR7VLgR6CVDXWCvOGGBAAsB1KSb932WQaLB+anrlovK6D/yb+NyTa3tiY983vqT8p+YTMOWAC6ClRC/QqKKys3WNeBHG5F4Bt8LVc71riU5b0vTrzytC12IEAANgqCy8+dE9Z9T0r90xSTdJQ7EwAsF2iFejuqgqtrmVvukKx/REA9KRZSbnM8p1Fdeau01cZEMAPogTFuj304sI9fVX5rK9Op3PABNDVtrVADy5v3jJlXlGYA9hyQab35ZYrUd4/8Nlbl08e4m4vAEDP8RNK6u8dPFIlnpl7JtMzkgZi5wKArbKdBXqopHIlqGxIoXDmAwBsh6/letcTm+pL7NWhV2auxQ6EzkKBjs054cnB9+pHPKkyd+OACaDrbHmBXoQbd5l7s9q6PwcAblqU9JZcU/2FT10+88CnsQMBANBuFo4dHqx2rhxVsJrLX5C0L3YmAGilrSzQPUjV2j3mZdPlPO4AsPWCTO+bK1ei/LOB/rcOnbzMgAA2jAIdLXX42MLgys7qqAXVXP6/JD0YOxMAbEbLC/Qq3Jwyb1SsZQewHVbk+g8zzy2k+cz00EXJ+PABAGAd5sZHR9JUmVyZS8dNuiN2JgDYjFYX6KGQyrXSvGpy3ACwLZYkvSlTXvalk/t++2E9diB0Dwp0bKnR8bkRpWmm1XXv/yppT+xMALAemy3Q3SUVq4W5GqW8DK0LBwDfb1ZSbqZc2vH6lVN7v4wdCACAbuFjY331PfNPujThpkyux8QzNgAdZrMFeqhuTplXDckZEACw9UpJv3fZZBosH5qeuWgSHz7YEvy4x7YZG/O++T31JyWfkDkHTAAdYSMFupdhtSxvlPIiMGUOYDt8JemcTJNpmZz58LXhudiBAADoFQsvPnRPWfU9K/dMUk3SUOxMAPBj1l2gu6sqdGMteyi2LhsA3GJWUi6zfIf0+t5TVxgQwLagvEQ0D724cE9fVT7rq9PpHDABtKXbKtCD31zL3qykiilzAFuukumS3HIlyvfcW3/zwstP8AgLAIDI/ISS+nsHj1SJZ+aeyfSMpIHYuQDgv7udAj1UUrkSVDakUDjzAQC2w40BgaRMzwy/9iEDAoiCAh3t4YQnB9+rH/GkytyNAyaAtvGdBbpLKoO8USo0CqmgMAewLRYlvSXXVH/hU5fPPPBp7EAAAOCHLRw7PFjtXDmqYDWXvyBpX+xMACB9d4Hu4Za17E1XqCKFA9BLKpkumStXorx+7543n3j5AgMCiI4CHW3p8LGFwZWd1VEL4oAJIKobBXoVbk6ZNyrWsgPYDtflesfMcwtpPjM9dFEyPnwAAOhgc+OjI2mqTK7MpeMm3RE7E4DeNHhXoqTPFMrVtexFI7CWHcB2uTEg4EX/1ANnLjMggLZDgY6OMDo+N6I0zeTKJD8uGQdMANvC0kQulyo6KwDbYlZSHtymyq+aZ6+d278SOxAAANgaPjbWV98z/6RLE27K5HpMPKsDsE3SAVNV+OqWPQDYWtflesfN8jRYPjQ9c9H49EGb40c5Os7YmPfN76k/KfmEzDlgAgCATvZ3Sf8uU1568vrs5PB/xQ4EAADiWHjxoXvKqu9ZuWeSJiQNx84EAACwQbOScpnlO6TX95668mXsQMB6UDqi4z304sI9fVX5rLsySTVJQ7EzAQAAfI9Kpktyy5Uo33Nv/c0LLz/BokQAAPAtfkJJ/b2DR6rEM3PPZHpG0kDsXAAAAN/jK0nnZJpMvHx9eHKWAQF0NAp0dJcTnhx8r37EkypzNw6YAACgDdiC5GfNNDlQVfkfpx/8R+xEAACgsywcOzxY7Vw5qmC1IK+ZtD92JgAA0NMqmS6ZK1eivH7vnjefePkCAwLoGhTo6GqHjy0MruysjlpQzeUvSNoXOxMAAOh61+V6x8xzC2k+Mz18IXYgAADQXebGR0fSVJlcmUvHTbojdiYAANDdTFpw6azMJqtqIH9w+o8MCKBrUaCjp4yOz40oTTO5MsmPS8YBEwAAtMKspDy4TZVfNc9eO7d/JXYgAADQG3xsrK++Z/5JlybclMn1mHjmBwAANu+6XO+4WZ4Gy4emZy6a5LFDAduBH9PoWWNj3je/p/6k5BMy54AJAADW42+SfidTXpmd/tOr9/0ldiAAAABJqj9/YG/Vn47JPZM0IWk4diYAANAxZiXl5mGq+VV5dv+5awwIoCdRFgJrHnpx4Z6+qnzWXZmkmqSh2JkAAEDbqGS6JLdcsqmPHh86rxMWYocCAAD4MXO1A4cSpRPmnsn0jKSB2JkAAEDb+Lukf5cpN6tO3/fqnxgQAESBDny3E54cfK9+xJMqczcOmAAA9CT/s2RnzZQ3kuLstVf2fxY7EQAAwGYsHDs8WO1cOaqgzKUXJP0ydiYAALCtKpkumStXonz48+Fzdu5cGTsU0G4o0IHbcPjYwuDKzuqoBdVc/oKkfbEzAQCA1jJp2V3nzTy3kOYz08MXYmcCAADYSnPjoyNpqkyuzKXjJt0ROxMAAGi5uqRcZpNF0ji7/5VrDAgAP4ICHdiA0fG5EaVpJlcm+XHJOGACANCZZk025YkmQ3P57aunH27EDgQAABCDj4311QcXHqnSUDNpQq7HxLNDAAA6kC3L/byb5WmwfHh6hgEBYJ34EQxs0tiY983vqT8p+YTMMw6YAAC0tb9J+p1MeSj02tXT938cOxAAAEA7qj9/YG/Vn47JPZM0IWk4diYAAPC9Zk02pcQnl5vh7YdPX2VAANgESj6gxR56ceGevqp81l2ZpJqkodiZAADoYZVMl+SWSzb10eND53XCQuxQAAAAnWauduBQonTC3DOZnpE0EDsTAAA97MaAgIrw2v2nrzIgALQQBTqwlU54cvC9+hFPqszdOGACALA9ZiXlZsqLHY03Zk8+9HnsQAAAAN1k4djhwWrnylEFZS69IOmXsTMBANDlKpkumSs3aWro8Y/O2wkxIABsEQp0YBsdPrYwuLKzOmpBNZe/IGlf7EwAAHQ6k5bddd7M8yrpm7z66tAHsTMBAAD0krnx0ZE0VSZX5tJxk+6InQkAgC4wKymXWV4kjbP7X7n2WexAQK+gQAciGh2fG1GaZnJlkh+XjAMmAAC3xT+QkkklykNz+e2rpx/mbi8AAIA24GNjffXBhUeqNNRMmpDrMfEMEgCA22DLcj/vZnkaLB+enrkQOxHQq/jxCrSJsTHvm99Tf1LyCZlnHDABAPiWTySdkylX8OmPph74a+xAAAAA+HH15w/srfrTMblnkiYkDcfOBABAG5k12ZQSn1xuhrcfPn2VAQGgDVDOAW3qoRcX7umrymfdlUmqSRqKnQkAgG1UyvQHyaeSKp2c+fXQ+zph3O0FAADQ4eZqBw4lSifMPZPpGUkDsTMBALCNbgwIeND0A1MfMSAAtCEKdKATnPDk4Hv1I55UmbtxwAQAdKtZSbmZ8mJH443Zkw99HjsQAAAAts7CscOD1c6VowrKXHpB0i9jZwIAoMVKmf7g0lRaJZNDv555306IAQGgzVGgAx3o8LGFwZWd1VELqrn8BUn7YmcCAGADvpbrXTPPQ0hP/ef08IexAwEAACCeufHRkTRVptVtfMck3Rk7EwAAGzArKZdZ3thRvPHQyVkGBIAOQ4EOdIHR8bkRpenaAdOPS3ZH7EwAAHyHINP7csuVKO8f+OytyycPNWOHAgAAQPvxsbG++uDCI1UaaiZNyPWYeJYJAGhPX8v1rpvlfUk1OfTq1Q9iBwKwOfzoBLrM2Jj3ze+pPyn5hMwzDpgAgMiWJL0pU24KU1dO/Xw+diAAAAB0nvrzB/ZW/emY3DNJE5KGY2cCAPQulz5IpEklyj8b6H/r0MnLDAgAXYRSDehyD724cE9fVT7rq+vPOGACALZaKen3Jp+0kOYz00MXJfPYoQAAANBd5moHDiVKJ8w9k+kZSQOxMwEAutonks7JlAfZ1M9PXWFAAOhiFOhALznhycH36kc8qTJ344AJAGiVWUm5mfKq2Hnm6um7vogdCAAAAL1j4djhwWrnylEFZUGqmfSr2JkAAB2vlOkPLk2lVTI5ND1z0SQGBIAeQYEO9LDDxxYGV3ZWRy2o5go1yfbHzgQA6Ahfy/WuJT5lSd+rM68MXYsdCAAAAPjG3PjoSJoq0+o2vmOS7oydCQDQEWYl5TLLdxbVmbtOX2VAAOhRFOgAbhgdnxtRmq4dMP24ZHfEzgQAaAtBpvfllitR3j/w2VuXTx7ibi8AAAC0PR8b66sPLjxSpaFm0oRcRyQlsXMBANrC13K964lN9SX26tArM9diBwLQHijQAXynsTHvWxisPxLSqibZhFyPic8MAOglS5LelClP+8rJD3+7rx47EAAAALBZ9ecP7K360zG5Z5LGJd0XOxMAYNsEmd43V65E+WcD/W8dOnmZAQEA/4QyDMBtOfB8fW/aX4356vqzCUnDsTMBAFpqRa7/MPPcQprPTA9dlIy7vQAAANDV5moHDiVKJ8w9k+kZSQOxMwEAWurGgEDZl07u++2HDAgA+FEU6AA25EBt7lCqZMLdOGACQOealZSbKZd2vH7l1N4vYwcCAAAAYlk4dniw2rlyVEFZkGom/Sp2JgDAupWSfu+yyTRYPjQ9c9EkBgQArAsFOoBNO3xsYXBlZ3VUQZnkL0j6ZexMAIDv9JWkczJNpmVy5sPXhudiBwIAAADa1dz46EiaKtPqNr5jku6MnQkA8J1mJeUyy3dIr+89dYUBAQCbQoEOoOVGx+dGlKZrB0w/LtkdsTMBQI+qZLokt1yJ8j331t+88PITRexQAAAAQKfxsbG++uDCI1UaaiZNyHVEUhI7FwD0qK/k+n88sam0TF4Zfu1DBgQAtBQFOoAtNTbmfQuD9UdCWtUkm5DrMfHZAwBbaVHSW3JN9Rc+dfnMA5/GDgQAAAB0m/rzB/ZW/emY3DNJ45Lui50JALpYkOl9c+VKlNfv3fPmEy9fYEAAwJahxAKwrQ48X9+b9ldjvrr+bELScOxMANDhrsv1jpnnFtJ8ZnroomTc7QUAAABso7nagUOJ0glzz2R6WtKO2JkAoMPdGBDwon/qgTOXGRAAsG0o0AFEdaA2dyhVMuFumUzPSBqInQkAOsCspNxMed+OgdOXT97zVexAAAAAAFbN14Z3ebL7KQVlQaqZ9KvYmQCgA1yX6x03y9Ng+dD0zEWTGBAAEAUFOoC2cfjYwuDKzuqogjLJX5D0y9iZAKBN/F3Sv8uUl568Pjs5/F+xAwEAAAC4PXPjoyNpqkyr2/iOSbozdiYAaBOzknKZ5Tuk1/eeuvJl7EAAIFGgA2hjo+NzI0pTDpgAelEl0yW55UqU77m3/uaFl5/gbi8AAACgw/nYWF99cOGRKg01kybkOiIpiZ0LALbJV5LOyTSZePn68OQsAwIA2hIFOoCOMDbmfQuD9UdCWtUkm5DrMfEZBqCr2ILkZ800OVBV+R+nH/xH7EQAAAAAtlb9+QN7q/50TO6ZpHFJ98XOBAAtVMl0yVy5EuX1e/e8+cTLFxgQAND2KJ8AdKQDz9f3pv3VmK9Op09IGo6dCQDW6bpc75h5biHNZ6aHLkrG3V4AAABAD5urHTiUKJ0w90ympyXtiJ0JANbDpAWXzspssqoG8gen/8iAAICOQ4EOoCscqM0dSpVMuFsm0zOSBmJnAoDvMCspD25T5VfNs9fO7V+JHQgAAABAe5qvDe/yZPdTCsqCVDPpV7EzAcB3uC7XO26Wp8HyoemZiyYxIACgo1GgA+g6h48tDK7srI4qKJP8BUm/jJ0JQM/6u6R/lymvzE7/6dX7/hI7EAAAAIDONDc+OpKmyrS6je+YpDtjZwLQs2Yl5eZhqvlVeXb/uWsMCADoKhToALre6PjciNKUAyaA7VDJdEluuRLlw58Pnzt3zsrYoQAAAAB0F39JaX354KNVGmomTch1RFISOxeArnVjQMCsOn3fq39iQABAV6NAB9BTxsa8b2Gw/khIq5pkE3I9Jj4LAWyK/1mys2bKG0lx9tor+z+LnQgAAABAb6k/f2Bv1Z+OyT2TNC7pvtiZAHS0SqZL5roxIGDnzjEgAKBnUBoB6GkHnq/vTfurMV+dTp+QNBw7E4D2ZtKyu86beW4hzWemhy/EzgQAAAAAt5qrHTiUKJ0w90ympyXtiJ0JQHszacGlszKbrKqB/MHpP/4jdiYAiIUCHQBucaA2dyhVMuFumUzPSBqInQlAW5g12ZQnmgzN5bevnn64ETsQAAAAANyO+drwLk92P6WgLEg1k34VOxOAtnBdrnfcLE+D5cPTMwwIAMAaCnQA+B6Hjy0Mruysjiook0JNMg6YQO/4m6TfyZSHQq9dPX3/x7EDAQAAAEArzI2PjqSpMq1u4zsm6c7YmQBsm1mTTSnxyebnzf/Yf+7aSuxAANCOKNAB4DaNjs+NKE05YALdqZLpktxyyaY+enzovE5YiB0KAAAAALaSv6S0vnzw0SrxzOQ1SUclJbFzAWiZGwMCKsJr95++yoAAANwGCnQA2ICxMe9bGKw/EtKqJtmEXEfEARPoNLOScjPljaQ4e+2V/Z/FDgQAAAAAMc3XRu8OZs/JPZM0Lum+2JkArEsl0yVz5SZNDT3+0Xk7IQYEAGCdKNABoAUOPF/fm/ZXY746nc4BE2hDJi2767yZ5xbSfGZ6mLu9AAAAAOAHzI2PjiSp1Sz4hExPS9oROxOAb3PpzyadlVleJI2z+1+5xoAAAGwSBToAbIEDtblDqZIJd8s4YAIx+QdSMqlEeWguv3319MON2IkAAAAAoBPN14Z3ebL7KQVlbsrkejx2JqA32bLcz7tZngbLh6dnGBAAgBajQAeALTZcm9+1O/GnFJRJoSbZr2JnArrYJ5LOyZQr+PRHUw/8NXYgAAAAAOhGc+OjI2mqTKvb+I5JujN2JqCLzZpsSolPLjfD2w+fvsqAAABsIQp0ANhmo+NzI0pTDphAa5Qy/UHyqaRKJ2d+PfS+Thh3ewEAAADANvKXlNaXDz5aJZ6ZvCbpqKQkdi6gg/1N0u9kyj1o+oGpjxgQAIBtRIEOABGNjXnfwmD9kZBWNckm5DoiDpjAj5mVlJspL3Y03pg9+dDnsQMBAAAAAG6ar43eHcyek3smaVzSfbEzAW2ukumSS1NplUwO/XrmfTshBgQAIBIKdABoIweer+9N+6sxX51O54AJrPparnfNPA8hPfWf08Mfxg4EAAAAALh9c+OjI0lqNQs+IdPTknbEzgS0gVlJuczyxo7ijYdOzjIgAABtggIdANrYgdrcoVTJhLtlHDDRW/wDKZlUorx/4LO3Lp881IydCAAAAACwefO14V2e7H5KQZmbMrkej50J2B62LPfzbpb3JdXk0KtXP4idCADw3SjQAaBDDNfmd+1O/CkFZVKoSfar2JmAFlqS9KZMuSlMXTn18/nYgQAAAAAAW29ufHQkTZVpdRvfbyT9NHYmoFVc+iCRJpUoX26Gtx8+fbUROxMA4MdRoANAhxodnxtRmn5zwDwm6c7YmYB1KCX93uSTFtJ8ZnroomQeOxQAAAAAIB5/SWl9+eCjVeKZyWuSjkpKYucC1uETSedkyoNs6uenrjAgAAAdiAIdALrBS54eXK4/GtKqJtmEXEfEARPtZ1ZSbqa8KnaeuXr6ri9iBwIAAAAAtK/52ujdwew5uWeSxiXdFzsT8N+UMv3Bpam0SiaHpmcumsSAAAB0OAp0AOhCB56v7037qzFfnU7ngIlYvpbrXUt8ypK+V2deGboWOxAAAAAAoHPNjY+OJKnVLPiETE9L2hE7E3rSrKRcZvnOojpz1+mrDAgAQJehQAeAHnCgNncoVTLhbhkHTGyhINP7csuVKO8f+OytyycPNWOHAgAAAAB0n/na8C5Pdj+loMxNmVyPx86ErvW1XO96YlP9rlM/m7zy59iBAABbiwIdAHrMcG1+1+7En1JQJoWaZL+KnQkdbUnSmzLlaV85+eFv99VjBwIAAAAA9J658dGRNFWm1W18v5H009iZ0LGCTO+bK1ei/LOB/rcOnbzMgAAA9BAKdADocaPjcyNK028OmMck3Rk7E9paKen3Jp+0kOYz00MXJeNuLwAAAABA2/CXlNaXDz5aJZ6ZvCbpqKQkdi60tRsDAmVfOrnvtx8yIAAAPYwCHQBw00ueHlyuPxrSqibZhFxHxAETa3d7mSmXdrx+5dTeL2MHAgAAAADgds3XRu8OZs/JPZPp3+S6P3YmRFdK+r3LJtNg+dD0zEWTGBAAAEiiQAcA/IADz9f3pv3VmK9Op49Lui92JmyLrySdk2kyLZMzH742PBc7EAAAAAAArTI3PjqSpFaz4BMyPS1pR+xM2BazknKZ5TuL6sxdp69+ETsQAKA9UaADAG7b6PjciKVJzYNxwOwulUyX5JYrUb7n3vqbF15+oogdCgAAAACArTZfG97lye6nFJS5KZPr8diZ0DJfy/WuJzbVl9irQ6/MXIsdCADQGSjQAQAbMlyb37U78acUlMmcA2bnWZT0llxT/YVPXT7zwKexAwEAAAAAENtC7Rf7S/PfaHUb328k/TR2Jty2INP75sqVKP9soP+tQycvN2OHAgB0Hgp0AEBLjI7PjShNs7UD5jFJd8bOhG+5Ltc7Zp5bSPOZ6aGLknG3FwAAAAAA38NfUlpfPvholXhm8pqko5KS2LnwLTcGBLzon3rgzGUGBAAAm0aBDgBovZc8Pbhcf9STKnMZB8x4ZiXlZsqlHa9fObX3y9iBAAAAAADoVPO10buD2XNyz2T6N7nuj52pB63I9R9ulqfB8qHpmYsmMSAAAGgpCnQAwJYbrc3fbRae89Xp9HFJ98XO1KW+knROpsnSk9dnJ4f/K3YgAAAAAAC61dz46EiSWs2CT8j0tKQdsTN1qVlJuczyHdLre09dYUAAALClKNABANtudHxuxNKk5sE4YG5OJdMlueVKlO+5t/7mhZefKGKHAgAAAACg18zXhnd5svspBWVuyuR6PHamDnZjQCAp0zPDr304FzsQAKC3UKADAKIars3v2p34UwrKZM4B80fZguRnzTQ5UFX5H6cf/EfsRAAAAAAA4NsWar/YX5r/Rqvb+H4j6aexM7WxSqZL5sqVKK/fu+fNJ16+wIAAACAaCnQAQFsZHZ8bUZpmawfMY5LujJ0psutyvWPmuYU0n5keuigZd3sBAAAAANAh/CWl9eWDj1aJZyavSToqKYmdK7JFSW/JNeVF/9QDZy5/GjsQAADfoEAHALSvlzw9uFx/1JMqc1kvHTBnJeXBbar8qnn22rn9K7EDAQAAAACA1pivjd4dzJ6TeybTv8l1f+xM2+C6XO+4WZ4Gy4emZy6axIAAAKAtUaADADrGaG3+brPwnK9Op49Lui92phb5u6R/lymvzE7/6dX7/hI7EAAAAAAA2B5z46MjSWo1Cz4h09OSdsTO1CKzknLzMNX8qjy7/9w1BgQAAB2BAh0A0LFGx+dGLE1qHqzTDpiVTJfklitRPvz58Llz56yMHQoAAAAAAMQ1Xxve5cnupxSUuSmT6/HYmdbhxoBA4uXrw5Oz/xU7EAAAG0GBDgDoCsO1+V27E39KQZnM2/GAWZeUm2lyoKryP04/+I/YgQAAAAAAQHtbqP1if2n+G61u4/uNpJ/GznSLSqZL5sqVKK/fu+fNJ16+UMQOBQDAZlGgAwC60uj43IjSNIt1wDRp2V3nzTy3kOYz08MXtvPPBwAAAAAA3cVfUlpfPvholXhm8pqko5KS7cxg0oJLZ2U2WVUD+YPTf2RAAADQdSjQAQDd7yVPDy7XH/Wkyly2lQfMWZNNeaLJ0Fx+++rphxtb8GcAAAAAAABovjZ6dzDMgwUbAAABD0lEQVR7Tu6ZTP8m1/1b8Mdcl+sdN8vTYPnw9AwDAgCArkeBDgDoOaO1+bvNwnPu2uwB82+SfidTHgq9dvX0/R+3MicAAAAAAMDtmhsfHUlSq1nwCZmelrRjg/9Vs5Jy8zDV/Ko8u//ctZUWxgQAoO1RoAMAet7o+NyIpUnNg/3YAbOS6ZLccsmmPnp86LxOWNjOrAAAAAAAAD9mvja8y5PdTykoc1Mm1+M/8B+/MSBgVp2+79U//WW7cgIA0I4o0AEAuMWhl5Z2N64XzyVJOC6345ISl86YkjfM+v/PlVN7v4ydEQAAAAAAYD0War/YX3o47mbHTXrGpP/P5W8ES8488NiVi3ZCDAgAALDm/wcK+C0WN+p0KQAAAABJRU5ErkJggg==;" vertex="1" parent="GgMLfgmkicdNKZzxbHs8-12">
          <mxGeometry x="-18.1" width="165.25" height="107" as="geometry" />
        </mxCell>
        <mxCell id="GgMLfgmkicdNKZzxbHs8-20" value="" style="group" connectable="0" vertex="1" parent="1">
          <mxGeometry x="470" y="190" width="340" height="315" as="geometry" />
        </mxCell>
        <mxCell id="GgMLfgmkicdNKZzxbHs8-16" value="バックエンド" style="swimlane;" vertex="1" parent="GgMLfgmkicdNKZzxbHs8-20">
          <mxGeometry x="10" y="130" width="320" height="185" as="geometry" />
        </mxCell>
        <mxCell id="GgMLfgmkicdNKZzxbHs8-21" value="" style="group" connectable="0" vertex="1" parent="GgMLfgmkicdNKZzxbHs8-16">
          <mxGeometry x="57" y="21.5" width="252" height="150" as="geometry" />
        </mxCell>
        <mxCell id="utUIKrU_M130MY80s2PG-5" value="" style="shape=image;verticalLabelPosition=bottom;labelBackgroundColor=default;verticalAlign=top;aspect=fixed;imageAspect=0;image=data:image/png,UklGRuYoAABXRUJQVlA4TNooAAAvacIxEDWHg7aRJCnmD3u+1fUBiIgJ6JL+pM2zwRsKw4q+HUI33AzFBlKxM7ytNUwJ0b2aU6lgsa0pa99OiL6wjti3ujCrL0etT40KXpq0f6lv6jeCChcGdqAvB6xtOJhSbfZVlvJHl+F6dDnltUt/8t84zITpAoBTkiX92T6vMiOSpYyofD5lq20nw45kGJWRlc5IFp6tsk5HRnxx7/fdjHdurSKbb9UPbVY1o929shltO3fdtW1ubdvG0raZvbJt29bYts2arW2rzvwA845yGGPu+hwjxp5p5jmzVYyttu/uG+/qvNV4qAsAqKS59uT3332AlV0cMOAUwqGxMFBxPWvl3NeuuwzfkiRZkiTZltxZ9CKqaresW/f/f6ZLrq3t2B4js9////wVxJ24A1tTpwCPrBI4tguwbVyjOLk3JUZuJEmSmwaIQfRUVS/6qDO792tb27Zj25VF6TvepluxsQBhfoymWoLW4PltG+HfslsY/njf67nu63n+92nqHsi2XVNjKtu2bdu2zYGMO87Ztm3btm3bdl+27RrKtl1D2TXMbBvf9mXbtm192abc2rZV10nvvMY63YzOe2KWnpg+M3Pq0NV4DAmybYVtKyw6SLYl8ZEE+nQdlQDJtmlXde6NnTyu2Ladb9u2bdu2bdu2bdu2sbYktpEcSaLqAO97XXdVV+Oefi82+P8/3WWez3X6tqq6oydqunq9pqPvajpaNYFWTVfLp/n/r577NtUdPeb0bWWZF3PW+9//u/20TnEVU07fNtcEeqOuJz/re6J+R7xf/a7wgd7v/V7yrJqu3qhq6ebSqk/Rtxx2G67ydWdtoG/ez7eq77HaQN5UtXSHw8IwTauyYYtru/IAxcdYo1e3I2q6+qCiYYvpWBbWp1X5ur8ukP/PhKquJ3yG2kD+O33ba1HbNNpVoYPhqradqwvE18JG9nJOJDnVBqrKt/MOpw3TrArdHK729RIFP/ISVFXbLhc6GKFVWc024PTt/D8hUBsIeGoCRX1OX8/bWQ7QqSpafuAHKa6mq8j5wZ1TQGXTDtCoyjxfWN2xfztv5Kq7Brmqjv0r9WIRbarAyiFn2x//V6NX3THIOX1/XGC3IbpUeSN2XcSHqm4rwsrrvosmVeigOX17/wG+VFXbEOVs2XuHnZP0qHLPNz3YR6vyjRdlnm+kReng6K1s+m0IH0sGqvJVI1BZ11t6cfRmIUVuzHG27NfXQ1TVUj6L0zcfW9m0n0VuzM5CRv2ytRr91yqFDpa4OVsKpUrfUFtly5TUYlUWMur3bYHVIy55lXl+MgsZzft27NHWq2yaxqLc8xtdtP6rDGTUb9vLR3efmCobxpNQRdOhVl73x60O1TEDGfXrh6P92uQ/qVNFw6FR5sWX4Z2d5gxk1K8b/7OJFKu8EWAq8yIjutuRlawk7Suvu80oq3mykFG9fjiaz48UOlhSuwOM6GZHBlJajSpvuIeSVe45H6ms6hnR9Y4MpLQSRZ0P4TIvNHKl1Ui72wMZSEklqqwevpfCSj1oTEqqSBZSXEWV1uFzG4XSGpBUWgtUUFKJtLvZkYEUV1ClXvhdn6SkFuArrkTaXe/IQIoqqBIvfKmPVFINZBWXIyO8PpDJ/C89K6kEIFpUURkF50PJFyouRbKQkT9+uSk3FVfA9ygqIVa9NxrUyB5/XJmZistAgJdLZb4iF7FqvdGgRvbw46USW3EpUEyRE7Foo9GgRnb/5SuEFZUhkRWVoMHwckKlsJSxsNFoUCN52LmOzkHDS2kzCt2MRe2NfnUD34wuNZL7nTeI33AXfKNCB7EovdGgRnL343vsVuimxsXhZMzKaDSoEd/tHDKRFTqJghx2ZvinJzKQEd/unFFK5HAaBzmc5EWBnclCRnR7UONQ8nEcdnJXYGWGf3IiBUBvWF04WAMNOwdyiSvMerkgiHdkRLc78x4s6ZwvCfaBCIJpnQO5xAjvgiAo5ciIbnauXCeHlRqQuVTWK7Abcgrs5G6YlWl7WpECYIcETOwcyCUGeC4BJRwZ0fXOy+Rr4pYbZjfms1stbU8qMpB2NwcrEt8wq6EIu9mShbS7Prgu8w0zG5vR2fTGbjboLvIXfAG5SwVmN1raHldkJb0azm40Nq05YVUv1B2F4moqMJovoCQDyFwhBspDexgDC2A97ISDcFg7yCzWtLs62KtW+3DTK616N7zSjBq5sc9s2hphlnsSeXYqMLs7UJ7N6GlzXKEOwqENbID78Cs4CsoVa0Z4dXAfdnuaVeu+qqwFS07NxC/GuIz5Jr3MoGLJYTZPozqb3tLmqELXUP0pKAmb4GtwGJQp1ozw8uCTrGTXG69eaWVNgZWqd2GFmZi6JIybsd8k2QydCGi0xmE0dr1Bx641cNhYi66xwWYgSCjCjfDiYN5DyVB21ljVzqo0w900auDGPAvG04Q5WdCCdgh4FLQsOfTuQWjZ9C52Vq2nzaFCE9SAtyEU5wofShayaZ2FDYcpbSbXaYNMWJCFbOBg4BDgEdCypsDoVkeKUkEj+BOKdU6O4JhZWWdRumFGU90Ly8/U1AVhwCYtfrq7joMglsAF+BQ0rCnQu2tSmZX1tD4E9EBh+BaKdSO4OLltO/2my2EsamdWh0K3GTlwO2S8mrIifSouGgHGF+ATULNuzmEO85tg87KUhfW0OgTUgAdcD0U7Mxt1GCqxaINZ7SxaV9pIS16q2QwRg2suGgJ2TRJNatbY9QHFuxK/f3dnZiOtDhVqoF8o3pnVUeCPFseZWWdSOpvROHuw+pQlY4hZd8tFoYQb5iUq1ti14d+pyMK6Bma1p9W+QguY4GkRz6z28vLBIs/9UsXLrHQf6nCbkUM35kUwhG0kMFEQsNvwSFCpjV3rzkVBkIPmoYhnVnqdixK+yFQcLEpTUk9LXJqJn4whIXXftIMJu89LjmhXuy+iKLPS03IfUFKiqD0U80zKqC+iAHOxM9HuxM4erO66c5hMkmPllts/UCmNXR28ZlYHijApIy13ASXg3UMxz1Qc9T7IrWmUhwKnGzEIO2TIyj4VURCw5yRRUCqdTR3eByGzMoAV0nIbUHKnkD08Wa19Hm6fxV5aYmJcp00601RFIcCgURUbm9I9nYpMxZGW2wol0LeoZ5J7PR2hfZrkzki6N3N2w+ovZmAo+iM4GDBoeASUxc6mDPukIJM8ogWWFvVMtNc+0THS4YcPPbLvdsgoVXPDYnGIIQCcJAJKubMqw5qEmpDbjPJIi21ACRwp6hnpqDURMcmDgQzXKvaafbvuHIbVok8sUQ4xGDBwfkUhd9bisCZqxuLgnUGeab4N6AB7uGnDZ4o2zyPGqAyenifMIA96PJjZUBnA6q9nIFrujXRWA5ckDJ7jv+wrn4cYssATnsUB7+EibN8RzIUpOkF0scZARz0PPqM8GOigJ9M5RvTdDhm4xnyR+YzAReAKvPkyizwcjmIMdKb5JqADLOMRg48wD8qCD5mt1yuFgROYwB/CIOLZW4MQ8APDPkAlmIGMOhxsBnl65rmLqmnxiWEZ2CYtSXfHNWFvk0SSgnY/+xbg98Z9elpRQuYPX6RgN8Sm4EoZMo1cHC8L+MTYIBtKnuGq0B3qqFoqREIVGAgr4RjcgRfwCX7Az9nfauHwYYb/hROwHsZBM8g6WzLpyawAXO+nQ5NJnSq6yXXa8E1b/Qz0XBB7nfsq5cEsTwHEDHTyBDWyQOlc8juAo0+6p4M7BEISFJo7VIV60EAUtN4ejISZm7rDmj/w3+0MBN/hb+gQ7NIDBqgMs+HaroIoeAl73wEpYJNK9txpejzpcLFZQ30fxjwJBo0NtE0UBExglHQw0+nWVKInM83XAZfg9e18ooEb5EAnWAKn4DF8hn9BsQdrmSXMgCchTleHM9AVfJNGj2fdGiIdKo5yt/jEuU4bUan7qg0TGD5JH7ltA5koRI9nmq0bXIKxPsHAFop3C/c6WUthDhSDbVcPsbskjP57srTeVw6qlx5OFZ00+Zsw6CiHqp0EmNAoyWAmE8z0pBD3fm50eKbZKuDQliA9ucAO6sPp0D6Tng1r4X9QaTvQCnRrLgsDYIQkGHWAkh9UB632wfwHS7x+5atYBmHGiWj4C5FNBRlMZHo/CqBA8ABcE2sncCgEox5dMZ6gFmzo15jXBVHlUNh30GpfeQ6l9Hh6Sb40VbQTg7LiPyKMMbGlAg8mPL2EKnRoxiXY45OqYuHBqn5hS9AMbkCSKYe6uswjfUda7So/r5ZOmgpLzZQlQ9mIW4ZjMWCCy+2b0KBHA0Xo4EzTVcAhWJBQj4bpIVgFiRMLus0QMgwBg/BPvM5conWs1fbkLPTSScOSU4OypV5Z+yKEMMHhkaRAnRFN5NLhiSQdmkDyYaXpMuAQjE+mrlcfzLpJL0E7eDRtO54ZRA6zYt+xlrvKTo+WeLldqre0293kOUHYKl+kixZcD7gS3ZTjwYBLPi6UkIdWXIJhyTS1YNaF9xL0g+PgbAWUnroI/D6U70SLXfCyiuVIy+jTgLBJS9LVcRycMOG5igxPBlTyUaGCPFhpOg84BIMSaU9XNws84VxwUd9GgBFuBxEY7DvVYhv8qWJ5UjHr04R3hnAG1kw0ShgTX8rQZIAT8fLhBFGeVGk6r0hXYIA7wSxH7wzAd0i1odsgsod75JEnzspHk5sj6JRbmH4CYRvpmigExMMX4OMkh8PPH4GozpfjBLNWPvXgphOY8Jmpi8ArCPP5HAGmPGkyyNN3I2vykpw+6IrEpgxOeljyYEEuF640mQdS1bThk1kkDnAyOHJ1SDMAzHA/SEz9DD6fXKlq51DlFEplLyHqDJap6Fd1cRQwKRwKH34PvVRui1qutNJkFkhVMDOYdfHgrGcasPQQYt+dP1esui1UeWLJh2XFW4WiZd+IaqQWtMLsYMgVuaUUTttdNW3afZpFomB3rPcBjzXQsRYe49LYdsDg3MXLRfbXh0O3zS0Us94Zx0bUV46fAnKjH1javuKzECUBBwEmb+5VpLDoxfIUtHLFlSZVIE0dJJh14e8IlX/gddAQciEK/Ps9GERAFtRe5NF2FWTtyTWwyr7uWMv0+eUWqp4CWV6hZOSmmHxaj29gNnVFKmdsAx2TKEM7CFwMGIoLXEUqTTpxyRULUjniSuOqIUXtAB7aBe2CDGyFouDg81WCtkyYunDZaXPXYFEQKfMF5BSqPgA2nViEhamnHlb5JtAaPye2KzGg5iJtDfcUQxoeThJp0hUK/L6Qr5zCSpqCCiGWjwwEL3spUJ+qhhDpE5r7wi1wwRL9oWhuQfVSEVia+0Y58VKg/EIRicOi1wxSK3yQrFO1jWgM4RiSsIcvCEPY/DapOOny5aWwpTWYEwOcXyRUgri/rz2XeF03b5+6oKZ7/Ff06TOyZRz7k8yRA4NTK96LbMrABHwhzVbBL+iXI5QRxwFKiz8xwZHqoocoCE3YEwfDzM4MBtVdHAEISz4GaWH609x8QScnv9J42pCefjkx+cWozyzVS1qkJggWvTku87IgoU/B5MCxObWjIAE/IN8X1GwZXJl+2dnF4XYfRbqpa6T6mm24azoUQ+tRsacmdj4jSPpq6VeyyhfhaSECYykRS35+ySkszsou7DSqGtLTs6W7L5TD8F96Wd/TBLlBAE6Q6Xrz1+7kEtQqFYFevrCmq8aXxCwnXzxkFxaQ7PySh5ebkWzCnBT8FIPrLo4EFnC1MBTkotCj5PLP1UqfjGGYoQ0TxDBGLE55+eXyrsrOrzSsLqSnAYJMaYX37kFlCejspSD5I4VBE4f+/rkg8aMjCDRZNV7eQZrcRu4R/hPmnYkermuKQimEPURa8ZC6K/zJJs4J0+Bb28GEoYxILM3XlzRZN3FUVn6lQXXBoXckDYwUWr23YKGaO4A+Gi4XVuEOKFgZJOCpaPFR41XjTh2kyS6OSjdtRYi35DMT99W8RmCjUQI82TLCdlBgo11VfcM8L2PtLcNnhjI8DDXWIS9JngVvSKXJwATwMgM2ySxxEyZAS4lDeXEwX/AWxZ0/yq6qTd87lZUvANr8kgvL2BdBtLo7sfEd01EBNgK6WtjaRQ+CI3NFBmDcN1nQdBycMAxcEh5YY11lZddwUlauosddCx/MChT9AzLQxls1LjnoUhgMceZg29Fb5dZ42XgNF6mFZdTYEXvqW/Fvsc6m+aVWwCrARiPoarvsU7XiB/H2NBIWYzjL3povQ5osQ1yUla00mF4w72coLlaQeb5NZJ7v8la/AD3lni+Yh+pKiUXBOtFfY3/zlWm8aPydizR8+R0CL59fgv5C9Co7LgLQ1cIQG4vDwJoZ9oONnxNChwmEs7xkjVWVZssmqQQuleRVtwJCbyVyTW8DVJOANXKQB28K9gVXoEGQONOzvR3a7PJpK9woby3zShRDtYAZWNBTLCOtiXLYYNtUzsSUFWG8W+KFtVeASwBDWn7bf72RNrfAp82u1J9eMA8OeStmKfslXmkEFBMtg7msWC6xzSXWQuUS5BIXRyDobSLQ2As1WjR+0ElqsJR1GnCj7tmm90xnJcxsAl4t5LGQtm8WfSQMIVfvV3FBDG2E+ZKTXY7hraXFTyus1J9cMO8EZrxFuNLVCIifuuwdT73cyKWiwcYgAfO8VKN549KcpMluuaiMe2OeTV6Rsn9ivb5JkAF08+PMrwgubDnVWC33RhiiZH01E8NyoySc/i47ux3DizRwJDOgtQis9kYMJroh+nbmbBs0ChKbA4Mtx1BxW+0BeDy30jwVfSsuwoZANz8ifavOMhVj54zMsU8DMSRheEthruQIi1ZYINPyK/b1bQYMFKlQF+PknGxuGoRY9gnR1y18J16s0azxPG7SgCUfl/HvgmGYC6nHaiErzA6CVm1/th7flf1lU5aE3IMWF3wqhrg8drawQEsjLG40/Eq9yQ3zoIsZFxRZuRUeVgRR2znf2s3KWXTZGv3DeSWXg0jJbTX7wIx+ZGkHhqeF08zBnp7KJqkhZU+NvGcMWXdtwzBHkCtZwnY5SBpNUN8MWCZ69TNnM6C9eCLvCc7y/LGBp0XQIkgMATYxNJxdbDRv4ig1v902tRniiwF0r10ozC5gOPlAnZghr+qaYZjm8lBa46/VwgaTmt+pO3lg3p7MeLDEXcDFjMdfPc58u3k+dzJlr+z30aZ84oWij6li3Z+rwezmalyl5o9MfuuCmrmeq9lcBNs3TMSYb8LAMGH+s5DlOCRhqEtBdtEKhy+pdJZmTFfifiU/NmXGo+FsiNvy4eoQL4aqEPcuI7r+kXChvEUfr+U3iVDmRcltvqAtnsK6mqbot5i4JFBWT/zlIXWz2pnhLvkoCbOLlj8+Hh412Kk7fmAd/NyIGaeT+Kc3w0PPoNLs5wkHJnO+7tfuXlmQgKE+lgbVzSu6a8tiYUlGDYcA5iCY2VEJGw9U3S1j4KicsaFNF/om1x+40wUlkVCywKYGG6EqRKm5HfPgQ79WgLY/0YkvQyBgPIpvG94GO6HLRtya9gslNnaPeBpMb1Y4TAs2Cb8kS6l1XiM8ZskXBmnlvBbrbpqQx70wkJdCYdGC41+JSKZe3mUZjDbEf095ssKPoOKj3Xk07BIulDdLzW0a7shig+5MrfjJYP0UofX5Jo5CNIQzYxS4JPBxI+QXLXeowAGJijupM35gHVxDsbcC9J2JJuZZsuIZBuXg4L+dgbaia3lQ28dUf3rzXQ5TccfIEUydE0ir2hu2ft/EEQC8NCsEfykQNg24+Ijg2FB+f5UVj4YrEtDREn+AoB386xYMbkxuIIkLejtUYPNKxW2K1FG1AwyU6u/YhjtmNcDphIIHi6UAfXlyISgabts1FKrMTp3RA+vm6i2DNqaQqccG9b6xRgegGFYd9oheB4B7bPUnNxtML3GYMrMdY+UHBaFRD2yjgYmXAbRiQ+ttGec1uz8LfyngF21ma6jB5JK4qdI7dYYPHNoLHNLodNDHNGhiiv/SHhy86wuZ+iAHWgYJ6O/17UMzefIYXu1It8gj21jPJMjQ6nk6Zw4G7u+cMYapvSHxJATgjwAsmszh+k9gGQxQWr+QnvxMf6Q/Zgix2kqh61Rk5wivGFv98c19uEyZOVTpbZnfhlyLPbNN7pj2RWCBq6F1s9a0tR/G5bGtGP7mO2jS27HIU6Z3ag87XK7JSr4yY/yXVq8/PgAGZeUDBVlwfe1x1RvfXIbT5MnDpE1TFoRESzyz+3VQ4DSA2x+zIwM9V/qHebw6dckXsvrbYvjLTLDMWnULOjgQu4XOU38qVswv6PVyFM2yY8kTW/0AiL84K21fvRL0cGyYg6F/zRX/EVNXP4wn5UixGP6ShxpBpqjThzK9kaVM7aQ66GWPX/H34K2ycihpQ6iI67xuUyS3rPwy9lkQa6kXlnmgOquhLQBYNfWruuG/2KEYkHFz0rvsUMzJM8CmTh2KzEGSIn2S6mCIAxrt7h0fmLrqgJNgbwN8h8Lx1J08nKUwRfpQSxq/FFY7Ii37SkTHKkkNgLc4czC834IfbNKSMF5U37BfCmAEm5nccs+HkaNIndQadthn+YzxxxzQCRyu+OI3va08qAWVbQj/BcRSd/zwcI5TpA558lhs4ry23BuR9lUSA9DpNIV7lZ3thyDyqL9sqKIgYBSbGdymSh3y9MWjHYiSp67UGnSkJRLtfhK/dkCvl+5nABgMq+ACvJm6hk+RKBvCCY4QR51x5w5cJ0tecuAy/o2BO5VsoPhaYEErtnspmKdi4vyHIWLi4mdw3SEZPkwfpkzfrucu3Xk4JJq16IByYDMYpENdGL7SV8e96A8/INKIAL0tu54kfiusDcCDgSiHIlkP7SQAPP03zHZznHEiJiwIQ9DSL8Qfxgg2PyEjs6mSF3nqQoI8eaXmYCA1zVXidA44CcV2xTc5AIx6MNyE3zFmzVsx+3/HUGfU+VDnyZMXaeI2+ix4tPIn+fD5jHAawDG05sxe2Am6CzX+mzDEVf5jCTRwMSDZfLUyeVk16ByiE2BHUOf0kQPGVgFnxJf5rAjwAPwM+769arLHzze0yhfLPhULmI59Kuh0tpR3Ls5A8geNRgJIlumZ4/Gy1IUwWfJKeoJ5Ei8Ekz63LXWA/8q8bRNWhMUeQaz2qPOkBhLHb0atTF4w5gy5Z2pLrU2At2id3ww5p4L8s8yvHEYyR0jPbIrUzfe3SAn4C4n6XHe8bchO5UG6GeHFlr21JHYp9RvDpVjYduwc0DG0dqo9UZeE8dwSSV/NDqHY3G56elMkLr9HkCxxpWZ/IDVVBEkDJI1f+3mCpAO4MJVy4fe5k1TtYee7TbTXfvwUhSGGguerAFuT9XDllT4IA8fRODBEkCzT04cycfHFkT/M2TUTx0MFoOi8tQNngiThwtbQy+0s+z1F/DIwN3EpuL9FW7Ie5EO1wgdjoMk+FfioSE7s8IrETZa4ECKLX6nZG0hNUER2r3CwjeOvNpEWm29IwEIHduEHO0yQtQ1wkKk96FyikdYemJ1cE2nrogVpXy3/wRiYHD/ZfwaRTFr6WNu3B1Gi8xsfgZQYBlusW7ob6N5BH6zMJar9bZWkO8Ws0KUZxU+WuMkTtwG5MmfmLOGRuhAD2f57ltw8EgQQbPJgk5a+KOK3vRIgjd+p0RtITWCAl0ESTBEj8YJu8CjouQeUuj6UL9C2IDQOKCEBR4f2f1Ha4MHx4jws7ZamL1JrMDgjK0kTD1n8ti48ZBybBzLwjflmqXsq9AoESx5MaamLPP7w5ZXkoss2M4aPWxM+XPGqDxOCIvBfeCjYjOOA8FtJ3nXIpUVXtqU9+U7WNQvP1XymO9L4DQZx9FHgTqh+r4qubmiNwCgSjIA305KHPP64v1e1e/1jevKwMoiCTasVANey9Yag6mADCd52xpFLLC8UgAtdxxFrg6tFwyPpYq99CNTqDx7cTpLIrSJoEM2YLyIfqlkzj0qmGAzhowaCrUkMBnsm2QgcBODHXtNShzx2k8YvDSTxG0CtXv9YozuQnrYXZA1SEInjQuFSCMrIrC9UnTFA5vE55+B8H7G3sv+eQK1+56Z1OiEUkthNFH1U9BoGkaVfWeahSmKBJXycrQi7hx6u47OA+1VM7rm6EPNv85kBPDdITV1ksdsJXXxziw/CXgdu+R9/B+rcLAR1ZAbBoTgOctFiIPPsxbU+826uDIOlywqnVFitXufKlaL4MEu/sdssbAcOgnYwcREQeM1zJLjT9ANTf8vOvtQzqblhh2JcCn6I3Z0ZOG+VmjzAM/GJ1+z1j9W7A+npYMcKwmYNNfvoBNhA5f5CcACc4W5hPaw4hkX/WfLaMZfoqvaW/7Ia7A2yLnlh1yYeL3HsJgzfSjsdgR9lpbcz5B9cbqeRtmAEvBU5iG0qbsmAbDRQbeDzuUFK8pDGH1sHSFclihbj8IXbMAPqQeqiN/Guz8CREJwgF11yyX6hcX5YqehhfzT9qMDr3d31EmT110chNXudEzdVizByczS7yYsfBp2Vv1jpPyE6UgNqjq9BHAnBNjbMQcDB8NTIUec0rUNM6/MNA7bsG5tXd03g83mrlNQhjd18dP6v8ZayD9TLXUJQobRpzP2WKtdtEHisphl+whdoW9Lv8zp9LXAJQjd9qTsyg9TW6u7Yb8v6amOBGdpwfcqumxsuOJ8ZFjTd9XuWQr+KERwqb1+ZrVciGqcze5mU5EUae7QA1Oz2j9U7AykKCpda3Sv5NkEQ9JDfXfzPopVhmqCl1j7j5ccooGa3c4fWygw9ZOoAPugRul+2YsKCjPsmV5i0+CFwBeCJ62mZMAZPEmwuI43efHNf+pkNSldyP1Im9HfRxzmlV9QERQpDcdhYkNXD2JwTxR7ktAhCj03AqeIfYyjrW1wPmnlZbjp5k0QfZ/cgij2p3h5IUR6mmaC2YWkpLB6bBBSFK0Hic+Dudv/3aV8yyIJTO8irRndwnfYSRl7rEor2VExZI1RNOxYs9jopiYsk+vLJdT91o5YqPPO38DuULfOy+WBTK4aqJxC+NwdLXT89xfPLgyyYaZwo9hKHH/0zy/raZtl3RsmmrX7K/wkeC1ySsNfhS01q/CaJPETRhxtR9En11kCaAls4YYJwx1LxBate7jcEzOr70tDzC9AXxsHy+/UQpP3E+ROhfCwIg8b51OgM9mqxG/XNLN/v+Mmo14ofxDgRgzwXRyFC5GF+PmxSErcb+eA8NLHqt/Db5Z/lyr90br5wXHq32PsY9wXNA7iFi8PGdszyb4Ra1d2yTe+aZC14/P4yRJaSyEsUebiIIk+qtV6kqpkexqiSb6sGu1yCRgae3Ami4Y30ctllO1WjPfhPk4kir7cdBJZ5IHy5/kJMWhIq1bvs1iGC20OyBCc1dpGEH743v2rX4jwhljv9/dLC04gtV/p99lXyfVV5GO0nBoMSTWD2gJqpnDEK5HG8mto71lGFAJnnyfGlLiV+E0dewsjjqcLIk2rNF+lqB3BDz5nmOE9N+z2HM7faiY1n+RM/cSW06IQw/NRTqeonBoElhoTWw63PNzdG26FqbtjGe+rrG/7Pz/b42A4KRDAmMztJid3E4ZfPzV+/XOtWLs/8hC9Tnes7Z3jpSoW34UsLFurza9Y9VRx+vFsMhUAUhHgZNuCbqmvxRGQt/sw0Y9WrEvA8Isza7OgHph6r/wiwAUwOl4advJE49BCGn1RtvkhZfjIqrr6pZXrvfwmnVGeVT2lLbkwGRVl5Es7H9xBkwVUw5icMPyz2roPAEkOgJcTiIZ4Z9kOM/SYo2o3uXNy+QzGc5hUxJOFIKIEGtgnCce3n7iQlehGHnlRpvkhbO3iuAtg9EfF7fQ/2cYIeTsC8I3gHIN+Y3xGJ1oEw9NTeKUwSegwCS0sLDrDBY//0iHs2ZUWgtqtL/fHlt9nmcfyaUADSaxq6SM2mo3caFRNpy//9ynHdDyrnLEo+O/jBPlbbK1VX2vdqvR1+6UEYtDdCGHqQsPe/GMQtoRa3HwQZT+HhiqGqv2MTFgTSVcKlXtiwn+KqW16NRfC6ei4FntQy3OGN1OVvd7RYJraLvBvyQMRAumuybjGQsu203yfDkk3MWvp9ILc9QegtQfhFaaLwZyBYPqnF7SviK9riCHS13SZ3jXUqFn8iJLdW+SJvMF6qTe+qXmW3zeBpmmJIwijEYWTouwPpy2/iK3K93K3QnkUvVl79B8kb0zR1WDpnb4uHtD8HWXBz7eatLgq9BoDCpRBLgvuHYKipjU2Uw8J22O4H/PeIO7bcOxs/J95unHzUFZZ/J6Me2GazT8TZBlRNsh4OxrZGI4hgVOIxMqztgRTm/beEs0l66LvwHN13wR3ldaZYbKHpq9V+1JtW7r01HloGYbD2616w/dSJKU4Yer3qk56HPYU4GKJQagsfrLMKu3/vdbfMc9L31W7r/Svyxje+cfCNR39X2WhXratp+lTC7met1sSy4UgIu6y65gc7y+cEV+JhluihqJervqK5j+VuA74r6BPWLX613qBcpmBJELY3+wShl2j70R8U1yZYKNIUjoLAtnlivync5PlvE4AsqFwEhpsB+0WnLXz8BivbWP6XuvJ17seLApuL5ge7vEoQBz0v2kO8M4RHg14b0fqfeRhINAsg5p1W1xuEQRknMkMvuATbL+H2qz9YXJvkNZrI3P9/N0F7g2wzKr5yqme2b0O36VDfLz7LWc4Cg6G4V+kTyz1Vf59beGlHT5IMReTPuJn/Lwoq6901699f2BScexv8FEwpgVf36/YBEPZ0r1UucSyT/EvdLu7L1t1kzXutVVsv52U/QegzgCuf9LzGUar39MtuDbJ+AjWW+++uvb26PtvkoNAZoO07vjcZmDfzmc98RzD3mjCgDCr8du2g+WSWBJmhD9ufK5/U0ijKPlVtvqzafCUBZW5/hFuv3/qk500n683erLU/t3zS86YDVLU5WLU5xFgZ2y9hb3aaw4Za6H9Vmi/XnYwytj+CrddhP2l6QElpZl9QmqebdcvP7MuVT6L/JWe82Zma6X8J+mwfsDRTOb7YGw2qSuNllcYrCSpz85W59fmsZppfonLNdLMytj5rH6X5efS9yo1k5UZKssrY/GRs/dGHWz6Jzpe0/uwozdPN2kPm5uddmlumA5S++WocMjZeGZuvd2mm6VWuv3yyldK2PhA9fQ+9QJlBxXjSaDSoSo3kphNY+ubnfXryS/N0ndI2P1D9XfrG5xgzsrhK9eRdE1na5h9/d4wFjrXMVx/n7266wCwuqeM4vbjSTLurVCYrlSlJLX39c5yeoMyg3yV49ARLM6Ua1ubEWDOsmbbxx8dQahJwfu2qOq0ZSKUyn08o0ePuM55HmeJxPh3OpDllIFE5j0TllCSXtv7HEym0TES4NYY/VAYSlXNeouHUjb9svztfZlCl9ihP+QwkKmfzsUj4Z3uAQpXpCNuqLCQqZnRUzp9JHz828tk4kj/5hT47C4mKaROV87hrUTHFeZViSlT8k2FXISbGPvunT4/PQkXFbNuj6yyMYVdNLIyOsG3wZyJRpCUq5rPkjx4NfDYe57v5c2PSn42Kitm7x87A6Ahzh58mFUW6R8W8lQJjV65HAsKjhYUx6KdLomKWjYr5J/mjUqQ4/mwcwd/OUpvnp0+iyFFRpCS/SrWUKSOdDrDt89OoolraR5Eb0mEs0JlElKd7ZeaAn06JaukRRe5Ng3HCrqoqrj7bHuWFhbJz2E+vRLV0jyLXpcLosqriZMSS9HZdhRry0y1RpF0UOTKK/JsGo8tZlS5OvqIvjuTfjjB390/vfj8NE0WWiyKvpPFnE3DeWd1Pz0SRblFkjyjyYRp8VnfE43zVAbUtXfk55KdtokhTFNkiijwYRX5L+ojiFZ3R0nC9MB7jeyLKK52kXDN/bkz46Z0oMiKKbBhFTo8i90eRd6LIX1Ekk1ulWnLIrvysOJISEJCWgFN7lP8ScD5JRHkpEbeDnaRcklzo0/20iwc=;" vertex="1" parent="GgMLfgmkicdNKZzxbHs8-21">
          <mxGeometry x="10" y="80" width="216.3" height="70" as="geometry" />
        </mxCell>
        <mxCell id="GgMLfgmkicdNKZzxbHs8-1" value="" style="shape=image;verticalLabelPosition=bottom;labelBackgroundColor=default;verticalAlign=top;aspect=fixed;imageAspect=0;image=data:image/png,iVBORw0KGgoAAAANSUhEUgAABAAAAAQACAMAAABIw9uxAAAC9FBMVEUAAABkZGRkZGRkZGRkZGRkZGRkZGRkZGRkZGRkZGRkZGRkZGRkZGRkZGRkZGRkZGQAjcIAg7gAeKsAeq0Ad6oAb6IAcaQAcaMAaZsAeKoAf7MAhbkAir4AjcIAjcIAhroAir4AfbAAfrEAh7wAhLgAgLQAfrIAcqQAapwAd6oAdKcAhbkAgrYAjMEAi8AAir8AhLcAi78Aib4Aa50AaZuVlZWWlpaYmJiampqcnJyenp6goKCioqKlpaWmpqaoqKiqqqqsrKyurq6wsLCxsbG0tLS2traUlJSSkpKRkZGPj4+NjY2MjIyKioqIiIiGhoaFhYWEhISCgoL/3kT/2zX/1yT/1iD/1R7/1iP/1yb/1yP/1iH/1iP/1yb/1R7/1iH/1iH/2S//2zf/3UH/3kL/4U//4Ev/1R7/2C3/1iH/1iH/3kX/2zn/3T//3kX/4Er/52T/5mH/5Vz/6Wj/6Wv/52H/5Fv/30f/30T/6Wr/6Wv/6Wv/6GT/5mD/5l//6Gb/6Wv/6Wv/52X/5l//6Gf/52L/41b/5FlkZGQAaZsAapwAa50AbJ4AbZ8AbaAAbqEAcKEAcKIAcaMAcqMAcqQAc6UAdKYAdKcAdacAdagAdqgAdqkAd6kAd6oAeKoAeKsAeasAeawAeqwAeq0Ae60Ae64AfK8AfbAAfbEAfrEAfrIAf7IAf7MAgLMAgLQAgbQAgbUAgrUAgrYAg7YAg7cAhLcAhLgAhbkAhroAhrsAh7sAiLwAib0Air4Air8Ai8AAjMEAjcP/4Ev/30r/30n/30f/3kb/3kX/3kT/3UL/3UH/3T//3D7/3D3/2zz/3Dv/2zr/2zn/2jf/2jb/2jT/2TP/2TH/2TD/2DD/2C7/2Cz/2Cv/1yn/1yb/1ib/1iT/1iL/1SD/1R7/52L/5mH/5mD/5l//5V7/5V3/5Vv/5Fr/5Fn/41j/41f/41X/4lT/4lP/4lL/4VD/4U//4U7/4E3/52T/52b/6Gb/6Gj/6Wr/6WsNfxgDAAAAiHRSTlMAECAwQFBgcICPn6+/z9/v7+/v38+/r5+PgICAgIBwcGBQQEAwIBBAQGBwj5+fr7+/z9/vzxUWFxkbHR8hIyUmKCosLjAyNRMSEA4NCwkHBgUDASAQMEBgYGBwgI+fn6+/v7+/z9/v7+/fz6+fj4BwcGBAQDAwMEBQgI+fn6+/v7/Pz8/f77+Pljkl4AAAIsFJREFUeNrs1DUBxAAQAMHHMJiI2JMdqIP1zXjYfQEAAAAAAAAAAAAAAAAAAAAAAAAAAAAAAAAAAAAAAAAAAAAAAAAAAAAAAAAAAAAAAAAAAAAAAAAAAAAAAAAAAAAAAAAAAAAAAAAAAAAAAAAAAAAAAAAAAAAAAAAAAAAAAAAAAAAAAAAAAAAAAAAAAAAAAAAAAAAAAAAAAAAAAAAAAAAAAAAAAAAAAAAAAAAAAAAAAAAAAAAAAAAAAAAAAAAAAAAAAAAAAAAAAAAAAAAAAAAAAAAAAAAAAAAAAAAAAAAAAAAAAAAAAAAAAAAAAAAAAAAAAAAAAAAAAAAAAAAAAAAAAAAAAAAAAAAAAAAAAAAAAAAAAAAAAAAAAAAAAAAAAAAAAAAAAAAAAAAAAAAAAAAAAAAAAAAAAAAAAAAAAAAAAAAAAAAAAAAAAAAAAAAAAAAAAAAAAAAAAAAAAAAAAAAAAAAAAAAAAAAAAAAAAAAAAAAAAAAAAAAAAAAAAAAAAAAAAAAAAAAAAAAAAAAAAAAAAAAAAAAAAADsehfVC8joU/YR3QtI51v1sTAASOdbD7FINwDg34yxSDcA4NNu9T8aAEwze/ZgZkkURVH4DgJ4tm1FORE827aFzOa0VdXW7W//OaxdOHa7Wa/XByJ3+HU6ncVmczDgxd9/5JkDAOCwGvzh6Haz2azX69VyuVwsFvP5fDadTifj8Wg0HA76/V6vq6AxsNoY/IwBAHDZDaHYjmy3Yv2Pr/vvdjrtVqvZkEX8XicDngcAwGkJxg57ItQ/mZKH/bcapFavy/0OBnwOAIDDHz0eDsL93/0AoP4H1H+P+u9Q/03qv05qtZrc52LA2wAAuCzR4+lh/2Qp8APgpv/2nf6rlYpMiwngawAAXEbJ6Xi817/4D0Dqvy/Sf7lUkmkZ8DMAACbJ6UH/Tx8AusL9l4oFhYMBHwMA4Ayf7vRPXtt/5bz/QiHvY8DDAAA4JNf9H57sfyzWP6H+y9R/kfrP5dQuBjwNAKD/Zx4AB3cOgPc+AM77z+eyWQUWgJsBAPT/zAPg6OEBULj/TAYL8N0HAMAVO5Hj8bUHQOH+c9R/Oo0F+OYDAOA/kZcfAMUPADf9p5JqBhgA+MacD/t/6wHgpv9kErcADAB8Z8EXHADHz+4/S/2nqf+EzMkAAwDflev+AUAStDqZy+6X3jsACPTfEj4A5q/6J/G4kgEGAL4ry70DQMh1tQx60QNg78kDIPV//gGQiMfj/9k7Cy3XbSiKXseyY/YqMw6Vh37yPn5DZfiC/mM1ct1YioOWG0vr7GHGsxP7RLpnBCAAMFF+0PP/OS04fmP/AnCR//u3CbgtAFCYhBQXElqQqxfdQ18B9Bl1OR5QALb5f3h4OCPgtAAAmwhKmictIUvIPU60/J+Tzke7FoB/9eT/HlXguIisHlcAoGhg5rJQhI0AUmpJHRXAkVYAnJDO6RsDCkCVf8n9PYGRd/n/XwQAupf5SgAVtVSOCuDTbv4vyeTb7VYALReAkv/yf/8FgfHme/HBBAAB8Ez71ZJ7fNJdAfQxmRyt2wJwQwEoafJ/9wEB+wSxSv/BBAABlMxzasicFkB7C8AjWqKTf60A2KYAbPN/+w4B28Q5Sw4pAAhgvvgN1py7KYDzTv77BLBPAWjm//aagP0BX4cWAAQgKuaAHomYI2cF0Oa/VwDDCsAm/7c3BKzCksMLAAJImWN6JOOaHBVAdwXgZ2RyPKwAlNz6KgAIAAKImDOSBDVnrgqguwLwBzL5bGAB2FwBgAC8FAAEQDXXJImZI1cFoK0APCWDq222AFwuAPUDAAjAUwFAAFnzipxrcloA7Qrgb0nn81UFoKS/APylL/+vCfgoAAggYk6JAubMWQHoW4AdUZeTN1T+hxQAKv8QgJ8CgACo5qo5AnBWAJ38S944pgWnl2YBsGf+XxHwUgAQQMY8o5JrclYA5haAn1HL0RudAmDfAlDy+hUE4KkAIICIeT5jzhwWgLkF4NXnJ2pQ6IWVAlDl/yUBLwUAAVDN+Zw5clwA5haAF2/suALw994CsM0/BOCrACCAnFkdATgrAAszwIwC0DwB8BIC8FYAEEDMksxhAViYAWasADLz768AIAAIIGBJ5LAA7MwAW53/RwG8IOClACAAdQxQk8MCsDMDbH3+IQAvBACEEAH9y0w9r56G7RtdFICtGWD9BaDKPwQAAYCJcm5tBlh/ASjzDwFAAGCqnFubAbZcAL5u8/+cAAQApsi5zL+dGWCSVfmHACAAME3O1xaAfw8rACEACABMm4uRC0DJcwgAAgAT5WKMAlCi5f8ZAQgATJGLfQrA9QXAcv4hAAgATJPjI50vN7NuC8BbyVL+IQB/BADAmhlgZgGg8u+RACAAAHYqAJUAnhLwRAAA7FQAqvxPWQAzIYmTSAiyRAQBbCYUQiRJMpdPZjQ2wuYXA7sUgCr/kxRAKJK0KFmnLJIoGDqrnyGAdYRxWtSsURVJNEoypdmX/sZ1kcYhgf3ZqQBU+X9Ck2IWpwWvpkzDQbP6PRFAIMQ8aZgLS4kJYunHFVRpZNUz/7B3Vo2t22AYliG24xjGTNRuGXfbP2nHzMzM2M3b1ZjhB+xq2/2YmZmZmdlR2nN66jfOJ1mpfBw912vT4+V9LL9S8vlhnA0kDVtj1/ZvssFC1i+y3kDWXYGSTwDh/M8L4MQzASecfApbQqxWmGRDSXxLMv2SAogWwwq0o+Vki4mKVBCAG4SFl4ir59MNs3LS0FEU/k7BM+DFXDYeTGyy3dTCGcD4K8AqzwDD+ecLgDkBXPDXAC48a2kkYHmdjEgaWDLp54zmlh5lYkgKwAmi0UTGSzICsccKiIuYSOSxxjO50dT999+/PP/VvgLwDsJXAIL8FwQAHHAiGzWtTiZC6jEits8XmyurAPDYcUzkKow/JqmSSjsAr0P49zSVie0eeIDnf5kAyr8CUH4GGN4A5PmnCODPP/+45GQ2QqwgyUSJbEaBp78BAgDhwRdFHDcRuu4Ok8PtZMK0rUbHP89/zuD8zy8A7paaAYbyXygAgQBA/P/44/ffz5kZXfzTTIK0RQpvIwTghhkRX/jqd5YklV6cyZA4rKFsuMoDOTD/sp8AEt8AvBwIAOX/95zfLprWF39MMCYCcEV+e0csnm66FKn0kkwWr5m3/6kHYP5hAaBmBhjKPxAAvP3n/Prrr7OnMvX4aSZP2GwBgPgTiEUMEGRS+GKSibMKtFnz2HwVlH9cAKqYAYbzjwWAb/+/5nyk3gD4rUEnbLwArDATJbYZEStUeuExdpRVI2RNY5MH6PkXnwFG3wAEAsD5/5Xn/6OPL1bbA1jtrCphkwUAFkhK1wAW0K/y12hnlQmam/+cfv5HOwMMbwAAAeDlP49/nv+PPzmXKcQpe/8lURC4c7SCwUdHwiYLwI6UppOe/zQKg5worvoarXTgKwTe/Nl/2/XapS7yGp1/LoDRzwADBQAUAF7+8/h/8slnJzBleGXnTq3iCZIB/7nXXAHI9yNhhfwn4cKj/24QyxvA7gz4Ud8B58CiwT6yWXPY9AEObQPwHjUbgKgAxALAt/+5/H/62Wez00wRfoaJfVtsu8DRJAD1nwUgknQCj6+LSs5N+7L5B+cJ7SCVMwAWWOIPirM9sJKIWGPYYhVYAIx0BhjOPxYAvv3P5/+zz1U9BIRY9W1HeMs6scZIAGm4wuLIbqey98wOjL8t4t5I4oBB1JIqhT3WFKZw/kc6AwznHwsAt398+d/L/+dfnKQ+//TT3x7cJxobAYQtkE25e2Yodo7Qwr4QffqPXMl9yYQ1hA0lNwDUbwBiAeD2j9/+ef6//PJSpgBf9uS3g95W7lgIIPEtkS61JWxSX7yy8YReIGnJ14ZeQx4AQP5BAah8BhjeAMQCwO1f//b/ZY6CJYAje7AXGyAZAwEknuDTfCJ4FVNXxr2OwJ08IP8fBsSsEexA2QBQPwMMbwBiAeD2r3/77/GVghbAlT7Aim8tQdMFkHjifV7ZjxR/IHXk3GtRBRA7Au8OqJoGsDlhA2BkM8BA/oEAcPu37Pb/1Vdffz09AgEwOm2wfLAaLYDUk2n0I9IlxPmnG6BNFUBQcYPIb8wCgL4BeNcINwCxAHD7t2L+vz5OrwAYeLeHTRZAYMktm22BV3KlV+euegGwTkN3AjdXvAEovwGABVDe/uX04v/NN4dqFoCD3uyNFUBky94023SD+vLPX8kIBGAD0aRs5Wd7mP9RfAKIkH8ggCHt31c8/99++91pOgWAt7DChgog9eSXRTFZFlGVe3OgXAB4M9BiKzsTaj8BJD4D7IpSAZS3f/38f9PL/3eXaRaAjVqARgqA3o265GWRldL+Q+oPp5Z6AVjwWWNlZyMVG4A5aAMwh74BiAUwvP3L85/H/7vvD9UqALwECBoogLTF6ETUfYAAXzv5gi5QLwAWNlEAUxW/AlDVBiAWwPlD2j8ef57/7384TacA8BIgaZ4AEosJ0CKWAFaKbuF0ErAEUC8Ap4ECmCRsAKANwDuVbwBiAQxv/3j88/z/cLxWAeDbXatxAogYq5bMSPkCAPeAgXoBsKR5Athk4AaAhg3AogBmQfsHb/8//PjjpVoFgN+F4bgLoE0rzlN6u0ZfAqgXQNg8AWwDNwA0bABiAVDav+/7+f/pJ90CsEANONYCwDUgSZ1hdfl66gXgN08AU4X8a/gKQMCarMc0pf3j8c/z//PpWgWAt6NaYy4ARmr3I3qw6K8TqxeA2zgBTPL8a50Bhlmb9Ti52P59iZb/efx/+uWX47QKAJfR4fgKgJ5tm9Keip/FtpULwGqcADbXPwMM02U9zoTt38Lb/4L8/3K0XgHgzxOOuwACQmZ8tFVQ/dq3lQuANU4AG+qfAYaZYD3OpbR/fPn/S85hugXA0qyAM+YCaBEyE+Mnp6o1YKxeAGnTBLCD4hlg4huAmF0YZ5bW/v3Ui/+DDz44rVcA+EzquAqA/ths46JQ/TNAdQFETRPAKtpngGG27lcAxPavn/+HHjpRtwCCrEA0rgKgr5o92kUT32/wjQCGMKF7Blj5E8A5tPaPxz/P/8PH6haASykBjAAWEaoZupEV6BgBDGFTzTPAyvcA2Cyp/cvh8X/4kYN1C8CifGmMEcAikuoVAN5vSI0AhrChlhlg1AXAidT2by7/jzyqWwAspX34xQigvAKwmQQBkK8RQDk73Kt5BhhmHca5hNj+8fw/kuf/0WndAohoLaARQPkHhpgMLSBfI4BydlrKGWDk/O88yXqcQW//Hub5f+yxM3QLICS1gEYA5XfuSNW3OgdGAOXongGG2ZRxLiG3f3z5n+f/seN0CyAgfSTYCGAhHUUCYEC+RgClbKFtBhjhAeAEgfavn//HHz9GtwC8rIgRQHlmYhWbAPgXJUYApWyudwYYZi3GmZ6lt388/nn+nzhYtwBc0jaAEcBCCLWJdAFjBFDKBlpngGF2mWSc8wrL/+9K2j8e/yeeeLKOAnAF02gE0GIY+bOAWABGAOUbAHeNdAYYZs25/J8p1v7x/D/5pHYBWIRhOEYAovMA5AsY1wigjB30zwDDJ4DYSYLtH7/9P/nUU6drFgDLigQ1FYARgBGAthlgmJ27rM9ps4LtXx7/Xv6fNgIYIwHQDwIYAWCmdM0Aw6w1sSz/ou0fz//TTz99fA0F0DECKMuMr2baBlZJYARQhqYZYJg1t2IL8i/Y/uXx7+X/meN0CyClnAQyAihfuDMjgKVBxwwwzM5rb8EW5F+4/eP5f+aZ57QLIDICMAJYaZDeAFC6AbjzmutuxZZzIq39K97+8/w/e7QRgBGAEQAVZTPAVl9r3e6WgK2GM8FWYOZcufaPx//Z5w8yAjACMAKgomYG2FrdCaaKM2bl2j+e/+eff8EIwAjACIDKpIIZYKt3J5kyTjuP0P49jNq/PP69/NdSAKkRgBFALZmoPANsjU2ZOk46l3b2j8e/uPzP4//Ci3UUQEYIhRGA2QbUQMUZYKt1mTKmT7j4syrt3/M8/y8ZAax0AmhlBVwjgKWh2gbg2pOqwn/GZRejT/7S2z+e/xdffKmWAog1CMCcBDRHgQlU2QBcbdMVM3zmmedeQOP85Zx3/nnnXUz63r8Hh7R//fy/bEpA81kAIwAyFWaArbEFW8bJZ13yF5E///zjjz9+BzN/q7V/PP55/l8+sC5HgY0AjADqj/wMsDUm2RwzJ/D00/P/ew515i+9/XuxF/9XXjECGKsvBKHWiUYAmFWFZoDB/J84+5d4/skzf+ntXz//rxoBjLEAQvONQILsiAtAev5PuVAw/n+A239J+/czrf3j+X8lz38tBRAKptF8J2Co6ivB4nIBGAGQZ4Dh/J8IYk5b/vP4q2z/+vl/be8afiVYwAoYAZTmNlIlgMgIoJRtpDYAV9uC9TkbxFxX+5fHP8//60YATZgLkDIpzFwAUdaX2gDcFORfd/vHb/+vvfHGXnX7WnD8HjECKL9mTAozGUiUTWRmgK0N8q+9/eO3/zfeeHM3zQIIRAVgBCC/D0j/PUYAmM0lZoCtNgnyr7v947f/PP9v7lq30WD4txgBlN+5fUUHAZkRQCmTEjPAuqj/09/+vd6L/1tv1XA4aMKKGAGUX7RQzTGA2AhgCMKfALpjzfm5PTVr//r5P1K3ADLx4aBGAG2UXHE62WLaRgBD2FF4BtiWjHNB3dq/N/L4v/X2/poFYBM2AYwACGt3i4mTgAlDRgDlbCM6A2x1/ACgv/3j+X9nb80CaGWEOVdGAIuwlAwHs5BGjADK2Vj0K0C7jHNJ7dq/PP5vv/PObpoF0M6KWJRQ2OMsABajxXt1+UbMCGAIm4vOAJvECwD97R/P/zszmgUQgw6QFoqxFoCPrlp1+fpGAEMRnAG2FuNcWJv2b+Ht/513j2R6BWBlGeFeZgRAqE4cBfK1jQCGMiU2A6zLepwi2/59NrL2j+f/3X01C8BDFQApFN6YCUD9M4CNnwCMAMrZVmwG2ATrcVbt2j8e//fe20OzAMKsCC0UwZgJQP0zgI+lagRQzsZCM8BWLzwB6Gj/XgbtH8//+zN6BWClWYEOLRTReAvAygq4VZ8AUssIYDhbCM0A61cAMzrbP3D7X5b/o5heAXhZEY8WinS8BcDCqocBbfALjAAIrErMP58BtC7rcXLt2j8e//ff30uzAKKMGmxwwxtvAbhZAbviHoBtBEBhR4EZYDf3O8Aza9f+8fx/8MGuegXgZkVCqirCMRYAviJBtaevkBkBUFiPNgOM5/+mLfsC0NL+vVjW/r3fy/+RTKcAcAVoUwWQWuMtALfaFfHAqxgBUNiCuAHIh4D3BXBB/dq/PP4ffri3TgHgBUBE/9qAYKkF4NRHANiJ7SqfAwiZEQCNVUkbgDz/WAD6279+/j+c1iuAKCvi0j8zkFpLLABXowBUtwAB+FkjABrbUjYAef6BAEbb/j1Dbf94/o9iWgXg4wWA+JFB9QLA22R+vQTAOvJ7o3YKLqYRAI0uaQOQ5/8GIIARt3/Pk9q/D3vspVUAdgoXANWXC3SHCL5123USAL6CvmwsU8sIgMrkquUzwOYKwBtzrocC0N/+fciZUS+AyCbHMUYLALEjA6nD6HjFuAiukpOaCYAFslfEB+evjQDIbFucAQY2AHr5xwLQ3/5x9meKBcAJLPK30Qg9w1ppJQM4aAUh+mlZu2YCYEWJxhblYoDjl0YAdDYDGwAo/zdAAahv/54Sbv84Z4xEAFnqye4AZgHtJ8QNYLUzhOgjQ7tuAnBS0RoA/1RiGQGIsDphA5DnHwpAf/vHOZIpEAAkGaoAK8oAMenoqrhurCDNIJUelPULABepISH/6AWMAOh0CRuAPP/XIQHob/84e6kWAF0BTpIhHNGdK07HIsQfI3xWpl0vAeAnqcgq//tQdWgEIMbqeAOwkH8kAP3tH+fwGUUCwKSBTVuP099aVjLopawS14TZYMQ/q+jVSwC4S40dMY2GzAhAkC7YAAT5hwLQ3/5x9mbqBIDpeJbIDblDfTm6bWw/zsoQPy2TujUTALNTEZe6yBeWEYAwq8MZYAs3AKEA9Ld/eAFQXQCYyHdWTL+Hyn9yfR1kA4kXvRKzWu04G4LM1xUENRMAc1LyM5gb4QtvBCDMZkM3AHj+ry0IQL79e6hy+wcWAEoFgInCwHNzvKADEilW54fDXilwc1pBECUZAanDiolXLwFgA2RJe9EVdfyYIF4jACLbDNsA4PkvCEB/+9fnyBn1AqAjv50XZyohvH1xtlx9AsAGgCSdoOVyvCBKCQsvIwA6k6sT8l8QQB3aP84ZTKMAcP41GIDwekmGidqB61r6BYANgMH5NwKQY4vCDDCQ/2vmBFCj9o+zP9MrAPkjvVZHsQCqZaseAmCOpBdDxowAZOmWbADy/OdcPScA7e0ffgBQLwBX5p0YOxVnCRFJQHzJBtAvAPVe9JkRQAW6ha8AXJh/vgCYF0Bt2j/O4buyUQmAf+ZGkI7FBACvQCP2mIwAmJPUXQAcP5XzrhGAPN0FBUBhA5Dnf14AWtu/AruzkQkAbfSXk/oMoHrBm4YOSBb9qaP+AmB2JHZFAsaMACrSXW3wBiDP/zIB5PHX3P7h/KsXgKACIptJIOaYrOPhZEmuOfQLANNKMjKhzYwAqrPFGgM3AHj+r5oTgL72r8Dhu7GRCoBjebT3YuIyOeyQfKfjBxLlBQCVpl8AGC+Rir8RgDzr8g2AQfmfF4CG9m/A7f+AaTZyAXDckPJULo8dElYBcbtVlixGxwqSuguA0+oMt24A4m8EIMvE2ngDgOd/TgDna2n/QPyPBMt/xQLA537xU3k1LC8u+/1R0LKG/LlMiFY7oQjAiRbRZoJEi3GEzOhHZekPW0wEL1qEqLTb4B/TMCa3XgPlf6EA6tH+7Q/ir1gAxdDE+M7sMhVYXlj8/UnvkI5N+HMTJordCqKYoBDNWK12BE8G+qNJn2Fy03XXXHPFDUCe/yvnBKC9/TvggL3PmGFs9AIAuF7QmY9NHEWB7zKlOPkLcPhnDgT+3Ej+FfvUOk626wdB1KcdBK77P3v3lZ82EEVh/Er0vjhUEmRKOpD+5DyJN/1mm9Ee8p7WULGR8DCjkO+/gsT2PYijO5LAlkP99u9WDDAQAE1SDADAhEP99o8AuJYAAA712z8C4FoCADjUbv8IAAP/3L4AJhzqt38EwLUEAHCov/tHAOjXsxIAQFx/9+/5s6ynx55kbX4iAE7oW9lJA2LNu3/lq/+NDAACAIgvsPtXePAHAVD3kaKuACbEF9j9K67+EwAnjK38Y4HYyMlfqYUAmApgRGzi5C8BcIqdPSAgvkD7Vzz5SwDUe933UAAjYu3tX/7yv7EBwB4QEF+2/fucEgAVdO3cBQRiI8/9IwDuN7BzFxBILtr+EQDVTFTGTAAzkku2fwRANY6lmwBAcrn2jwCoqmOpAwQSje3fdhkFj6P9r8t/AqCyoaUOEEi0tX/bhSc/zNe/xp8AqGhmqQIAEl3t334uf4QpAfCAm4AjAQxJNLV/e0+OhARADVOV1RXAkERP+7edS0ZEAJz/iitHAEMSPbt/keTsCICKWjNrBwGARMvu39aTnAUBUI0zsfeKSiDRsvu3lrw5AVDNSOVMBDAm0bL7F0kBAVDJUFm8AADeadn9eyQFGwLgNKc4/2MBzHmv5eTvQgr26V97AqCUO1F5M1cAc261nPw98RVgRQCU6cxUQU8Ak77oOPm7kTw/PbIgAIrckSoaCWDUay0nf+eSc5MemRMAeU5flZg4Ahj1UcvJ35Vkea/uqQAIAHcwUyWmzD+Me6HluX+BZKzTIyEBkNEdqVKzlgCmfdTy3L9X/p1HAV7xduC/3O5wpgrsXf8DL85q/44//r97Fchv3iotuQAgAFrd4UTdacz8w4rbs9q/4nO/Vr8uAsJdemwvQgC0e4OxutdAADvePqD9y9ito2jzKs3y/+sAcL+P/lSdMusIYMvzc9u/CkJpcACY3/QrN3IEsMZ7flb7V8VKmhMA5s1UFdO2AHYToH77Z3/+mx8AI3XarCeA9QSo3f7Zn//mB0Dv9Pj3HQGs817Xbf/sf/9vfgC01P2mXcYfDfFOc/uX7nyxx52qHNsP/C0adQRoDP+5zvYvvfHEqtZgaj8Ahuouk54jQKO822pr//aB2NcZziwHQFeVGvdcARrHe6un/duFzTt4Iza4qmAy6DgCNNP87fbB7d8+lAZxupNCAFgqAaajfpvhR7N5i92D2r9VIE3j9qa2AmCgvpmOx/1+py3AP8F/sz3z8n8detJIrb6l7HEE+Pd8utnVbf9eGZh+AIbMF+tt5Y//TRQIgOviP17uT83/br1g+IGrFTyKNpvSun8TMfvA/8EPgjD6JQwCJh8AAAAAAADAV3btK72VEAiisDflnJJyZGb/i7lNtRqB0uud8Xd+Z+TXKhoNAAAAAAAAAAAAAAAAAAAAAP6rXrozvdwB+HMi8il1KdtfkLL8H9kf6AIAHvzU5czvZFtsiuPaTnIbdGoCegAYb/SV/Ij9Jlub1RVrU/pARZASNQCMMfyp803fk3+I/TJbZPMTi0wvH6rAi0AtYCgBYBw8/HX2Pfme+nvz8PDweMYW7413gfdA0wIqgTsA40i/wq/sK/qR+yd5PqPlaALVgLeASsA7oKMDgOHSqb+kf73Wxq9t36PvwX/JXs9o+VAEuQY0DHgJrNelA6gAYJj63uPve7/S7zu/h9+j/2rezPuZvPpqvAaiBKIDqABg0Ppm94/41+lX9t/Nx2f2VdHCh73kLVB3gB8GqABg+Pkvw7/P/iX+Jf0fH0r+t/mpfBvVgErAO6CugOogQAMAw8//YqHhv42/p1/Z//2dTCZTsV9+f20pOiAqwKeAtgGGPgMAFMBqFfu/T//Kv4/+Hv/fX4V/dqAS+P31CmgboJkBhjoCABRAigJYnxbAy3kBeP6LswJ4P44AFAAw2gmgNICfAOoRQB1gH3EIOD0DvLxE/ikAYOD8AtD1BmgrwN8FKPQ+YBP/2/lP5B8YXAOczABtBWgKsA7wEjDflS9TPwh8aR8CkH9grBcB9E5AdEDcAvrIzwML+6u6CxQXAsd7EwjgJvCqvQsY94DLbcBWXAeO8Ef6F2O5CwygPx4E/rV3F0QQA0EUBc/UoYMj8m8mOBM0sFvdHmZT9F9iDZCPQM4BereVay+GAHn8ef3vUhaBYBEw2wNOg8BYBPYuK+fWcPmLKeC0BSwoCgBaQIscSNRAMgVy3MgsSDZBljGA4r79IAgWr8B7UQO773r0ZlmwoQ74/5UbBQNF0AyCLlqgz4VFHTTCoHV0QUESPIrg3/EtCOO1h6EO/q8uDQ7MfwjyW1v8IOQAAAAAAAAAAAAAAAAAAAAAAAAAAAAAAAAAAAAAAAAAAAAAAAAAAAAAAAAAAAAAAAAAAAAAAAAAAAAAAAAAAAAAAAAAAAAAAAAAAAAAAAAAAAAAAAAAAAAAAAAAAAAAAAAAAAAAAAAAAAAAAAAAAAAAAAAAAAAAAAAAAAAAAAAAAAAAAAAAAAAAAAAAAAAAAAAAAAAAAAAAAAAAAAAAAAAAAAAAAAAAAAAAAAAAAAAAAAAAAAAAAAAAAAAAAAAAAAAAAAAAAAAAAAAAAAAAAAAAAAAAAAAAAAAAAAAAAAAAAAAAAAAAAAAAAAAAAAAAAAAAAAAAAAAAAAAAAAAAAAAAAAAAAAAAAAAAAAAAAAAAAAAAAAAAAAAAAAAAAAAAAAAAAAAAAAAAAAAAAAAAAAAAAAAAAAAAAAAAAAAAAAAAAAAAAAAAAAAAAAAAAAAAAAAAAAAAAAAAAAAAAAAAAAAAAAAAAAAAAAAAAAAAAAAAAAAAAAAAAAAAAAAAAFC7BnNscVOCzm8PAAAAAElFTkSuQmCC;clipPath=inset(33.33% 3% 33.33% 3.67%);" vertex="1" parent="GgMLfgmkicdNKZzxbHs8-21">
          <mxGeometry width="252" height="90" as="geometry" />
        </mxCell>
        <mxCell id="GgMLfgmkicdNKZzxbHs8-27" value="" style="endArrow=classic;html=1;rounded=0;strokeWidth=4;" edge="1" parent="GgMLfgmkicdNKZzxbHs8-20">
          <mxGeometry width="50" height="50" relative="1" as="geometry">
            <mxPoint x="240" y="70" as="sourcePoint" />
            <mxPoint x="240" y="120" as="targetPoint" />
          </mxGeometry>
        </mxCell>
        <mxCell id="GgMLfgmkicdNKZzxbHs8-28" value="" style="endArrow=classic;html=1;rounded=0;strokeWidth=4;" edge="1" parent="GgMLfgmkicdNKZzxbHs8-20">
          <mxGeometry width="50" height="50" relative="1" as="geometry">
            <mxPoint x="260" y="120" as="sourcePoint" />
            <mxPoint x="260" y="70" as="targetPoint" />
          </mxGeometry>
        </mxCell>
        <mxCell id="GgMLfgmkicdNKZzxbHs8-29" value="" style="endArrow=classic;html=1;rounded=0;strokeWidth=4;" edge="1" parent="GgMLfgmkicdNKZzxbHs8-20">
          <mxGeometry width="50" height="50" relative="1" as="geometry">
            <mxPoint x="50" y="70" as="sourcePoint" />
            <mxPoint x="50" y="120" as="targetPoint" />
          </mxGeometry>
        </mxCell>
        <mxCell id="GgMLfgmkicdNKZzxbHs8-30" value="" style="endArrow=classic;html=1;rounded=0;strokeWidth=4;" edge="1" parent="GgMLfgmkicdNKZzxbHs8-20">
          <mxGeometry width="50" height="50" relative="1" as="geometry">
            <mxPoint x="70" y="120" as="sourcePoint" />
            <mxPoint x="70" y="70" as="targetPoint" />
          </mxGeometry>
        </mxCell>
        <mxCell id="pcGU8uATrUrEn8qg2J-J-1" value="編集" style="text;html=1;align=center;verticalAlign=middle;whiteSpace=wrap;rounded=0;" vertex="1" parent="GgMLfgmkicdNKZzxbHs8-20">
          <mxGeometry x="260" y="92" width="40" height="20" as="geometry" />
        </mxCell>
        <mxCell id="pcGU8uATrUrEn8qg2J-J-12" value="参照" style="text;html=1;align=center;verticalAlign=middle;whiteSpace=wrap;rounded=0;" vertex="1" parent="GgMLfgmkicdNKZzxbHs8-20">
          <mxGeometry x="200" y="82" width="40" height="20" as="geometry" />
        </mxCell>
        <mxCell id="pcGU8uATrUrEn8qg2J-J-13" value="ISBN" style="text;html=1;align=center;verticalAlign=middle;whiteSpace=wrap;rounded=0;" vertex="1" parent="GgMLfgmkicdNKZzxbHs8-20">
          <mxGeometry x="73" y="92" width="40" height="20" as="geometry" />
        </mxCell>
        <mxCell id="pcGU8uATrUrEn8qg2J-J-14" value="図書情報取得" style="text;html=1;align=center;verticalAlign=middle;whiteSpace=wrap;rounded=0;" vertex="1" parent="GgMLfgmkicdNKZzxbHs8-20">
          <mxGeometry x="-3" y="82" width="50" height="20" as="geometry" />
        </mxCell>
        <mxCell id="GgMLfgmkicdNKZzxbHs8-15" value="" style="group" connectable="0" vertex="1" parent="1">
          <mxGeometry x="440" y="140" width="182.26" height="113" as="geometry" />
        </mxCell>
        <mxCell id="GgMLfgmkicdNKZzxbHs8-2" value="" style="sketch=0;aspect=fixed;pointerEvents=1;shadow=0;dashed=0;html=1;strokeColor=#6c8ebf;labelPosition=center;verticalLabelPosition=bottom;verticalAlign=top;align=center;fillColor=#dae8fc;shape=mxgraph.mscae.enterprise.internet" vertex="1" parent="GgMLfgmkicdNKZzxbHs8-15">
          <mxGeometry width="182.26" height="113" as="geometry" />
        </mxCell>
        <mxCell id="utUIKrU_M130MY80s2PG-4" value="" style="shape=image;verticalLabelPosition=bottom;labelBackgroundColor=default;verticalAlign=top;aspect=fixed;imageAspect=0;image=data:image/png,iVBORw0KGgoAAAANSUhEUgAAARwAAABxCAYAAAAH6RzQAAA3GklEQVR42u19d3xb1dn/A4QyQzwySmkDtGEECLRAoUAZLZSyWgqtibVsh0CgzJe3bEoJ60cpZQUom7LKMFDIjiXZCSOJHXi7X9r3QyEEJ87w0PCMHaLf9znn3Ksr6d4ryZZsp5w/nsiW7pUU33O/5/us70OJRIK0adOmbThM/xG0adOmAUebNm0acLRp06ZNA442bdo04GjTpk2bBhxt2rRpwNGmTZsGHG3atGnTgKNNmzYNONq0adM2igAH/2xHFYkdMp7Hc1Sz6cvkjx5O3tgPYZXkicwgb3wmnrsAP1eTv/088rb/kKbjmFndezq+DyW20xdZm7YvMODQ7MT26UBA1dFvUGXkHArEbyBf5FnyxeaSNxoif2+YZiRCdH6iLsVqEkEK9NaLY7zxeQCl58gXvQmA9FP8vF8GsOEz9cXWpu0LBDjpQEOVPV8DsPgBGo9ToGuJCSZV/QCarjCApB4gEpagEg2mWQjnymP42Op+BqYgzcT5/q46nPcEVca85Gv/qhvQadOm7T8McPgmtzIM8nQdCnbyS/J1zwdABKlqICSAwwATCTL1GcbP+6INjq+ZYIT3qh6QABTomg8Auo6m9+1vBR594bWNyM1WQcL1pzlTT6FnD3qTHjzgLXrwwPmphuf4tTlTq8SxtbSDBpw8WI35M256qto8G2ATEi6RX4BMnWIw9YW1GN4zBvDprJfA072EfD2/oMrWr1iBUN8E2oY3nHDSGPH44AFn00uHrKA5B7xPjx64KsX4OfHaQVeIY5fKczTgZEVzGcgFAJRSoPMKAM0SATRewVQkyPgLDTQZrEfFecCMGHg8HBuKnKvZjraRZTgH/oiePXgFPXDACoDPqhTj5/i1h6ZeohlOji6U+bM/fixcmhfFzZ68+a3AEC4a4GRYhGND9TLg3H0HeVrGW4FRm7ZhYzgCcA5aSQ/uv1IwGqvxc/yaATia4WR3oeikpWPI2zGLAn0hquqT8RUR5B0ucHE0GYRmAPR1vULe1iM009GmAWcbBBwTbH7cOpaquu8UGSdxg0dyAxoZ07FkpmIqCBxLjfP4OD5jZK5iKmOVB1OSwBcUQFi1eRF52k/TN4M2DTjbEODgXSTY+Fv3BNg8JhmEAIp82IcEET8CvdVbZGDZSJVXbw0h41QvXuO0ubUeh4/l5410uRW83F0sxJI6wwJ4Kju8NCuxow4ka9OAM8oBB39FCTYVbXshRvKcKNTzRIP5AQ2nsrdKV8cfW4jzH4NdA+YynSrjx5O37SjyRw4jX8c0ZJqOJE/riRSIViDofI2oufHFF4hzqxnoROo8mDWgzMd52oM0A5/ri7yGmp099E2hTQPOKAYcgxEgCzURYPOsAA1vTmCj4jq46c8HQPlQ+OeN3gNWdDqYx975R/87JgOMzoKLdS++RzAlSJ0eO5LuV4MIInPBYHV3LVc661S5Ng04oxhwREEfWyCxG27qR2XKOxLMKV3NNkMAzWIAxDVwgQ6wrUyuqN1B9ESx8e/iOfU7v2YT7IWbdBD5u29EJiqoABAWSQKdZEAIZqNtoqrnj+RpO1CDjTYNOKMdcIwgsTc2W1QMu7lRRlDXY8RoGGw674D7NCUFwASwzN5+EP+J7dKbNam682Dy9f1WACHHaszAMmI3/h6O3cwlz8ZDdZZKmwacUQ44SbDp8AmwyeZGySAuWAUCvIHueew6pTCZAt7wsmdKxZXwCED0oY0CgWVOz0e4BgeuVN8CMyUOpqRvBm0acEYp4Jg3c6DzENTZLBExE+cCvrAEm0hIuFD+7ifJv2mKXY9VUdsqvNEjUOn8iojtVPUhKN1+jC7606YBZ5sAHADF6YmdcBM/JZokZZ1Ngy3YGBkjkSbvvJ8qPh433De62WJR2f41mvH5Q1TZdrIGG20acLYBwDHrbbyRKulKRUJpfUtpLQsRo1HzXjp1w24jFS+xVkDrALE2DTjbAODIrBRtxx3XcKPmoRAv5N6uAOZTDekJf/xJk9nQyAVnzRS+BhttGnC2AcBJqBvWG71a1bm4yEogDc3B2UDnW+zK6EyQNm0acHIGHJMdzIBKnz++WCryOQllMetBjxOzG5+Ol2jTpgEnX8AxYiBVkcuzp8EjskXB23GjBhtt2jTgDM6lqugYBxB5Uyj2uRX4sSvl73yTLuiapGMm2rRpwMkLcJJp5Y4zqWZrUASDPdnYTazKWrOjLYshGD+baPuExdTv220L3x0P2yVm4/tajZ8b5d/fbM8x2maEzS6a2P6oABwS12X7NBu2a5X7gZ6O31iCxfbxG24Z8MX/KGRF1cXUgGJ/0WsJ0pEVOcpH4jhx/Gi4gUmBC0tfCmDJdk4+xw5PiYTRm5fTcQn7NZwJVDaWPg5pJAAnn7UmwWcHsdmNaAznnA0TASKLACYNLtMTVIFf7NKRToGPYqDJYC18cdfuReUtpTS5eQ+a8vFY2p8f15XR1/BY5vAeI/C3xfe209ddRHsk6mnvzWE6qH8JHYa+/8M2h2gq1Iq+Btst43jxHsMPnLYAUJHYhSowdDEQ3RePUzBYEfPRur+C53fPOLcAWdZhBRy7dUI05t+TaOKn42jfdeV0YEs5TeW1traMvrphUtq1MpjQiACOL3oqzdgSsqj3pTIcv8pO+bvrjM5vDThpF9/y+2fj6SsbSums5hKavb6Mnmkpo0VrS2n5pjJa1V5OTfy4toTew/MLADxP4+ebW/ag0zbsThPd3rdoQJNIfs6mWtp9oI5OQI35nbBFA0H6B6wdPw8kllE/G/KTbJs+D9Jf8DgXr93cX0dHA2y+lAI8w8DY0oECAxf3QdX7dKzpO+D6/x5aSAvEdA8eV8TDFT3RxVjLL2BzvUse12M724z1k6gqMZnlVDKsqneyeK2ic8KwA06ae/RvrJlNpXTGZ+V0Oza15wEuobXlWGdl1BRVa21dKb2N59+APbC+nGo+G0ffyHSbhxNwApGrsmSnQqLNoRJD7XRWyv7ig6q2jqcTAR73NpfRO/Eyauwup8YYHjfi4gNcVsGa1krjn1e14ueYOo6PBygtxc70ayyQ46wMiYp141oYTW8d7ft5mG79vIH+nlgKcHkPtlyCzOf1AJggbRYWEta/Fc8l3oYtl8dubRDWhPOv7ZpLk1JcrmJXmLP74+08QWouRWX1+ww1E02qRSZlU1gMjlUg+XVZJb8YwPRLqorvn1Jt7+vw04U8eBHnM1AJyVpl3D94YYI1nu60NggXHXAoeb2aS+nQtePpNmxoYWOtMcBsANjw+lLrjNddE45Z1YbHLhzThWOxvhpx/pyWCXS88X61VJjpETkFjXEhHoWUp1uxX1AAUiBeo9lNJvvAhTthA5hKhC8qLmiLvOCNsJXqsUktgnRrsh7HC4MXTlu5AKTH8dx3isZ2FIgxOABQ7gFQtCVWCIAZUODSi9u1R4FMv43x833qmF7w480AIAFSeK9mbE83bnhe0fgCx3dSJ4e0Hk6B2Bw1HDFk6iFJTeyQ+2DFiFSjFEqUvYuoumuGmUTxAHCkbresuLcan3s+A07ktmEDHHW9Pt6ZJgNU7lhfQk28VjbksdbWqWPw+D6DFLMgnH/fmon0dWNzKz7gVMXLcWHmiYCwvVaw3BmqMKEhEDtaVxUnb/5/jqXyjePp1jZFXy0X3mAzyQte4v675Xg+XzCfTQAeLK7r/zWexhYMdCxsaXMdVQIcPmag2RIWQNML60sBGWfA6d+SeRyf3wv2M8DvCSD768Bi+mHSdSsgq5n1wY7k7Z4lyjhMIbZY0CKkn6vgfr0JPDxKuqrrHtG8zHPsnSvupR73cAIODMzkR1hrQQaaluRmlbnWXMxyrAAnfq/Wcgp/CresEO5VDoDT/S1zmJwnYpOZgrHAuS8yl8FJMxt5039SQofh4r/eUy5cIb54jflceBcz3C7eiRp75S72ymoEAYcMOmoxffA47bilnh5KvAtgaDCBJhVYXIAmwzKP7evHezLjAaANwFW7uaBg4+maBFfnAXHTS9AIFWi4Yh1dAObC8R9f9GJRTT8aAAfXbX0pXcMuEbPgZgU0hbBmxaxjvGGOw6iBIYJODvGb2BnCL3UexRIS7pY/+owGG3mzf1xOJ7cjENcugWFloS6+g61k9gQ3KwTQOXrQoGMsImSdBuppfmIlGEoY7pB0i/rhkPTnDDC5A1EfPqMPn8UM6kkzZjSIBW3qNLEMSaD7OTlpNS8x/1xHGRmz1pj5NDhmbIcDcPjvdBKNQQLijs3ltJJdoubkplaQzQ0xw/ebZZxnJTbPlZ+V0qVD2dhyyFC1VUuZTsddIiQkQ/0yQFbUtCaPchkhyxVsPi2n7wNolhu+M/vDuVz8FulDNxrMJdcFYcSDOMDcVkrLVhtxncEsCM5AhSkowCZE3XkxmqAZs+nL8Vjrcz2JRurHAKDnk4WDg1ACOBdjivw9LwoXyhOR8+tzHsBozDuLhVxdLL9VjiVS71AEW3zAUdd3XQndApa7Ms+NTW6EpeZ5Oa03XpfM2NeUkn+waywHwEH/1AyuMI7WOVyEOvl65IpitDKYF6syejLo7Ku42BjpEv3jMNpr2C1fw7iaYx0D4mpHRtzlm8xscPM3ZtlpmoyMlArUcSxmVQRMJYpz+XGDhcFYj3dYPBJ0ykW2IYTaiv3yYgqqMhg3/KsCbIJpYONsPXCNNgOcRDo88Y6ypUnXSQWXs74XA5wAnTq6L59Asgk2FZt2Bxg8pcT8ZXDY59JgnAwM14sR0Jyx4hlnInPVZQkcp+ly5wZgRQUcI3j7aRld0DtebFArcwQMcRzYcFM3fmagYtYSVW6TEbexW2tqY1uFdbmSN7c1RqY0Tzaa/QBv9Doxu8kxJY6Le/5W+MrRC4sRMDYvlheu3UWJxSKW5MfEheEyr0hx1rE2svw+FbbpQS7SQ2ZgHgeIm5PMxtU3bjWCcnxxEZhDKvIlXNhn8frLsPo29ToHh7P55fx5fExUxopea+VAMusXZVsQ6sbevARxlEYbZmNlJEHEc5QrxI8i5f2OBB489088roQ1AoQ+4nMQA+rnlLglY+XIcvpD0oXDezLg1eQKOsm4TeRXShQu6Ao2xpoN9NQryVnOLM3Fc0/h8RGhZOmLzMfARZka5xodQ2gudyse4Kjr2TKejmyTWaRcwEZmOHGsivFwzc19sNsRaL4ba+f3sHc5BtSu1q/TGmMgYsDC+yyMo2A137aIHFoaojfJXcPJpQIFFRda3ZBUWFFy82J5YqeB4SwWgTujZmJYLFango+X2/7/1B+7GfUxTDdxsVbauVEmAJUKQHhfpCxL6S1c8Ms2TqTDRFXxFNqJffLV+9DOovp4PB0B1vTfuLgLVOZhVbN7WpM/Y2UvDMVbN2VNZRo3dD0du2UZ9SJr1JtDMLiXg8nq57kAhwAYzT4AlrGJD2hHYSEaB+Xo/fF+F+OYMAeeOUDcLzNcrjEd1Or0fb6UWgED+2fLXiX1tTvOUD18QQcFSsu01ZgEkkDnGygCvEIkRWYi53f6RzuJEhDxiN99sW/jfa5FqcdClU4PjRbAaf4q7YJ18VpEggPb+07ZTWY1cQ4ml1ID1tq1WEsH/zWtqngp1tzG3WgSXvegJuw1Bh63MAADUg+YFQpXb83XtcolaPxLMdHSEeUV4Phi3mLIUaQBzpIcB+0V0GKqZSN6UzqDM25m/OFPiqbGXpxcH7GDtCLWggrPGR+VUU7TPleXUAkWzCU4Z3lruTvoqEIupr2rWsbREa6gg8X70SLaCTd6k2IqjvGXfun29AFY+DGMauNjc72GAKUzEBv6H2YvIjXuAmgMSuK4OnqTjMZQNwVKD2DZG38D1b3uM+Z9PB4IrhIzG1/P5XxeTuuvCkMW/Z23KdAJjyjgqOsINlzTIwPEjS6gINZDXLKbe1p2pr3teqzS1waD0cZyupYTEU6xRCPeyAzLWGO5gk4OMZz49dKlijlXGdfApfLGZxaj6G/kAUf1iKmgeLrL+L9EX0KrwqsdKuDrEF8RICFiM6X05selNM26uxg9Vob7QwZNxfPidcNtK6ejsHgWK9rrFohu5F3tszJ6Sr3/dk7sZgtPal+uUt/yph+wc6mQupZp7CDdlnR1jP6qNFptAIW196qWdtnSQI+ziwXXyQl0TJdtK6qU++roB06ulRm7QezQoq/d4Cyb0sPNxew6nZBS1KraFax/e7Mx07J5YuMNiLn2vs5cgKfwgKO+32qiElz7ujb3Ir5VvOkoBnRhSiWyU2U6nltKlrVWRlcyq24udQS1Rk6VI5bzRE6ue+4xnNgVIijMroVTbYJIQSqXY/Z/GuCYDOfulP+fQnQwj9Pj9mBjulEMDuiRWsV09dPxtKfRSJez7yvBR/wduOpzw3ha2FrunvpEOrMxMh6PE+i7jixHspu/A0iSMZZMhrN5iwKbgSX0CwugbJ9H9su8ccFc7hcAZ2U6yRiR8SiYFB7rTKkLO7DhRktf13ylQOk8VlpoNHUv4Pn0JtDkmNzgDdTSzuCVRYSxYJbgccEBx2gtQD+UV9V2rXRkH6plBkyoOkX+JMf2iA+OoB1Ve8TDUYe1LYzLMRjU8ijHyP4Hr4zUZKlpCAkG5IvcXtQsFQPOTGZSIwQ43uiv0wBHMBA0xT0dl3GbRicXZ6PslwqbTXGD7EsxdqBPJtKheL/3NroEDNl37xovvtMDGdkEg90E6ZytiMdscXFzlIszgAlk9w6t6VLJWnCAOkSvC7cpaAaSB+yqlFEU2NezhI5KZzkmAATiMxFfrHN090UauxPxmn5Ok58oJ3ckxgxuHZotDddn1/Qumku1A0Dgxag7u2lUMZib81prad3lwo0fL4sJHQEHoAcWtBLf6de5ZqxycanOyqHwj2nm08WZK2VmqX4I6rwAn7NYgU4hLbtL5Wu/3QQcowZiLB3IWYIsFcSiDQEX8OyhgE16g96aEhTZu1PeJnT+MrV+h6UuUheEfARzeQ03vmMGiVPeiO1sxuMHotN7yD1P6vPraCIqmVdvXaYaPpONn+bnG7GcfmZEShMoZV3UJHaGAuUfpJvjlP6OqExT69VDAZsUsa6aSAncq1dEK4/zPVE4wElUmACPaz1tvQoKc0GeHbtplwHiea1EYymbq2No5VieY5kUjhcijjO3PT0gbWNczoHv9c6Hu0rmns21yoHhRI+U9DFuX+Rk+MfeyJvkTZQWDXA8HT+iyxILES8KC5+9EDZDmbczB5eq4wYzLW4Ei1EH0VPmWnTVFJM7xDMF1RfB+3yEjBY+v7bDebcTQWr2w1GSXpHR8RumSbixN6iamc0ZsZSwvPG3LhXxnVML1mSp3CsAykUcz+m3YzmytqeXwU64fPNp14w0OK9L46a3u/EFu1GCcJyFKoAgnMlyvG3nWlh/8SuN1XUDo5jVqyqKnarOu+V6O8+1w5vXYhqAr0HwFwHgO8Ca3zZLNXKrVl6JdPvyNeVUlcuGmsMfef0E0NEFog3f7+Yn9wV5ERQ6jmMG84RQ0sCJkDo9ns7bdMLQLXKCeC9P+w+wMGrF4nRkOHAZ/R2XmXRefSdc+CcYUOwWgIjflMrAGnzdkwvZ0W0sJPjO53Yrfz697od/XycXw0oEj+9LUetjdlNHP4I7JTJPtnU3qo4GDOPthEu2aHDXk7ZjXR2u1/ncALzU2JGo3eEOc6TJe7uX0OEGQ0oOY+yYlVUyRcbeLi7UmjRZzizoe3sir2HNO6lfFg5wZicDuUhbz2EXxil+s0le9zp2h3Jxm7jpF/HAs3DOUxuUEkGLpdjUIUaU3NDUuktMoBVgOX/IRcIiN3kKT/QJ4Ta5yVOIWpUO/7YmTyE6fz1oPJWAE3Z2qaLTrf+3GOpm8MdesqncsRu3SQR2y2ley57JHbqQ0hHRcVSK7xDcaL8bCYYjgnrIjG0gVXuhGAY6wW/nqmJRtGcvLdHLgdt+1NKkB36HDJjGdwjS3SpVntmBLosMRfAYoCeaBmstuzIYzMNSY9tpTYKRc/xm+sZvFFJf22RY3nY1n802mVIwwDnicRnA5TXEQm2bnJIFpXJzgYrf7enxlHQgaN2b9gTAXIB18waymcLlX5t731+jUdXeI2vJGvA+N6PF4luFE+Di4XczLYVVdrtJlVAEfLiogte1AL+KAhn3SAkw7ThUVJVmi+F4OmXQkWSlMfvTG8vNG73JhuGsEA11JfSrYurV4P1/q2i0U9aCFd2WgzILTZOESrPjZp6vamp6bdoM+j+XoNPdt8gMdBcsGTBbsSw0iZ6wdZkElozAsdLcgYwFf5/fiaC52u2F2p438roQvrKPo0hBOC8E4QqdNTUAxx8/XtTm2A8VKBzgqIzRp5NoX7N3rsR2gxOtCqgJO8fMgqa5TRt2o2nrxtMtiO0tFbpKSQmLRof3TIKbYlVcnxMfLzJhb6ECata6r6j4YEEV/7xcycmBYZYYjdS77CiM9l/fFsbDmP749Mi5KVWq6fEpNmY/09umyvSyXDSIi5zc49I0Jyo8uThrHP20IMFih+Ax0t7nd7vEkZpVvYSRupTpUdE39TeudXFgF31KKvRPCbXDFsOQzJ6EVbWW9XEcCg57BQMK02I+vkLdQLhW+2FN1snmTAdWyto1lZGrCl2MaqbkuSDQx0Mhbb9DwQAH/+cvKff9WAuTtdNOauK4CyrWj7Zubh8R7YTzfoDN8WGjwn19Zo+ec5NnqWBN7xtiXhtZ+G08ndlMtMtgdLZz+yNzFy5fYKfAsVX1zxO9YFsQ4UpS48jNKs1Z5xwQj75B50itnwrjRt+DKnuydOkKn3qcjD8UWgnfeD+kLk+yiHvZdvh2Sr//LOPc6AIqRfzkExEwDmbGcERP0wrx8+uFZjfpAWTuv1JVznZtFb3itTpUQicoWQ8zHW0HkpWGXEo14E61i2A5M+OCr59L0CzqgfaxlKoIFZvh4PqdGUu2HKQ2VpabvXQrWkpkRTFrGYOF+1krSbCS8hQBN8cwgEVl0nSbwJDfBUjdhhKQb2fEEgvdvGkpALzP3Wdmt6qX6eVr3Lm7TcRvZrXsiu/9sqDm9v+vkOoj+11GeTkyBl1lzq6MqPbEBUMAb5+i3LSWVGm7e0ZB1GU0owHAOLcHExU4Q7W13qbQT/7es1XKRTxa6PhNeoocn7VYgJt9V7lkWpypwgQIrFZ54wY6T3QPGIOJC5eq83vF2vyEi++LPibuCU8GOy4Y4Fx+OfrrJJOd7sRkW2QTZ1MLa16Po1M/K6Gr8HNDt2rGNATgnBhNupqkACipbTwfdgniR3s7aScXbxCel12PrVkKntQgPE/0vNHMcpLsJnaUXJiRenshpVidcreuMM4zmAV82Eu73VPiop/FrCwuktjXpgk0pc2F4RhtDmbVqayD2Rc38SYhfh7OqMFhF6s70STqcGTR4FIaUwx2oyqP3xSAE7bRR65DpmypAL7/60BDaDJDFT3Ftercj5Q4byJ+JSlSpHWIdfOQ0IIaBoYDAPF1y4zoCpt19r5iORyLYVayUoillybdphZ33WzhNnUpVgNm/jR+/wnW1u6FHhuT+4FC2zgyT5SROxc8hVUTHYbhrRm1w/B4uqKKTd3oWkXtU1XU/o7j04v+EMP5eTaGo7RH9ioSwxHfg6VF28a7NnQ2xmVqPmBOYFhM++Dm3igYjn3RnyGINadogKNaIzh4vXW5YjiZGsiC4QD4Pmx/kfYwGY6v62Ql9VnnuPlV9cH97/huMbOmnCQRDNgTCRU7hgOlPY+bC49gcUoA2SmZYQkOi6JRw20COK3AJno3YjTHpGS1CjyAMb8b1Bf5hdzxHfVBGpLjfo2AXe2oGhtjBv383VCH65rn2IcjgsWshxN909pZPDvZsVudjeFskP711GK6VNjJjo6UOXf2mi7VRBW8Thb9NUM2QrAIO2EtTpnjRn++GFMVrIbPWurSRd6XkIHt/+FKZ5PhYAOABlPI1b3nMg5/7LRiKBhIdxxZTlTXi88poktVMVsBDirVVQvNoCRrDYazzuI2dcm09gK8dqWZxbQATTHGD+WnF8uTCX2ddabUov14Da7yRDyHZQDavzPaXCvz4vvbr1RxAOdFK3evW61AZaA/0os/QhqS6e0K26I/XNAOlmMsUx3PhU+LG9XOP42Vuaq+CcBBSfyJ5rlzaCeAyT+3LnNkOELzBsHj+qJOyZxLY/FZ/0osc5TGELVA+B4Nqcw08k2wnHDW1oJApKbQQeOkwiD+6t7IGyqpEC66S1VCJ7SVD1qvWLhN5vgXbiQupefgOlWkFAkWadrm4FwqMi/2L7OwnGTlsb/rZa5UHi1p8mQMAGlVfzd6sjqd56QLpsZyk5GT7LrEMRr1aBfNEA7UreidgItcTpcVKS1uMK2b+HOaXdorWqVC20HWniT8z97hSmLb7BC3NMiA8kY4LmXFChhDZfBgxJF6XDSTe+BucXPpH6wFg9jIvgp3SVa/+9yKNWO35tLfk+cNIwHHEz9QMeCiVhqbWSqMgG4pT6n0zS6ALqVuhWJkj4z/sGTJfYgHHf8BWcodhnFu/SDiHr17Y3dZBDBxa3psMMXVuSIUKmojDTrJnel/v4T6icdk5XTE2Z2SfTp/oLNadrUdOIYmN1zAt9c71y8IiQBc8KeLdjGhxcP9VJEy56CxmrQYXP9lmmAN1oI1PGbJDqUX3Ym6GDH0LkynFX5CpnwvUcW83IZlWV0qbi7F0LwUwGF3xht5UegP2wMO105xCcfrhc6YmkmUQLRiOOZSGZXGLBmLzaVeXM+SnBiO0MYWErWoUN4I5UhT63oEgCZvwElhCJXRWeoP6sJy4smslTd2Gw8mGyn3yhq8RvvFTfjuzmBjzbZB/8QpDsVSEUgZco1DRvu+cqlM0WkUSu1f0Foc9T5C15Zpdok5vcG++NAKekbzZB0cyhUiMOyk8tcnXg/SU4WP48h+Knxu2GRZDpKjqMOxbR5lV9cl4K82PAtDLVAs0eyn8kYeEMWw9tX3Remlwib2aDyHCQ1ijhQznFJ6GTPpvR/tThOG7DZZNJmGEXCUGhoXPflU0ZMvEs5J3sELmUaD6Qzj/PHkfGl8d3/kvx2ritPZjb+zVkgR2LX4W9yZ7nLbMRtmJoB3GGQYbiyoW5WM3/ymy6WtYZ3qHgYVv8KMPyU1aabBnencEnYeAcNpc9xS7YDnyQVr4Ey2NRyLGJIYAew0SgZu3WYEtdeznEUGw/BHfuLebhMLybqxyH1Whl4Ql7wG7lSgd4ljLLNI3eI8E2qzO+Cw9hJXlS9p2Z1O4CrjdLW/QiYsig44aSznSJEC93YGcxKxErOteu7HrOc9zTlTRXaxaPZSeYFrVu+MmM3NOQgnySwbLxZPu3MtkbpwyBycEC93H9OxQY58ee/jQrEcow5oPB2Ooq4VWWZYNbVzQFk11qV8NphO/xJaxRIQW5xcGqVJA/GtJxUzGTpgJhlWUHSjO4CdUBmUWj1vWIEqyVR7vgrXeJGI4zjG4Th5AQ5njPgZ4kZngp0P7Mp9Vluh9XC2V8V/39ogU9u2ejhrpZ51E2I2DUb9l4jVDMVtUudikuzeSIL4zZT5IDfPoSF9ZfTCLBIB6UxHMod0XdkCAo9gJFYt2opNUwA2v1Ngk+17yrlEnsiTItaT5XtxYRRo7jx2a1wKqxqVwPqTps88yAUwW2kft5DoHH4p4lBrYchMdsjPfYV1l21ZRpCu5Rnf/UFHl0aAEWI5ffjrnaHOHXxNjqrnAdhcIiY/BB1jNwNKZnQAXe3T02NIpmSJp+Nuqfhnc+Mbs6ckW32RKjrGDaUmh05Smxdqe6hmICjAzD+8in8s/Yn19orQQCp1L4OAuuSjBRn9rAzu2SOJclqO7NYjGw3lymLMpXLVemWw8Hbco7JWOQyKj8jaFnbFqrquM9iOyXgGyXqSotdJPx1a8jsiZVkBm6c62UNZ5kaHhUB2VS+zm4OzShoYbg3GvIiRGe5MQ7hWKIW8If38fJmNiN1AKKmrPGXYXkblqSm+VSIL/lIlCtQiWUh7Qxy9Ha5Ln9voFtasgQB6C2eVBl0IqJgNHJHvobYm9nm9Y+yIn9vMaoC4ah9xwZ/zhod6nOqBbKLmqj0lfqfpXucZR8TxY8zsWKCbu9SzfWYxRNS3V+nxQI+b7KfS0O6SGanzB11TY1lvCB3c2CWLA5fH5Dy1MJdjDKbVYeiM4ifI5Pu7npHjVaPZh5DJWU9yEfh7MNkyfqEVeFKYj6GqbyrrM7DM3t5Q1Ddez+iP8nf9AKzmMTltobM+hziTdPt4kZzX6slpJ1QXsBXSinCbWBOkcW15SgOcyTZaZACPNYab0Gx5dV5ZAkuw7nHQY9TT3NKdKmzdlB47apHi1sxulqCgq9Q+NaxkRoP0kIXlDNgKmwdFAR6npz8BOzkiXdfG9btbjsE2cxoUBFuhVTzQX2cR3UoX35KyFAOI31xtJy+aVnz3hJhtn63lhtdbFdxqM45Ym5VZG2vPBBt/97OqFWbYpzYY14/nlwFIQq1y4KFjuwInK9id/jQNGCiP9aaGBFxjDRs0S+na97uklOndqyfQl4eF4WQMkK/ufVkwiVxAx9h5eE6QAIXYQtzwN8PXPh4gMi7v73FVYhf0zRyA95yJlP3vBfhJPZSQs5yGnYBY9Pp8dkBz5CpYjtAiyTJxc52iu6zctt5o6jQMN5UY6cI3lxztknKTrYZ+MiuzdWXZ3QzFNiF9qtiNbdzIWHj1YDn11MbKev0uo1v6pWTFAJjHxgRftXTwAusRejVsggFZFjZSuwgSXw+g6cbnDLiJp4tgMaZIAEI+akVhYFa33hc/TrAcYya4m/a2KOSMPkI1bQc6bm7q51Rd79h3wMxfUkw5PNJzqaDBOSMHVi3iOax5A2mKS9LqbrbjNea63r5M+8Atf6jLfta9GFHNaxHz7Od9DKmWXFPshcsCQVmNqje/nDJIPuuFiciLwyxEjF2F5IAHY1cD8bvgK18Eynwm/OTDRVbA27K3ADZ/bAp5u74JQazv4/wquEE3iYyZ1/IecrfLtgCN7yBlNXzxu+lyTF3Mw6UzMlgcywGIvNlR5ujmJOdTwffmas8NJVTPs3/+j0vKHdwrTr1zSr1ZTkx8V9X1NJmgVu4QMyoX4tcvYYbRzq6LQMVy4Fb9t5KjsC/Cs4xvwbEDogq5nsJws851AwWWwUDwtxog0yhG/oYtQWKnzzCqnINSh9ktHZ+cTRW90yxGddrsxPPcRc4TRmJo/IxcKdaSQyCZyziouvNgIV/CNT1+10ECwzt5E1o0uPavG/PJXDY5UfzHrjVA5wUwkjP/Rc7Xi9chClr3hfTKZWBI9XGXWJHhtnMKvp+F5sap0oUsoYLCpp4r1+8D2vlclrEymcE94yKJ/iXFelhAiRcH/27sUAaIMEBxcJcvKpvUJEm+hzcWdiwIsweb31Jgw26DqUo1e6vQ9NYuZzevzKH03Jz1rFjRU8g6XQOqWoXnK8BMangs61o5Z1wMnm9JyjsmASyzAIwXFk/dfA/BvUNzCurhhv4ADARAUK/kPPuUW+MECNLFeleM7+U6no+hDvg8gru34PEywP0VeP02WC1snZgv/k6KWLoT2EhXinu4luTWw2UCTqBzItbEH4U8ileIpjW4XPuQqBGTsrFhOU8c4OPp8ECw6xwxe8oX+y88PoF10aDkSaznh0fDbPHP9qBvt0lRrJVuG5y1CDAmN6IlWG+/4dgjzMeC6zzJE+vtGmQzn+JWHUNsy41JK5BrjMjpm38Qo6qHI4aTATo//mQSFsAc+QePWV2aPC5YzKivCKUWEsbT+7aCSZDJAdz8KYtPLgp/x6+TYDPIbJkCnTWsqj8+ewe5tU6GgYSzWP0TpEQk01R+5F0jkiaalM3Wq7qb1egszj0wLRdwr3St1grJz6AD6Ej50c2qdka0RLB8BLMj7i7nFLqwJvXYIIBGHKvO2Wwr2G6AzbuCBf0Fw4BKM6Z5ZnOtqpA9EhmprlzXgwQSrjifqTYuBhd+5N95QzPX4iCmtRYLcCzXFanvC3qNOqwS9/HPhh4OtznwBob1taK7LHW9RWVcaFWWBtEmJfYlWmbgsoU+m5i7DG1xiuwuhzB5oOsXMg3O4uSWDJHPYRxr8S2s2FRIuHsidhS/2phVNNTU/Oxkfcwtm+UojxV5NNdxXGeFAhaxgNTvjbmc36wWCS8c1Ab9Iv96HyWGFaTjkJGKWOIsTtKfGc2ewh2T5/Qq16zXpWUhBWw4YM1sCZ+7Bldlv5RMWj4NuVD4kzrDAiTCubnUYlMzSibUz7GgGROyY0mpo2nCww441nqsMrne1ubeRd5krK91+a+3JiNwzAwIIYR3Px2rZswXUmJ0MD1Lqrv8VKruq1XVvSFVKBUedqAxFx6ArwpuWqB3IWqIfmb3nYdcgYk/PJjGrcx01kuXKXuHb4mom3l/EB3Apop+r8waXDfYSlAj44Qiv1MQtG1PLDPH8Q7YBncLYP1yMgMzGwE2+P2bVpH1QW12nrZq6S51ZgOFwa0jDxg7u/kiVhhpcNhAiw44lvnzY5AlvYM3mzR3Pq+OcrH+svRoKWYjZlYhfPAO8tMnDXtaPLvuDPSQPQjscv1NtalhEspes1MgM4CGA38yXvNYss6meJXO2AH+SwSHs/jCQzF18Ve1lwt5yVlD191RBYGL6DgAwL/VDPCerCxnMAY2JIbdrRBu1J82L1C6QUPo2UrGEtt/JqrgZWwvOGSQsabXq0Vh6Gui6NBttJAVcMz6nwIynDQDQ7muW7lEzcVZb4IZicwUWifQPnGU67C94Qac9FJykVr0RebAZw5L2mv60cUCHcmoWK9EZK82v4py+J+ZLlSxmkgtNzwLX8PHrVPSkI1rBymeZDcShP3yHjkhcSGmHp5SOJEvecP3zqfJyEK9ZcRiMhT5BsdojM7wXmZQIpgcpqc7amlcoRpEk1nT9u/g2r+iKuHthM7zW3eceeW0ePXAXNTkHAQwOdtFT2n4AMdyzbkYD+utvisptt5YIKBp5NqbXhlMfsKi050/Ex3WTm3+mef5+CK/FRkABoLqfoP6hhRIhC2xnnDuLCaqfPeIkYUIqRgSi6TXUEVzWfqiLKoZc6MwtweU906e4KAWgrEDNeZBe8VFb1Y7mEhzlgm7mdX5Cz4VwnLjIw1+EeI6nzATSSw13azejLaETHnQFCEtI6YjgAbMCdXN/8Dte57dZxYMdDyYoBTouVYwkdRNLpTzpmVktYSgV/fvkWA4ROlCBYT8rBPgyDT9bSltEcaYGwac5w5eTg8esBwg05Ri/By/9vDUn0vxsBwZhFEYCI1rrIt7OWWeNqmhsSXP9caayMzQeySrqUMGNMClGoNhNsMGOE43uSjU83VcKgr1mPpyhkBUg1pS3Ga2ysksqXTONsxQ7+GLQlwrdi95u8+gn0RK7BjXsJjloqC35UgeWgdfWWSSYmXmfCBRxelka5VbxtWe3TJO8zYqif9fs5H2HsLFzyWQzIbutwkAnZtQuPcvkQ5HTY2K8fSrDFTPliSo8O/iOSMGxFXK4hw8YjL8n1E4eHmyfmfwvWW5rjea3no4Nri7hAsvNrktIfs1Zrr70g3jTJVILvSB1XRfSKeqbCYXCPpiXhchOpUBjdxiy3AenHoO1U5bTo8csIqemNqUYvwcv/bQ1Cvzcaky1htEttbJWVSrsq23tUnFyJXGxFgOB3Bl/KbxtBiZrSs+2Y0mjUi3eMGBh1sRePqlJz4DtPVeXMiXBLPhi2kAyIw0q7E8z8E7H4oF/Z2P47wbURT4Q9Rhfi2jknSkxL/SmjV5B8I85wsAPk9jQdTHlLasnfFCUaqCIZ5jznU6n5RYRnaoZs6ifn/rDvsmlWxZQj9F7c1LSKH/U4AJu1zvCUBJpsXfU89JcfQ+xIP+ikK+JzHP/PTmWssAtUSR5SzTRPwBPPtjnfwctWKPizlkNWlryfqz2MiwppgdV372FWs7hYwTxQLOUicRxXCi19ltdHTX5FK4TQfTfVMOBvgckmL8HL/25CGTCiEd8enuNBWAcWkL13SV0rJ4mf1aM9Zbq6xWXwjgeQDM/OyWsTS+EONhRgxwUvpUbBiHGBTPFaBV8WNAZc/GxcMFBxMKRK4SBVn8swCn6E/FfKJAxyEiMJ0msCQW20gCjf0g+ZTvwhMdOPiGi/szBP0uRQHWDZ/xnOZyuh52CZjMucyMMkbN5DHpsGBsJ53aL6I9RF9VPVUg6HsDwOe+vjp6AmD0OEDmt/j9GswOP0dknlJARoHYMCrNpTcFy6bj6Nexjr4rmAozbW/sKh4HBKvCuvo+NIunWPvpjLWUbKmIXixcKl+sLiNTxc/xa57YJcWcGpHvekNiYTLW2ne42I/XmyguLRVr7mq46xduKqUzmDlDzrS8WMqAo2KKgtnDMsTYiuyDqd1hVE/9xEIYzMRCPp7Pmz2sQGO3e+LzBzMYT5wzDIxsEJtc1jWVsIKVSnF7olI5Uo6qCdvoP9Vx9bItw+GWGJ4kOtvBxJRR2q6AwLPDsK3T0Q44blITphkd44alv5YY3XPMs4FIraHGZrG057cbjd9dBHoBJLUGmFhMPFebVBgc9jWUBVhS1pHd+nLZtOTUzdgcOXUzI9MqExgcpA5Evz9iDMehOHWk1xttkzeqNm0OQv/FTAyY2VYeCsnDHo06nIziPxS5BuBcemRXeiHkTf9jrpH+I2jb9oEmLUZThWhYFWIzfgidQ+mvUHE8S7r9GNl1HrXTNJYTI3hm1cxYWaHH1GjA0Tbi9io9h1nbzW225lndSNetubJ4rtW+k2jvD1+gC9a20eLEuSOa8fRu2k8Efn3xPwqX5kJM1apsCxSqJCI5kx6SFTWOkrUqQxV7YLSOutaAo614gGPYw+33/qcBjiyqmz0GU7ePQe/UHYJx8M0e6FI6S92ohYnPY7W+obayJIcoRvbG+y6wHRHtEWakxGeNSO2XBhxtwwY4v9zYhieS9Ru30K4XUXimeO068drk/wTASergYHLIjC2/Ezo4spK4IUWuRAhuidlRD3BLy1AYhzmxwRu7XX1WyFbki+VYpGb3oaMpYKwBR1vxAUcAwm3TxGuXr+fXppnPl9K4k2jpTDrxozrpen36Z7pj7cVp9TdjHqHrp4ylFdfQ2av/LI6rWlNHczce5ww4tOMT9NpZVPHph+Iz/544Es/tfDW9egod9q9ak3FduKaW3k7sNyTXphryojONcS2qAC9TjkJKi/q6rk1PbeccHzJdqY5KATa+mPM8eil3+ntDO1mbBpwvDuA8Qrt7aOlF4rW7Ni0zn7+eSqfRn+6ydb3ub33SOO5vDFbHKkBKMQaXznMzAafz3Pv5uzDYWI5poEePk8+lvc+NGz7EB40bEsvxoC8v2dPU4AgEUjv7Zoz/2T2lMNQm/W3WhVkD0b7O6XLwY2co+8TWmL+Q0z414GjbtmI4V7d8mGQTNOYWWuiVbhYYSLCFGciOc2jOUSa4zEugYI1KjjNA6fqWWqoFMNxDu5kAdt0G6aJZAeeM5TXmezzWbgaqbzDcuts31kmQOmavobphySmYXdOguRQUAxmzjYsR8Z3uJ2BH5vw5gei+VNV5i8xKdRp6TvYSpmJ8TOwtzpIVW/5EA462UR403qiCxjTOBJLHeizZK9q1il0nwXLaMbRv5hT63r+X0QXCFUveoCdTOe3yt4cFWLydOCMJOJbPunVDIw7e2TjnOXrjHPO1qtV1dMafa2jW36YVLJbDmsRZZ92bLg8DA0S0Yty3dzpVR78BJYFdkgCT2E20PVRFT8HrvxLTPYUbFc0+GobdO09kho7daMD5gsZwaKckc1nXhj5tTM+k0mPor/fbsQuTiTzS9oIZ+8l8z9Tz7QDHZEnmOdK1M+JAhl2y9s/0QWLaUABHuUa7Ixv1jNQhzgY6asyL2aQZWwwweRXPvygtWovnFpmNwlJHOzt7EhNH4s/R+a1jNbPRgPPFDRqLm33VrySjSVxZVIZzXUvdVQabuWPTh1aWI6yGdj6Nrt9nIi0+h/ZX5/ymdW5BWI7oBI8vlClxl9lRSZXJkDmiSGSVBuSYZ/5ZzivPdYQ1ju+G5AXmVvhbD9eulAacLzLD2XE+3X+4GVd5OXExs57LzTiMSwxnCZVNFkwmjxgOM54FloD0y938eWPPNADv1xtfECCEdP1P6J3LZDC7dVkBXCtDWvRYCmAgsayRCeU8pkiyl7Apjp6r9K04r1MyocpN07UrpQFHx3DMwPH6D00wokMmUQmzFPcs1fP0zIkZbpBrliqRmpW6dROD0jjnbJcBSoWQs1Vd3JWtJ5F/8yKLnnERJWw7QyJu4++4aNiUJDXgaBvdrQ248X/26cP0j7Siv6LV4Yjz9jBZzWMRduPGCKa111/uNdPjlQge399c0EJBszivsvVIaNq8rtoPVMocrCWnabA5DW4MikmcVWjQ9Md82o3SgKPti7qgDdCpwHRsf++dpmytL5peHZwj84mn6mYbWtyBrlegd/NdDTYacLTp7nGLnnH36QCJF1K1jJV+sc8St7HGZZLPWfSN+2Sflr9nHuwyOkfV2ujiPg042rSlVAlzbY0/8mNISfwOcRc51rdaTQzheWksws+ZKWH8c690l2rUjHsx355T5t0zIXcx2albXZsGHG2a7aRKWHjiB6Kj+zw0dt6K3qjnhZCWL7ZATPqQ0z7mg9G8AYDh19CB3uXF70egJeJLTvo72jTgaNNmYTvkKDlKNZESnvKBsdTfEBXGFW17Qc5iD8dGzoQGGg042rTl0/2d4zQPtwZPbRpwtGkbfHuEIaCuVfo04GjTpk0DjjZt2rRpwNGmTZsGHG3atGnA0X8Ebdq0acDRpk2bBhxt2rRpG5z9f9wiJfA6LDM0AAAAAElFTkSuQmCC;" vertex="1" parent="GgMLfgmkicdNKZzxbHs8-15">
          <mxGeometry x="15.730000000000018" y="40" width="150.8" height="60" as="geometry" />
        </mxCell>
        <mxCell id="GgMLfgmkicdNKZzxbHs8-31" value="GoogleBooksAPI" style="text;html=1;align=center;verticalAlign=middle;whiteSpace=wrap;rounded=0;" vertex="1" parent="GgMLfgmkicdNKZzxbHs8-15">
          <mxGeometry x="46.129999999999995" y="100" width="90" height="12" as="geometry" />
        </mxCell>
        <mxCell id="GgMLfgmkicdNKZzxbHs8-22" value="" style="endArrow=classic;html=1;rounded=0;strokeWidth=4;" edge="1" parent="1">
          <mxGeometry width="50" height="50" relative="1" as="geometry">
            <mxPoint x="200" y="300" as="sourcePoint" />
            <mxPoint x="200" y="220" as="targetPoint" />
          </mxGeometry>
        </mxCell>
        <mxCell id="GgMLfgmkicdNKZzxbHs8-23" value="" style="endArrow=classic;html=1;rounded=0;strokeWidth=4;" edge="1" parent="1">
          <mxGeometry width="50" height="50" relative="1" as="geometry">
            <mxPoint x="239.89000000000001" y="220" as="sourcePoint" />
            <mxPoint x="239.89000000000001" y="300" as="targetPoint" />
          </mxGeometry>
        </mxCell>
        <mxCell id="GgMLfgmkicdNKZzxbHs8-24" value="&lt;b&gt;&lt;font style=&quot;font-size: 30px;&quot;&gt;分散型図書館App&lt;/font&gt;&lt;/b&gt;&lt;div&gt;&lt;span style=&quot;font-size: 30px;&quot;&gt;&lt;b&gt;システム構成図&lt;/b&gt;&lt;/span&gt;&lt;/div&gt;" style="rounded=1;whiteSpace=wrap;html=1;strokeWidth=2;fillWeight=4;hachureGap=8;hachureAngle=45;fillColor=#dae8fc;sketch=1;strokeColor=#6c8ebf;" vertex="1" parent="1">
          <mxGeometry x="298" y="26" width="270" height="90" as="geometry" />
        </mxCell>
        <mxCell id="GgMLfgmkicdNKZzxbHs8-25" value="" style="endArrow=classic;html=1;rounded=0;strokeWidth=4;" edge="1" parent="1">
          <mxGeometry width="50" height="50" relative="1" as="geometry">
            <mxPoint x="470" y="400" as="sourcePoint" />
            <mxPoint x="410" y="400" as="targetPoint" />
          </mxGeometry>
        </mxCell>
        <mxCell id="GgMLfgmkicdNKZzxbHs8-26" value="" style="endArrow=classic;html=1;rounded=0;strokeWidth=4;" edge="1" parent="1">
          <mxGeometry width="50" height="50" relative="1" as="geometry">
            <mxPoint x="410" y="440" as="sourcePoint" />
            <mxPoint x="470" y="440" as="targetPoint" />
          </mxGeometry>
        </mxCell>
        <mxCell id="GgMLfgmkicdNKZzxbHs8-10" value="" style="group" connectable="0" vertex="1" parent="1">
          <mxGeometry x="649" y="130" width="140" height="130" as="geometry" />
        </mxCell>
        <mxCell id="GgMLfgmkicdNKZzxbHs8-3" value="" style="sketch=0;aspect=fixed;pointerEvents=1;shadow=0;dashed=0;html=1;strokeColor=#6c8ebf;labelPosition=center;verticalLabelPosition=bottom;verticalAlign=top;align=center;fillColor=#dae8fc;shape=mxgraph.mscae.enterprise.database_generic" vertex="1" parent="GgMLfgmkicdNKZzxbHs8-10">
          <mxGeometry x="21.899999999999977" y="-1" width="96.2" height="130" as="geometry" />
        </mxCell>
        <mxCell id="utUIKrU_M130MY80s2PG-2" value="" style="shape=image;verticalLabelPosition=bottom;labelBackgroundColor=default;verticalAlign=top;aspect=fixed;imageAspect=0;image=data:image/png,iVBORw0KGgoAAAANSUhEUgAAAgAAAAEACAYAAADFkM5nAAAu6UlEQVR42uzDPWpUYRgG0AdBSKUhoKCljYWdEcR578AsIYUz34copLK1sLMahVhbuQE7FyIoYqu12BqwSCk3ELKAEPJzA+fACQAAAAAAAAAAAAAAAAAAAAAAAAAAAAAAAAAAAAAAAAAAAAAAAAAAAAAAAAAAAAAAAAAAAAAAAAAAAAAAAAAAAADH5s/vZNafptrbVP+Uap+PDu1jhvYqQ3+crK8FALjiFjubGVavU/17qo0n+Ce12svsxe0AAFfMfHkr1d+n2r9UG0/xINXfZPvl9QAAE7fY3Uit9lLtINXGM/gjw7N7AQAm6kmfpdrPVBvP+N8My+0AABOy2N3IrH1Itf+pNp7T/VR/FABgAqrfzdC/ptp4AfdTy/sBAC7RvD1Mtd+pNl7gX1nsbAaA6bmx/rK19e7bg5vrQ/buPDiKMo3j+BPlEhAoBcpllXVZjxUEZEFJpjtxEDkCgoD2kUgE5BJBBURkFXBYUBQI96ECikoQWG5QUEBFWIkkhCshhhAgJNyBcAYP4N1OF1SN7VjrYr/v2zP1+1R9KyUJE/Wf5+mZPtIerToiXUOR1w2tXxxAivGDFROez5xHAADgDdUCaf5qgfRJVQPpB6wYitwqdJ951vF5v4w6EQAAyFMlsDXaOtLf4NVhhdztph6zGCnGFSsmuXyKjy9PAAAgWCCrnDUQZnp1UCH3q9BthmMIy82+fTAAAIhT+c2MGlUC6Rv/18CoOWobu+2NDBQBVegy1R66HquQ/P4yBAAA/NUKpFe0hnu6FXN259gd7IlF+Wxo6ik2Zfd5NiOnBEVA7SYukzHcL/2un4vVOxAAAPDGoqoGtn7iHPzVR2WwzisL2ZTsC54dYuj66pXyDYtSTdHDf6/Vz7/vZ/XlBAAAfFULbO3qHP61x+xgw1JPeXaAoetv4IptrKy/s+Cjfn299fXi//F3SqhlUiUCAABOAl9VsAZ+vvMz/sCWYjb9+xIUYQU27GMVW3QTOfwvXL2d8MXrOBnwMQIAAG5H//2dR//PrT3KpmVfQBFW8raT7E/aAJHD/5xVP1KN09f590cTAADwYQ381ODh32Da7tLP/FGENTnrPKvfd7TI4X+CFL2N9fXA9b+Gvp4AAMB91QMZtayhfyV4Aei77hibvPsCirDi354ncvgftR/zqxib/9jr6McIAADcVyWQZv7irP+RGWzczrNsUtZ5FEH1nv+tyDP+T5DPuJ8U82N3Xq/9zQQAAK6//T8oeAGoPyWLTcw8jyKoEZsKWeVWPUQN/2L7SYKq2cu114zR6hMAALirSiA9OXgBiJmVwyZknkMRUvKuM+yubsNFDf+zVtGkGg2tryWuva5PjyMAAHD9HYBZwQvAw3NyraFxDkVIrUaniBr+P5HPaEl+rTIpRra7r222JwAA4L8AjNt5DkVA/ZZuZzeoCSKG/xVS9C5USjFS3H99XScAAOC8AHyQy8buOIvCvDfTiliNji8IenKfPpRK+Qyz9J+xAAAAhIFQC8CY7WdRmKcOfVfUW/8zqZRfu40Us4jL7/CZTxIAAPBdAOKsBeDt7WdRGNdnSQaLihVxyZ+5kepp5aiUoi/h9nt8CY8QAADwXQBi389lo7edQWHaiO9OsFse7yviyP8AxWo1qJSqPxPqZ3AZIACAh4VaAN7MOIPCtNjhs0UM//P2pX6lmj51OynGGZ6/z/54AQAAeC8Ae9gbW0+jMKzf8l3shthE/mf8B38m7zOWcv59l8nvL0MAAMB3AVBn72Gj0k+jMGvklmJWu/OrAs74N5LpGp/+hJDbCgMAAP8FQLEWgH+ln0ZhVtsJS5mAYbyZGvcqS6Uaa1VJMQ4JONEwnQAAQMwCMCKtGIVRL3+Zz8o378J7EBeRqtWma1Rjuph7DBjvEwAACFgAZu1hgS3FKIxqNHCyiDv9taFrfFoMKcZlKyag/gQAAPwXAJ+1ALz+XTEKk3ou2m5f8y/sc39Nu5EUM935M7gHAABAmPn1ApDDhqeeQuHQ5pOsdtJrvIdwJvm7VqBrFP1Z+89F5U+oTgAAwH0BsB8HPDT1FAqDOkxfw3sAl5CSUI+ueajjrY7b/fLuEAEAgKAFYGYOe23zSeTxXtl4jFVp24fz2+/G8xRMMWfYfy6u+QQAAGIWgGhrAXj125PI4zV/awHn4auvJqIouibGbESKcUnwAtCbAABA0ALwXg77539OIg83YH0Bu6lld56D9wzFmXdQMJ+xzv6eyOIS7yYAABCzADS1FoBXNhUhD9f0tVm8h28PCqYaj9l/LraDBAAAYheAwZuKkEfrs2ovK+PvzHPwriWiqF9e9mdkil8AzDkEAADiFoCHrAXg5Y1FyKM1emkaz8F7jqLNOymYYvSwYsJTzSQCAACBC8C737NB35xAHqz3yj3sxrineA7efhSsZVIlx/3+RfUTxWi3EAAAiF0AXtpwAnmwBwZyPfrfYr/dH0wxhlsx8emrCQAAxC4AD1oLwICvjyOP1WN5Ds+j/0v2ZX7BfEk17asBpCwAZncCAACxC0ATawHo//Vx5LEaDpzK84h7PDk4nvYnsp9x+18AABkLwDvfsxe/Oo48VM+VeTzP/D9Ifq0yBVO0e+3P4eUsAJ8TAADIWACy2QtfHkMeqsmQWTzPtu9IToq+xP6ejHx6TwIAAPELQOMZ2ez59ceQR+r9WT4r37wbz2v+bY5n/V+RtACUkL9DNQIAADkLQN91x5BHignM5XepXaxWl5wUc6O8o3/jIwIAAJKyAPzDWgCeW3cUeaDeawpZxVY9eQ3bieSkJLSwvyerWO1hAgAAkrYA9Fl7FHmgZmOW8brMrsi+0Y7co39neUQURQAAQFIWgEbTs9mzXxxBHujWTgN5nfjXi5zUhNZSj/5VYwgBAIBN2gLQ6/MjSHLt3tvEa9jusu/456QYqRIXgJ9JMWsRAADYpCwAD0zLZj3XHEGSu/OZUbyGbTw5+cy2ko/+PyEAAHAQvgDsZj3WHEYSMxdksSg1gcOJf+bXFIpqfmd/X17RBAAADoIXgIbWAtB99WEksYaDZ/IYsldIMZuQk2K2lzv8zW8JAAAcJC0Az3x2GEmq66oCVrE1l0v/UujXokgxtshdAHSdAADAQcIC0GDqbtb100NIUs3Gr+YxaH8kNbEOOcXqHaQOf/s5BP4yBAAADpIWgC6rDiFJ1Up6ncdJdtN/4+h/m9QFwKcPJgAAcJKzANS3FoCnVxUiCXVK2cGiVNPtQXuRmj51OzkpRicrJrFiaqxVJQAACEHGAjBlN0taWYgk1GDwbA5H//okCkUx0uQe/ZsjCQAAQpK2AHReUYhEt7yAVW7bx/2j/xjtz96657/deYrVahAAAMjjXADun5LFEpcXIMG1mPYNjzPsx1IoPmOd5AVgDAEAgDShF4DJWSxhWQES3F19Jog5yvYZD0oe/hfJr91GAAAgl3MBqGctAOayAiQwffF+Vq55V7fP/E+mUBRjkeTr/qcSAADIFnoBMJYeRAJTxnzm9qD9IeTDdRTtXlKMyxIXgBL7nAQAAJDPuQDUtRYAbclBJLA7uo/mft2/zWfOlnz0P5YAAEC60AvApEz25OJ8JKiOC/NY2WZPuzlof6I47a/kYB95K8aPEheAc+RLqkkAACBb6AXgPmsBeGJRPhJUzFtuv/1vzqFQVCNZ8sl/wwkAAFzAcQHotCgfCeqO7m+5OWQvU7RxX4ij/1vsI3B5w/84Ke1vJgAA8A7nAvD3iZms478PIAE9Pj+PlXH37f8VFIpiDpN71z9jIAEAgAs4LwCPLzyABOQbt9blQavHkVM9rRwpxhGJC8A+io8vTwAA4C3OBeBeawFov2A/ElCdvpPd/Ow/nUJR9C543j8AAPyuBaDdgv1IQJXaPufm2+ymBx/6k0pEUQQAAC7gvQBMyGSPzd+POOefscXNJ/4VUONeZckpVntY6tG/qqkEAADe5FwA7pmwi7X5ZB/iXN0hH7v59v8gCkUxFktcABYSAAB4l3MBuHv8LhY/bx/iXM3OAfce+uPvUI0c7JsBKcYlScP/B1IT6xAAAHhXqAWgdco+xLFWc/eyss1ce/jPOxSKoo+Xd9mfOZIAAMDbQi0ArVLyEMeiJ2xwb9jGJjQgB/umO6pxWtICkE8tkyoRAAB4m3MBuMtaAFrOzUMcu+elD9wathsoFNV4Ud6Jf3o7AgAA73MuAH9L3ske/Xgv4lj1xOFunfxn0K9FkWLkSLrj30oCAIDwEGoBaP7RXsSrD3NZ2ebdXBi4+uGQl/4pejNZz/rHiX8AAGEk1ALwyId7Eadipqa5NXBHUCg+c56cBcAcRgAAED6cC0AdawFo9mEu4lTdYYvdeeqfL/Ev5PRQx1vtS/DELwC55O9agVxkn0iomn5SjJfJZ7xrff3UajPZma9aX/uTonexn3+gmLUo0pX+NyoJLUgx+l29wmOu9fWLq/8/0q+2kRRjrdVCUs33SDWG2LdiVswm1LhdRfIKn9HN/vf9RUamVZ5LpRAAXMcCMG4n88/JRZy6vfdEN97+X/0bQ2KQpPv9tyEX2B9pqIZGirHC6uJ/2Tub0CaCKI4/tRcv9ehBUYOieFGhlTYzL1r0oiBU0Z039YtaEexNUIyCB29arSDSVqVJVUS8ePEi3uzBihVRqwdNExARQSgoVAoqyro8Vk+btZud3QQ6P/gTAvna2SXvv2/em4m+5bC6D6jzgLQeqoF6lx8k7kEj09a1GFD1+BmdDwbO009PTwHpEuTUzlQNQfpFqs/AYrFENwAZzwBsulG2SkiZY0UTffZ7qhT/vUs7+BsJpI6zAKQ+DKg+Gm1HRBoCQZ3cFsmcnQ+SHvlTFk+g0WhxFoFQR0DSY0+/oxyv3/b5NcJ7vrG5ENSZ+m6NwtkAgvpB6psg6QGbt/jn+xcgjYGgy5wZslgsNRiAi6/d3MikVUIS1964TfEWAZoK+sP20+VuyprhqYg4SGcNoB6v8vlfgLMB6jQHqpyzmdc9ELQRsGsbCLUfJJ3j94euesjB9P3fO+mGMwBZZxVINcCrOoaPd8XTMEh1FLJ6K4990J18R0cTIK3mO31UZ0DoUc4AhBWUIp3iFSXrwzw+HqSxGq/DwpyYBrJYkjYAKzwDgMVJqwS1tHcwTqtdPwQh6U76bX/qJMSAg3pw0HsJQndHqSvg4IXqOEj6FPabG8oAoLMMkEb+Y17KbIDiGq22fc2A+oBfR+FW0TQg9fFr6wJnaG5FvAbPg8ViMWUAJlxZLFklIFF4y4+tV8ZdQF1b0G2ntYEr/0maSSnwT4GgQcgpGWurX1Q9AYHvO6DO85RAjXB2hGsh6EfDGoCss5C7OMLrHF542s5jbBp0WgDpYch3fwZBhzggpwsXf3JGYpatsDyWFovFjAFY7hmAbKFkZVjr+kbdzInb/543787X0mr3HIJAOpj85j5019MOLtSLC5ITEPyn2VQYgivfJVXqbgCCt2iuhBYzot6bRvDlaRRJ5dAxErQS0gZpaJbZsOtgsVgMGoALE277cMnKsJb0XnWbtnS7rQOv3D/sXQmUFNW5/gcFjaLihgtgXJK47+8JU7eGMxqDonFB7brVDEhwI0FQIy4Pg8LIjiCyBY3GJRi3d9SoHKNC5MWHhCjLsPNUDOiLJoogCrLJVIrvtGRmqL59q+ve6q6a+53zHRiWqa7p6nu/+y/fv/PrY29/qhgBcBcFQHCai0bkht0hVJU5VGEL2CkBYf+txNwqUgy8bmy2pRcAyMszd0SBcP/rVNXjCIoRiB6Jw+4bIEhiBFo85cL/PcjAwECdADjKFwAdf7PSUDG/d3E/LFpH9JmIr8/2hUCFnY0e/rd6tiXGtyu29J2JdjmE4lVvgnxhnHlcFMMxd22sAiDYn+HNAj/3MQj3lwq2e4NQnFjub+nkTCuKAehykXpOM5VkYGCgUACMXuSd89BKQ4U8beycXYtWRefu3ulj5+DPW19+W5iNeVmeE3V/RRv/Dnj5V2bO0bjJ3BgY8q7OtNZsPNOlZAKgc/cf5nwHvDysR91DOcByrhQbSTl/QquiblQ6F0g9sx1r2pOBgYFaAfCfD600VMj2/R9utHAdVDMUf96u79Qwfd7DKADYyKJt/JuJuVNlcr1RIgI4PTL+UanyuPAriFsAVGZOJcY/LZBmGUjlA3RmCCMBNl/s31c70gf5ltbKzEFkYGCgTgB0GF3nnf3gCkOF3PeyAU0WUdc7ccQs74Shb4SY+8/PoibA8B3G64vf+Pl4qs4cLsyhW9xFn7XFZ0aa888cR+AiqB+d3KMxsCguAVCVOQkdE7iWIKxejmDuLws8O6t0igCE9iWeYdMBYGCgWAC09wXAWVNXGCriqWODW/4OcAd7Z/56GQoDJRa7vwXlh2HyEn7j34pTd8ACjgXVds5HTh7+7Lvc6HZELtJj/A9BrwcbZUxAsVscAqBz5piCfgQ2fxsdFeUKxh8r8BytQP2JBsDoSeJZRk2JgYGBQgEwqs7fmJYbKmL7mx7PswG43vFDZ3ptsrUy4f9xeRbpZWGsUnGS7+x2aBjSR86fYbjOm4L870gFxX9fB31vwSaiObfsztFYVb+0wHvxFVIu5YyddRkWf6/AfSyCAVOJBACe36TBfz52fuZgAmVgIEZpBMAZU5YbKmLrbvn7/ffPDPI6/HKaRPjfYUF+6vL1A850YtmTdxWlWfwXxPjzPtdJ/P865O8jGs+URSEXZg44/9QoACp2RToExNyDJAAbcaEOE+cl1d0L2CAlnmt4JSQJKNjl3zRyebSdS8jAQIBYBUA7XwCcNmW5oSLulxkkXMQ6DHiqoPNe4EmH8TESi+S7qOzO5fF9rg5rAATv/ahgvCZ/Htc9k2IExJAOASDfkTEbG2ZSwJzJEn4RA0shABL1c9wp4hmvT7QgNEgfmgqAI0fWeadOXmaoiMcNfl24iB3g1np7/ri36N/8Po9n+keiIi2ftZgJnztxFEMMiFEBca1CDcUIpFPUCwAU/UmMMK7H5pYkVGcPkYgUfYvK/bgFQJJg8bGCe9mOIlUDAwFiEwCnTFpmqJD7CtIAFZ1r8PdCt7NgO1kvgBvRq23xmXLdAeIiNWU5VubcJ7jWYxQnYDLjzlN83Qpi7v9KjHF+ipIIy7lDwjzqPQxvik8A1FOSwJzhBaIo95KBgQCxCYCTJy4zjMoJS3f9vsMdzwsXs70u6pfXnCeoSA5V/AELos8vFJkCbcSI2njCyJ8lvp3Lcn8mKapOpyTCN/9B4WLB+3OHxCgAdlCSgBSA8H6eJwMDMfQLgCNGLPROmrDUMCKPrZ3hHTXwZfz+xAcW+2H+a/N++Fuce3W+v3snuJCNf6Z3+I/zcx1hdwH7UFKB6XVSI4hnUJJhOxNkakZQZBoVtttRqqslabD4i4L7GU8GBgLEJgBOmLDUMCLb9n3EP9n39054YAm+PvjaCcVsxrWC8L8WYrCQ4uIqhDfF112NGfRJhKQXQ+KrvTFTQWpg1bSYBMB2Shr81so8XSJfIeJmYCCGfgFwuC8Ajn9giWFEtr7qbny4D7/5d/j66MEzitmQOwlOYuqJyIJ7pAZTmT4+vUS64hXu+V8vsSmuLWvTH1lYfL7MxozNTL8A2EZJhe12g9C2+XKy+Ctok40LttuTLP4AfjUwCBIAPxq/xDAK71/stajuhYVqj/N6ez8YMw9/3rJLnzCb8RcI9+/eZ75G0+Zfr+2UyrI/kXwN/ShJsPitzWpuve3eKfk+PhKDANhKBkKI0ofoEDIwaCoADhu+0Pvh/UsMI/CowTMbD/+5djL+vE2vcWFC8U8LDHU00LlfcytZvYwIQUFdIoBWzA8lw//nUxrgn+yl/SPs7gdqFgBbyECIfOlDIwAMhALgB+MWG0Zg2/7Tdmv1O3rY2167ga+EEADuDQF52GE6Nn+Edrt23Yt0gvGVISyLb6dyh5U9T3boUuK7HBoA/hOSz2+Ea3SS+rkahJ7vYASAgVAAtPUFwLHjFhtG4AFXj93d9rdmlHfM2DqkBGQWUFRTC7z/FfJrFHgJoM0LQMwn0FdersgNFpLgLEoTGH9S8r7f0iwAviEDeVT1OIIY32IEgIFYAAxb6G9Uiw0jcO9Lb9vd8MfOeu1r/+y1zg6XWTz/PyDffJym0H8vEkDzgBcxbfevZVkdjeFG7lrJexhCaUKuoFOC9Rg8pU8AbCIDaSDFx7hnBICBUAAcOmyBd/R9iwwjcM/zrw9ctPbltd6htzwjs3g+GWA2c5MGAfAkxQhs6EVEKMrOK91yOodIr1xGaQLy89J1LFdrFAAbyUAKmLfB+HYjAAykBMD3xywyLJaj67yKqu55RwAffud0/FpgcbsuIP//muLN/4PYe++Ze2mESMULVJU5lMoAONVLvu7U9Xf7z4y0zbTNH6ViYGUqpYShgaxR1UKfnhEABgUFwCFDF3gdRtcZFsn2I+cJF67WNaO9lhf2DbVp4EOcy98p4macCkoAzCoo/nV/jpRFiafAYdaC3OvdlLiRtcoKAcFVGgXAV2RQsO0PPgOMe0YAGEgLgPaj6wwjsOWFNwqH/+zjDBG1jH0csOFcFmajLOt59Khl4F9HrFv4k6zlrKaZ/xskX+sSSiOkBRDE7EGaBMAGMhDPb8ht/skVAL549ttJU9VFEw36BcDBvgBoN6rOMAIP7DdNuHjt3W2g0EpVPPxHzEQ47tluTyVRDIv/Km6HPRS2yQuVNyiNkOsEAFH8qUMA2PxLSjp8fwyYb1nOKGJ8ts9VoH//EXP+P/6u7TYxAmBnxw/jVxBzp6JWaHeRvZXQBeW8APvtStdCMa6BYgFw73x/IuBCwygcMd/bI7gQEGzZtX/I/n/nY0UCYGHZqGnGRyq6p6WYtBYXLN4lVCtjGpGbbS9F28lqigCsp2ShgiqzJ5DtXAMRzviK/LUUzrnFbKCwGGbOH+XTae48OfLXdbYn5uzNNxQRCfynz4FIkRqoEwD+QCDDiGzde1L+B7cqi0JBqZGxVZmTFG2U6xF+Lx9U7GpNis4dPh+k6svbkGZgAZevgh9NaQTjt4cQAIOKOMFaEt97HZUzsCFn7Jx98svYcOXbX6tDFPiNR0osN65ZE9fpaKVFBI/xbxS8vgVUnTmcDKILgIN8AeC7ARpG5CGDZgVX+4u5cbewls1vVuHzjwr8MgQWgdxJSAE/JeY42l+vfK3F3ZRGMH5diBTAWE0C4AsqQ0CEMncOQtaC169AAOBaGjZ7/aZLduYoYnyuwtcHzxC4mRpEFwBthy8wVMA9u94U9kH+c8CJc7qCvP9QKmfY/KeIUKirc3gKRVAldjRMhKVxMbCcHiEEwBQdAgBGTGUInEQjPr/w7JcA6l8Yfy4vbb5ccJ061BZJENE1dfMkToXR2e7RssUYf+4/Wz6vJ8YnEUL83AsVbTKIJgAOrJ2/0wvAUAH36TUBD2bRIeOTM60iVszPgHFLEoBBM8g3eor4N2wkqsH4xBCbX39KIyz3qhDP9KOaIgCfUzninG4H50LyDxNz7yLbyaKmwXIvJuYMlxG6MJpSAFwv/3XGUNyw+ClIJ+yWx+dXBAucS/bJ1QrtkE1zlrV9uBroFwCHDDVUwTYDpoc8uTpXChznwkUSqvhZlDTgRMNrd7mWRed2spzB6IdWBFQpy1+/D6URtnOJTrdJFHXKFIAlEZ34idgEYxEA7ogyqU9B90xAMfMq6uQeTQWAdZHxbZKFgReRQfECoM2Q+X4hoKES1s7zWpx7jfyG1bGmfZOT1tBQGx4MWlxOSQfmBqBK2lNCpFEu3U/Ra3sgRF7yRkojkLLhniQf0SMA+D8oqfBFaYH0RpXuThu0HgqgQdi/09TJMZSXh+0MkPysDyCDaALgwFpDVdzLwfCfogYAoZhIvuDscdi0pgV+uyI2W3UFgnUQWIoW1Wa9GEmnAMCJmgTAp5RU+NE58XOTsRUJjVGC64wkCWgUIv2KEBGfNlvRHZMAANvUGoblAeB3Igq/4ut9+jwhmy9+MSD/tVUmF4ocWlqBuft8jSIR8HeyMmdEDH8PCiHK7qI0IlQRoDNKUwrgE0oqOmYPi0MAIMxfWgGA4VEBOfzZRVlkM/fZQt1OaJs2CC8ADPVwvztmekWMjYWbl8QGMwdGGmmHX9EP5zI10YDPiGWOj5AC6B1CAIygNCJcG2B/HQIAYi6xGNJCVOeC+9feseKOiOk+3w14JroUKWjGFRCFL5GBEQDlxorzessIgG5NFtnaAv/nuWbnkb2zPYrx/1MgAtYUnQ5gzrmJsl3WAJjbyKdBLimiT9yWSpklGYJCQHRBaHZsRIeALojF8lKYgKnvwFkHfwEDIwDKjS0vv0vmpHRck4d9Vr4wVy6sWkHNEXBY48MEVcEyRN9xMS1DqFqWv86rlEaEKIRE37cGAYCK8iSD8fV6BYD4xIzPEKB1EuF7AevcLyL8zN7Ma1RkO+eTgREA5ci9e02WmG2OnBgAR6tAi0yEDWvIgKgqexo28WiRgJFFhjXXS89eSCNyuVgJboaXhZ4IwEeUZAi87+EboACw2i6NAEDrXtB1iz6lM/fIPKJ/M1IKBkYAlCv3vfnFQovZXyQWwG/J4i4ZNIoGROwU2E525uwiTlavSX7/r1IZqbH525I1EHMI0CIA1lCSITb46qToGuNL5g7K+OsB110ZofPktwHfbxNVOheQgREA5cz97/6LR3ZWOJpTOGwFG5zTiwwCgUWAOZ8UmQp4LWIft5hW9+9T2iAdAXHu1ygAVlOSwfhGkQDQn6px7iVdsHq2DSpyhK1wEUBrX0AKKJFmZyFhBEBKuEfX/tK9q5h53bRDwKDgWFFEUsKLALQOFVOl3iydyfziyRBFkBcXGe6tkrJ6TjIEU/BU2XdjzG5JBIBzvaLZGDAACojwzW0W3U8+jABICVu5I6WtPxsPy3CfTWUYWVNKADP4Q4sAd2r4OgDnk2bpBcB4V9n0B94PfQLgQ0oyGN8sKJw8J4a5FbUaa0SmBV0zlEup3f3YgFRbPVl8ivH7NwIgcfzeDY/nXcwwQayBZ3aDv3s/Ve5+cYHxe0JaBX+sbyaA8walCfL21M8RoE0ArKIkAyZf2gXAJKHviCZAnAkMjiRGBY/xuamp4EtdNK0wjABIC1vf+qqgA4AqAmxWt5kcVziIfRTExDRCPWmATaiETwsYny1pAHSZZgHwASUZAiMgzMJQAeZMjl0AVGdahzQ4wtRTVPIz/gx+Lk3HPjNnYLPzPMnBCIC08J65+QoBFzTt3U21i5xGiHOgYsK0JCTw3snOd08DsLhL+S+siTCBUXYK5vuUZDD+rSBt9B+KigCnCNKOg3WN/JX6HKBmx3GI8d/nKSp9nyx+K545AyMA0sAWF/QNCj//d5OF4S2fH2IWgIHyKWRKc6LMvVbye0+iNADRKfm6B50CACYzSQbj9doFgM1/LfgZ3kMagDB9vmtCkKA+YFU+bwf8G98G3dQ9AUYApIktrxhcyIymAgYhNs+QgRpUZk9oeNoSLU5FFh2ukZlchxNx0sH48xJtlV9SZeYg3QIAltDJRYXo3gTeFArrVNy7y2BS5BafcxGNqHTPJIOmMAIgTdz76olBEYBrKAfMx2Z8KarM0wTfPhdVvfpz4eKqZDGfoSKA909qscv+hJKM6svbCCrXBSdLbQJgJSUWQ1qI7k1Z7Q/jD8YuAGy3u+DeFpDFH0KboH+PiNAZCGEEQIq4T9+nRS2AUM9g2mDzLyWKm7TOX9dVtY6Tvc2XS0QYXqEkw+Y3y01avHS/mATACkoqqqv3jEMAYLPN3/kySFPdTTbfNXEQMAgDIwDSxP3umBFUfd6uwSLbNxWh4jwCAJP0SoOK77wVBHwswqmnWsKOeAfSEUkENiy+WqLlsZfCqY+eiBBdSQVqUwT3pigcDofR/IL0V7pcOVMbBUsjjACIkYPf9So692jk748Nv2H7UxqREwClHGQEgyB9s/uRb03teGDGayT9DiriEQDgMkoqMOxL9JxkzlD0vj0ct0EVonwix1ODUDACIGXc46JbGn4o/k4NkFrTHwgAUX5YP9D3LDYDuoaKB9472NMKrgHBZ/PTKUlAoSNH1baAG6hz5hgCYhMASymp8HvaYxIAj8QuAKoyhwqiNk+TQRgYAZA2trxySMMPxTvUHPDvFMBLVCrY7g3R59aLgdCtwOMdtPhMShL8jaLQLAWMfgViFQBLKKnwW3xF9yYQiSom6IEw19EE1IIEX3cd0kkG0jACIGXcKzum4QfiD9QcsEsAuGsFC0Api9g+V9Z5Ybs9JTavGkoC/FM9nCrFm9U4DWKtWqIGYDElFQK3PLAqe5qiZ/5Rwc/vvzQKgFmlrANAisXiL8Ji3cAIgHLiXt3HNlThk6k5ICcAQJh8lADMGS5YdB8mhUA9gXgDWw/P83IGCv/cOQXu41X8u9gFALiIkgqki7QLADgBlkQA2HyY4P5eJs3ApMOcSExdS7URAMlmq+zoxpW4zQEQANL99vq9APRb9VaIwq+g5f5PWYdDCw39sd2/Upee+5IGQCQWFgB1pBPisPqMSB0tZ2cO0J2OAixnlOD9uzPqMy5oBTxf2A3TiZ9IumBnL8Q8ge8mqRoYAVBObMVHNNwEfkbNARAAjQrhfkTxokIwvvcdXSdohCHFhYcTqBxhcRcLtaAFD8VeulDlXC4hAFZT3OiYPWxXu6eVPY+Khd39wDiKANHrn/cazh0RWmrHE3NegADMX+OwSXCPs3RY/cJB8d8pq/rEFdwGwAiAlLGVM6yhALiYmgMaCwAPc77jAxYGwWb2U5393qh8Fp+kb6AyAk62jG8RFDHOF23+MdZRbIndL57xPrg2mDmeisU53Q7G99A+DZDfIj37Qt6/4MkG3+OJottiLfcmDf4DG5pdfZURAMliy6tqG4/HbA7ICYAm7EcxARPHgk/g00k34BTo/kYUEoU1ahkAi6i46O8thK/1AifXCCOcdZohvb/r2hEcD2H+JbgvZesC49cJRMZDFAK4X+b8saEVMyIi4hkc9QVaYjMq3hfUMzQeI7w1saZbTWAEQMrY8srBjXN9zQHBAmCbz676r+12zLMQfRFrIZ7tDBAMJarH35cSNr9aPOrXnRrbLAeL/05GAGDhjwvMva2R70EEIHogjgp1U/SaudCXXxIQJIx/0OD/rqKONe0lBMgzBd7DbUhFFFuox3gnn+8GtDjeRwZGAJS9ANj5IWoOCBQA4Bbke3WhOnsIPOMDT93xp1/QAsXctYJN9tmYzaDQkibyjEcu1+K9KT5UkO18LDlN7nO8x3qBEbdNxNsKzV0Ot5AC4BmP0G0AwYeOlkb3vhQRDBlYPdviPSr8Ps722VUmpYPXZDuXwE8j+HutQbTCQA77D5l/f7lulmlkQyOgZvOgQgAIjWRGqa6IR4ES43ODr+n8nEqFqh5HYDBQ/p/HBwjFxwAUsiGsLehUQJg9Rli8S+BriT8tgZw3OnUQXhaYOak1pYJhVkyGSnVBAgoi1OL/Yu96QqKIwvhIlHlxq2MXi+jUoVvlzCM6dJG6JDrvqZBQQUgYEeyl0lY3kgSDLiIk/aGbdAyhQ5KXKNCEEgLJhCAsQSF0N8KSnj9em627b2ZnZse3M+8Hv5u7zI7DfN/7vt/3+zo2739gr7Dq2U8VQs5ZzmG4cnI1P7QQ9c1HkByY9CoSZIsuST6/atQz09Bwj0TPZFLVYBlFbm/qzfXAkPHGASIBcOB4YCV5Qg/jpFL45H/ZUAGW3c75TTIh8MywWg4ZZQBU5qKfW5i4rothP59YGS2xHZbwI2cjSsmB9JQhGu2RTI489tmbH3VaHIWNiD6B5M353i1yDsEZ0KJ94rnIFGi3PIAttLff243vKD+ThkZpqO2ZbFM1WEaRG0SAS0Zc4CoBADMw8eAqac/qatO+WUTFnsFpRCXAEIbdltgHr+G0SdgZlD59+s8Ldf140fuP/xPrQlsgPKAnDvMY8Zz44Dy2OqJfb9so3RP7ZD5hXUxoM8ZwTdqJChR8IlCKRvBzYF8pIlCM/Zn0gGglPHT5W7K4LrQL2F58hxeYdMbnPc0gGfQLQgfKG/ztu4ZG6dh1620dD0xrqgbMqHFHc/rvQ/vZiAv+f7HPcSY5uzEOWDhYLwsb0wbHYISXKzsl+tiZYnPrSgsueVtAJAKLkpfcMnwFTNqBMidKsfLvFCXgJOdzeWBDG+AKSulhgQc1bBAUa5orjO4mWIQPRMDMonUYVLtBzjEkLsGgCq03i64Eez8w738nNtXUMgkBp1QNmFHjBiOgT0Zc8C8B+Jrvz42XmcmacAIrfAJc5ZxGX9Rij8RI3VPOMc4PMsMavGyIfQPe4JUA6BbYeZz6hfBKRnG/5sQpb4pzFhSjfA5c4LwPYWL4dqlYnKRocHfDRsMNRLUlaJZYIavykIi852wsS1A93npQtEDWfAd+y34R2RXqYSKRmrymasCMGqtb+3/n+pZxgQjsEPI4qo5RJh3OCZC8EKdKuxcCp0oFT5TgDwDjFfolgMCxghcmYan1ygBK02FAPgo3UpF0OWOOv+N6gqAJcWLJYkaWdjh9Z8XYXkMYCSHsgAkdhGrf/TP8HTbMhF2KzQRVGNiTel3Lg9OCqkEzSqxuG/gpguGMERccY/sg8CrxJI7PEPscZtBN9lIyQjfPOYaXHGEnIrkAhNDT64mN7pFq+NGcQE9i0utC99CF/j5hR5EkbBEg/iV2C9pQJkuLJUb969eJYI8pgNY6Q6OcYsCJTlWDZpRYffbej5yTloa30SxuRYvkgM8Zw3c8LuB9f/mqVTkheNPQ0NDYhJGRbbwVMKpq4IwKd7YPZnPCNA0NCSTmLE88JgG/YLykoaGhkY9E37vdPEjNqBo8o8CaC8OZnKOWhob3jWxDXlXk2ixFQ0OjIBLpN/trUxPTqgbQSmfNn/buHrSuMowD+KNSqaWt6eIgiCCioGMG7XlPa1CROkRFvOc9id8gQQQdRKWTpOLgqIsgCC6CIIKItJNatJPYIPi1OPgxiYMaYqsRano4ub1ToOTk3nz0/n7wX++Y8+Q9533+T797pn8C8E1AZ/OXtwtpug0Bv7dLYgDW+ihwYv70x9v1IbqTs+fZD/4erOGEDTfUVR91HAJ+bK+TAazlwLGFaa8Ehpu9z59YcgLAsLQb/lJ9qtsQUJ/aMTsSgC3w1uld+499NdM8vN5vsrRdH6w7JfuOfrY0dnsAGP3tgDL/0PEk4J0AuKj5k7uvfmVhcmJ+4cHmxsCcdMjRz+cGW/FgSNrFKCn/2mUIaHv1AdgEKf/ZZCmgb4gtiIsdhoBzUdazAcBo9atqz12SG+vYWgfruwYFS+vLf1FW0wHA6PRb0FZ29K56tq8i398+0Nc/BCxHke8JAEak3wneFmLAKKQ6DxoF15dFi4IARqXMr67uZq8OB4xKUT3S1il3aQ4sZ44EAENW5mdWB4D6oYARat/rp3y20+uAVOcAYIjKmSODfnwYtWLmzijzX11uB7T1rL3eFQHAkPrx2/vX1RsBm6HMN/Vvn6x0yMlI9bUBwFCKXM60e9xhs0z19l74ALVDFtuFQVNP7A4ANiDlr5t8G7DZUr63yU8dB4Gfm7y4riusk3O72gDQKPN7kfKyP4xshfY/+VS/ECn/0XEQ+KfJ8Siql+JQ745IvZvbdsHD9XVR9ibbIWP19080WWryVADQSPnlJitxqHdLwFZJ9+2Lon6uLadKeWVkKfInAcDgGHYlUlUFbL3LouyVUeY3B6VCG8+/qycAVaV2GOCCcvZApPx/FNVrAdvNwd6NUeQnm7weqfo0Uv6lyfJFXgl8F0X+sF10VVZ3N79xVQCwhpS/b/JFwE4x9cBEFLPXRzl7Q5vi0Wva2wUArEPKbzc5G7f2rgwAYEyk6vH+8entAQCMidXvAJajrOcDABgjKR+Psv4yAIAxUubHIuXfXJMCgHEyOb0nbnt4fwAAAAAAAAAAAAAAAAAAAAAAAAAAAAAAAAAAAAAAAAAAAAAAAAAAAAAAAAAAAAAAAAAAAAAAAAAAAAAAAAAAAAAAAAAAAJeg83JRpC+SxIbhAAAAAElFTkSuQmCC;" vertex="1" parent="GgMLfgmkicdNKZzxbHs8-10">
          <mxGeometry y="30" width="140" height="70" as="geometry" />
        </mxCell>
        <mxCell id="GgMLfgmkicdNKZzxbHs8-32" value="DataBase" style="text;html=1;align=center;verticalAlign=middle;whiteSpace=wrap;rounded=0;" vertex="1" parent="GgMLfgmkicdNKZzxbHs8-10">
          <mxGeometry x="28.100000000000023" y="110" width="90" height="12" as="geometry" />
        </mxCell>
        <mxCell id="pcGU8uATrUrEn8qg2J-J-15" value="入力" style="text;html=1;align=center;verticalAlign=middle;whiteSpace=wrap;rounded=0;" vertex="1" parent="1">
          <mxGeometry x="247" y="249" width="40" height="20" as="geometry" />
        </mxCell>
        <mxCell id="pcGU8uATrUrEn8qg2J-J-16" value="画面出力" style="text;html=1;align=center;verticalAlign=middle;whiteSpace=wrap;rounded=0;" vertex="1" parent="1">
          <mxGeometry x="140" y="250" width="50" height="20" as="geometry" />
        </mxCell>
      </root>
    </mxGraphModel>
  </diagram>
</mxfile>
